{
 "cells": [
  {
   "cell_type": "code",
   "execution_count": 7,
   "id": "063640a1",
   "metadata": {},
   "outputs": [],
   "source": [
    "from prettymidi import midi_to_notes, notes_to_midi\n",
    "import os\n",
    "from glob import glob\n",
    "import pretty_midi"
   ]
  },
  {
   "cell_type": "code",
   "execution_count": 8,
   "id": "90bc0f9f",
   "metadata": {},
   "outputs": [],
   "source": [
    "folder = \"./data/tmp\"\n",
    "\n",
    "files = [y for x in os.walk(folder) for y in glob(os.path.join(x[0], '*.mid'))]"
   ]
  },
  {
   "cell_type": "code",
   "execution_count": 9,
   "id": "6016523e",
   "metadata": {},
   "outputs": [],
   "source": [
    "file = files[1]"
   ]
  },
  {
   "cell_type": "code",
   "execution_count": 10,
   "id": "d70a5764",
   "metadata": {},
   "outputs": [],
   "source": [
    "import music21"
   ]
  },
  {
   "cell_type": "code",
   "execution_count": 11,
   "id": "cb4995de",
   "metadata": {},
   "outputs": [
    {
     "name": "stderr",
     "output_type": "stream",
     "text": [
      "/media/manu/Data/PycharmProjects/thesis/venv/lib/python3.8/site-packages/music21/midi/translate.py:785: TranslateWarning: Unable to determine instrument from <music21.midi.MidiEvent SEQUENCE_TRACK_NAME, track=2, channel=None, data=b'Bater\\xeda'>; getting generic Instrument\n",
      "  warnings.warn(\n",
      "/media/manu/Data/PycharmProjects/thesis/venv/lib/python3.8/site-packages/music21/midi/translate.py:790: TranslateWarning: Unable to determine instrument from <music21.midi.MidiEvent PROGRAM_CHANGE, track=2, channel=10, data=0>; getting generic UnpitchedPercussion\n",
      "  warnings.warn(\n",
      "/media/manu/Data/PycharmProjects/thesis/venv/lib/python3.8/site-packages/music21/midi/translate.py:785: TranslateWarning: Unable to determine instrument from <music21.midi.MidiEvent SEQUENCE_TRACK_NAME, track=6, channel=None, data=b'Melod\\xeda'>; getting generic Instrument\n",
      "  warnings.warn(\n"
     ]
    }
   ],
   "source": [
    "stream = music21.converter.parse(file, forceSource=True)"
   ]
  },
  {
   "cell_type": "code",
   "execution_count": 12,
   "id": "94ce0a1d",
   "metadata": {},
   "outputs": [
    {
     "data": {
      "text/plain": [
       "6"
      ]
     },
     "execution_count": 12,
     "metadata": {},
     "output_type": "execute_result"
    }
   ],
   "source": [
    "len(stream.parts)"
   ]
  },
  {
   "cell_type": "code",
   "execution_count": 13,
   "id": "5baf87a2",
   "metadata": {},
   "outputs": [
    {
     "data": {
      "text/plain": [
       "'Bajo'"
      ]
     },
     "execution_count": 13,
     "metadata": {},
     "output_type": "execute_result"
    }
   ],
   "source": [
    "stream.parts[0].partName"
   ]
  },
  {
   "cell_type": "code",
   "execution_count": 14,
   "id": "bdc5b726",
   "metadata": {},
   "outputs": [],
   "source": [
    "pm = pretty_midi.PrettyMIDI(file)"
   ]
  },
  {
   "cell_type": "code",
   "execution_count": 15,
   "id": "4416be01",
   "metadata": {},
   "outputs": [
    {
     "data": {
      "text/plain": [
       "Instrument(program=35, is_drum=False, name=\"Bajo\")"
      ]
     },
     "execution_count": 15,
     "metadata": {},
     "output_type": "execute_result"
    }
   ],
   "source": [
    "pm.instruments[0]"
   ]
  },
  {
   "cell_type": "code",
   "execution_count": 16,
   "id": "02fde46c",
   "metadata": {},
   "outputs": [
    {
     "name": "stdout",
     "output_type": "stream",
     "text": [
      "Instrument(program=35, is_drum=False, name=\"Bajo\") 718\n",
      "Instrument(program=0, is_drum=True, name=\"Batería\") 4227\n",
      "Instrument(program=4, is_drum=False, name=\"Piano\") 1068\n",
      "Instrument(program=24, is_drum=False, name=\"Guitarra\") 1192\n",
      "Instrument(program=48, is_drum=False, name=\"Cuerdas\") 118\n",
      "Instrument(program=73, is_drum=False, name=\"Melodía\") 413\n"
     ]
    }
   ],
   "source": [
    "for i in pm.instruments:\n",
    "    print(i, len(i.notes))"
   ]
  },
  {
   "cell_type": "code",
   "execution_count": 157,
   "id": "e45ba4cb",
   "metadata": {},
   "outputs": [],
   "source": [
    "from mido import MidiFile"
   ]
  },
  {
   "cell_type": "code",
   "execution_count": 158,
   "id": "c0d4afc7",
   "metadata": {},
   "outputs": [],
   "source": [
    "mid = MidiFile(file, clip=True)"
   ]
  },
  {
   "cell_type": "code",
   "execution_count": 159,
   "id": "d1d6ed16",
   "metadata": {
    "scrolled": false
   },
   "outputs": [
    {
     "data": {
      "text/plain": [
       "[MidiTrack([\n",
       "   MetaMessage('track_name', name='2nd time Foreground', time=0),\n",
       "   MetaMessage('copyright', text='(C)1991 Roland Corporation', time=0),\n",
       "   MetaMessage('time_signature', numerator=5, denominator=4, clocks_per_click=24, notated_32nd_notes_per_beat=8, time=0),\n",
       "   MetaMessage('set_tempo', tempo=249984, time=0),\n",
       "   Message('sysex', data=(65, 16, 66, 18, 64, 0, 127, 0, 65), time=0),\n",
       "   Message('sysex', data=(65, 16, 66, 18, 64, 1, 49, 1, 13), time=96),\n",
       "   Message('control_change', channel=0, control=121, value=0, time=5),\n",
       "   Message('control_change', channel=0, control=0, value=0, time=0),\n",
       "   Message('control_change', channel=0, control=32, value=0, time=0),\n",
       "   Message('program_change', channel=0, program=0, time=0),\n",
       "   Message('control_change', channel=0, control=7, value=100, time=0),\n",
       "   Message('control_change', channel=0, control=10, value=60, time=0),\n",
       "   Message('control_change', channel=0, control=91, value=85, time=0),\n",
       "   Message('control_change', channel=0, control=93, value=15, time=0),\n",
       "   Message('control_change', channel=1, control=121, value=0, time=5),\n",
       "   Message('control_change', channel=1, control=0, value=0, time=0),\n",
       "   Message('control_change', channel=1, control=32, value=0, time=0),\n",
       "   Message('program_change', channel=1, program=32, time=0),\n",
       "   Message('control_change', channel=1, control=7, value=85, time=0),\n",
       "   Message('control_change', channel=1, control=10, value=64, time=0),\n",
       "   Message('control_change', channel=1, control=91, value=10, time=0),\n",
       "   Message('control_change', channel=1, control=93, value=20, time=0),\n",
       "   Message('control_change', channel=2, control=121, value=0, time=5),\n",
       "   Message('control_change', channel=2, control=0, value=0, time=0),\n",
       "   Message('control_change', channel=2, control=32, value=0, time=0),\n",
       "   Message('program_change', channel=2, program=0, time=0),\n",
       "   Message('control_change', channel=2, control=7, value=100, time=0),\n",
       "   Message('control_change', channel=2, control=10, value=68, time=0),\n",
       "   Message('control_change', channel=2, control=91, value=85, time=0),\n",
       "   Message('control_change', channel=2, control=93, value=15, time=0),\n",
       "   Message('control_change', channel=9, control=121, value=0, time=35),\n",
       "   Message('control_change', channel=9, control=0, value=0, time=0),\n",
       "   Message('control_change', channel=9, control=32, value=0, time=0),\n",
       "   Message('program_change', channel=9, program=0, time=0),\n",
       "   Message('control_change', channel=9, control=7, value=100, time=0),\n",
       "   Message('control_change', channel=9, control=10, value=64, time=0),\n",
       "   Message('control_change', channel=9, control=91, value=85, time=0),\n",
       "   Message('control_change', channel=9, control=93, value=15, time=0),\n",
       "   MetaMessage('time_signature', numerator=4, denominator=4, clocks_per_click=24, notated_32nd_notes_per_beat=8, time=334),\n",
       "   Message('note_on', channel=2, note=77, velocity=127, time=0),\n",
       "   Message('note_on', channel=9, note=53, velocity=95, time=0),\n",
       "   Message('note_on', channel=1, note=36, velocity=88, time=0),\n",
       "   Message('note_off', channel=9, note=53, velocity=64, time=1),\n",
       "   Message('note_on', channel=2, note=74, velocity=84, time=55),\n",
       "   Message('note_off', channel=2, note=77, velocity=64, time=4),\n",
       "   Message('note_off', channel=1, note=36, velocity=64, time=31),\n",
       "   Message('note_on', channel=2, note=70, velocity=118, time=5),\n",
       "   Message('note_on', channel=1, note=34, velocity=88, time=0),\n",
       "   Message('note_on', channel=9, note=44, velocity=60, time=1),\n",
       "   Message('note_on', channel=9, note=51, velocity=58, time=0),\n",
       "   Message('note_off', channel=9, note=51, velocity=64, time=1),\n",
       "   Message('note_off', channel=9, note=44, velocity=64, time=0),\n",
       "   Message('note_off', channel=2, note=74, velocity=64, time=3),\n",
       "   Message('note_on', channel=9, note=51, velocity=58, time=55),\n",
       "   Message('note_off', channel=9, note=51, velocity=64, time=1),\n",
       "   Message('note_off', channel=2, note=70, velocity=64, time=18),\n",
       "   Message('note_off', channel=1, note=34, velocity=64, time=12),\n",
       "   Message('note_on', channel=2, note=70, velocity=117, time=5),\n",
       "   Message('note_on', channel=1, note=36, velocity=88, time=0),\n",
       "   Message('note_on', channel=9, note=51, velocity=35, time=1),\n",
       "   Message('note_off', channel=9, note=51, velocity=64, time=1),\n",
       "   Message('note_off', channel=1, note=36, velocity=64, time=89),\n",
       "   Message('note_on', channel=1, note=38, velocity=87, time=5),\n",
       "   Message('note_on', channel=9, note=44, velocity=60, time=1),\n",
       "   Message('note_on', channel=9, note=51, velocity=68, time=0),\n",
       "   Message('note_off', channel=9, note=51, velocity=64, time=1),\n",
       "   Message('note_off', channel=9, note=44, velocity=64, time=0),\n",
       "   Message('note_on', channel=9, note=51, velocity=49, time=58),\n",
       "   Message('note_off', channel=9, note=51, velocity=64, time=1),\n",
       "   Message('note_off', channel=1, note=38, velocity=64, time=29),\n",
       "   Message('note_on', channel=1, note=39, velocity=93, time=6),\n",
       "   Message('note_on', channel=9, note=51, velocity=68, time=1),\n",
       "   Message('note_off', channel=9, note=51, velocity=64, time=1),\n",
       "   Message('note_on', channel=0, note=60, velocity=96, time=57),\n",
       "   Message('note_on', channel=0, note=65, velocity=89, time=0),\n",
       "   Message('note_on', channel=0, note=55, velocity=89, time=0),\n",
       "   Message('note_off', channel=0, note=55, velocity=64, time=15),\n",
       "   Message('note_off', channel=0, note=65, velocity=64, time=2),\n",
       "   Message('note_off', channel=0, note=60, velocity=64, time=3),\n",
       "   Message('note_off', channel=1, note=39, velocity=64, time=12),\n",
       "   Message('note_on', channel=1, note=41, velocity=95, time=5),\n",
       "   Message('note_on', channel=9, note=44, velocity=60, time=1),\n",
       "   Message('note_on', channel=9, note=51, velocity=35, time=0),\n",
       "   Message('note_off', channel=9, note=51, velocity=64, time=1),\n",
       "   Message('note_off', channel=9, note=44, velocity=64, time=0),\n",
       "   Message('note_on', channel=9, note=51, velocity=58, time=58),\n",
       "   Message('note_off', channel=9, note=51, velocity=64, time=1),\n",
       "   Message('note_off', channel=2, note=70, velocity=64, time=27),\n",
       "   Message('note_off', channel=1, note=41, velocity=64, time=3),\n",
       "   Message('note_on', channel=0, note=62, velocity=105, time=5),\n",
       "   Message('note_on', channel=0, note=67, velocity=100, time=0),\n",
       "   Message('note_on', channel=0, note=57, velocity=102, time=0),\n",
       "   Message('note_on', channel=1, note=43, velocity=97, time=0),\n",
       "   Message('note_on', channel=9, note=51, velocity=50, time=1),\n",
       "   Message('note_off', channel=9, note=51, velocity=64, time=1),\n",
       "   Message('note_off', channel=0, note=62, velocity=64, time=8),\n",
       "   Message('note_off', channel=0, note=57, velocity=64, time=6),\n",
       "   Message('note_off', channel=0, note=67, velocity=64, time=6),\n",
       "   Message('note_on', channel=9, note=40, velocity=64, time=10),\n",
       "   Message('note_off', channel=9, note=40, velocity=64, time=1),\n",
       "   Message('note_on', channel=9, note=38, velocity=50, time=26),\n",
       "   Message('note_off', channel=9, note=38, velocity=64, time=1),\n",
       "   Message('note_off', channel=1, note=43, velocity=64, time=31),\n",
       "   Message('note_on', channel=1, note=46, velocity=97, time=5),\n",
       "   Message('note_on', channel=9, note=44, velocity=58, time=1),\n",
       "   Message('note_on', channel=9, note=51, velocity=64, time=0),\n",
       "   Message('note_off', channel=9, note=51, velocity=64, time=1),\n",
       "   Message('note_off', channel=9, note=44, velocity=64, time=0),\n",
       "   Message('note_on', channel=9, note=59, velocity=120, time=58),\n",
       "   Message('note_on', channel=9, note=35, velocity=60, time=0),\n",
       "   Message('note_off', channel=9, note=35, velocity=64, time=1),\n",
       "   Message('note_off', channel=9, note=59, velocity=64, time=0),\n",
       "   Message('note_off', channel=1, note=46, velocity=64, time=30),\n",
       "   Message('note_on', channel=1, note=48, velocity=88, time=5),\n",
       "   Message('note_on', channel=0, note=50, velocity=89, time=1),\n",
       "   Message('note_on', channel=0, note=55, velocity=94, time=0),\n",
       "   Message('note_on', channel=0, note=60, velocity=94, time=0),\n",
       "   Message('note_off', channel=1, note=48, velocity=64, time=93),\n",
       "   Message('note_on', channel=1, note=46, velocity=97, time=2),\n",
       "   Message('note_on', channel=9, note=44, velocity=60, time=1),\n",
       "   Message('note_on', channel=9, note=51, velocity=67, time=0),\n",
       "   Message('note_off', channel=9, note=51, velocity=64, time=1),\n",
       "   Message('note_off', channel=9, note=44, velocity=64, time=0),\n",
       "   Message('note_off', channel=0, note=60, velocity=64, time=28),\n",
       "   Message('note_off', channel=0, note=55, velocity=64, time=0),\n",
       "   Message('note_off', channel=0, note=50, velocity=64, time=0),\n",
       "   Message('note_on', channel=0, note=50, velocity=90, time=30),\n",
       "   Message('note_on', channel=0, note=60, velocity=98, time=0),\n",
       "   Message('note_on', channel=0, note=55, velocity=101, time=0),\n",
       "   Message('note_off', channel=0, note=55, velocity=64, time=19),\n",
       "   Message('note_off', channel=0, note=50, velocity=64, time=2),\n",
       "   Message('note_off', channel=0, note=60, velocity=64, time=1),\n",
       "   Message('note_off', channel=1, note=46, velocity=64, time=12),\n",
       "   Message('note_on', channel=1, note=45, velocity=97, time=2),\n",
       "   Message('note_on', channel=9, note=51, velocity=73, time=1),\n",
       "   Message('note_off', channel=9, note=51, velocity=64, time=1),\n",
       "   Message('note_on', channel=2, note=77, velocity=95, time=54),\n",
       "   Message('note_on', channel=9, note=51, velocity=50, time=4),\n",
       "   Message('note_off', channel=9, note=51, velocity=64, time=1),\n",
       "   Message('note_off', channel=1, note=45, velocity=64, time=33),\n",
       "   Message('note_on', channel=2, note=74, velocity=82, time=2),\n",
       "   Message('note_on', channel=1, note=46, velocity=97, time=0),\n",
       "   Message('note_on', channel=9, note=44, velocity=60, time=1),\n",
       "   Message('note_on', channel=9, note=51, velocity=90, time=0),\n",
       "   Message('note_off', channel=9, note=51, velocity=64, time=1),\n",
       "   Message('note_off', channel=9, note=44, velocity=64, time=0),\n",
       "   Message('note_off', channel=2, note=77, velocity=64, time=3),\n",
       "   Message('note_on', channel=9, note=51, velocity=58, time=55),\n",
       "   Message('note_off', channel=9, note=51, velocity=64, time=1),\n",
       "   Message('note_off', channel=1, note=46, velocity=64, time=1),\n",
       "   Message('note_on', channel=1, note=45, velocity=95, time=2),\n",
       "   Message('note_off', channel=2, note=74, velocity=64, time=2),\n",
       "   Message('note_off', channel=1, note=45, velocity=64, time=28),\n",
       "   Message('note_on', channel=2, note=70, velocity=90, time=2),\n",
       "   Message('note_on', channel=9, note=35, velocity=39, time=0),\n",
       "   Message('note_on', channel=1, note=43, velocity=93, time=0),\n",
       "   Message('note_off', channel=9, note=35, velocity=64, time=1),\n",
       "   Message('note_on', channel=9, note=51, velocity=78, time=0),\n",
       "   Message('note_off', channel=9, note=51, velocity=64, time=1),\n",
       "   Message('note_off', channel=2, note=70, velocity=64, time=57),\n",
       "   Message('note_off', channel=1, note=43, velocity=64, time=35),\n",
       "   Message('note_on', channel=2, note=70, velocity=109, time=2),\n",
       "   Message('note_on', channel=1, note=45, velocity=96, time=0),\n",
       "   Message('note_on', channel=9, note=44, velocity=60, time=1),\n",
       "   Message('note_on', channel=9, note=51, velocity=70, time=0),\n",
       "   Message('note_off', channel=9, note=51, velocity=64, time=1),\n",
       "   Message('note_off', channel=9, note=44, velocity=64, time=0),\n",
       "   Message('note_on', channel=0, note=58, velocity=91, time=58),\n",
       "   Message('note_on', channel=0, note=53, velocity=88, time=0),\n",
       "   Message('note_on', channel=0, note=63, velocity=98, time=1),\n",
       "   Message('note_off', channel=2, note=70, velocity=64, time=24),\n",
       "   Message('note_off', channel=0, note=53, velocity=64, time=3),\n",
       "   Message('note_off', channel=0, note=63, velocity=64, time=1),\n",
       "   Message('note_off', channel=0, note=58, velocity=64, time=3),\n",
       "   Message('note_off', channel=1, note=45, velocity=64, time=2),\n",
       "   Message('note_on', channel=0, note=67, velocity=106, time=2),\n",
       "   Message('note_on', channel=1, note=41, velocity=95, time=0),\n",
       "   Message('note_on', channel=9, note=51, velocity=70, time=1),\n",
       "   Message('note_off', channel=9, note=51, velocity=64, time=1),\n",
       "   Message('note_off', channel=0, note=67, velocity=64, time=46),\n",
       "   Message('note_on', channel=0, note=65, velocity=86, time=8),\n",
       "   Message('note_off', channel=0, note=65, velocity=64, time=34),\n",
       "   Message('note_off', channel=1, note=41, velocity=64, time=4),\n",
       "   Message('note_on', channel=1, note=43, velocity=97, time=2),\n",
       "   Message('note_on', channel=9, note=44, velocity=60, time=1),\n",
       "   Message('note_on', channel=9, note=51, velocity=75, time=0),\n",
       "   Message('note_off', channel=9, note=51, velocity=64, time=1),\n",
       "   Message('note_off', channel=9, note=44, velocity=64, time=0),\n",
       "   Message('note_on', channel=9, note=51, velocity=62, time=58),\n",
       "   Message('note_off', channel=9, note=51, velocity=64, time=1),\n",
       "   Message('note_off', channel=1, note=43, velocity=64, time=1),\n",
       "   Message('note_on', channel=1, note=36, velocity=93, time=2),\n",
       "   Message('note_on', channel=9, note=51, velocity=58, time=33),\n",
       "   Message('note_off', channel=9, note=51, velocity=64, time=1),\n",
       "   Message('note_on', channel=0, note=55, velocity=90, time=58),\n",
       "   Message('note_on', channel=0, note=65, velocity=101, time=0),\n",
       "   Message('note_on', channel=0, note=60, velocity=97, time=1),\n",
       "   Message('note_off', channel=1, note=36, velocity=64, time=1),\n",
       "   Message('note_on', channel=1, note=36, velocity=92, time=2),\n",
       "   Message('note_off', channel=0, note=60, velocity=64, time=16),\n",
       "   Message('note_off', channel=0, note=65, velocity=64, time=5),\n",
       "   Message('note_off', channel=0, note=55, velocity=64, time=7),\n",
       "   Message('note_off', channel=1, note=36, velocity=64, time=2),\n",
       "   Message('note_on', channel=1, note=31, velocity=83, time=2),\n",
       "   Message('note_on', channel=9, note=44, velocity=60, time=1),\n",
       "   Message('note_on', channel=9, note=51, velocity=64, time=0),\n",
       "   Message('note_off', channel=9, note=51, velocity=64, time=1),\n",
       "   Message('note_off', channel=9, note=44, velocity=64, time=0),\n",
       "   Message('note_off', channel=1, note=31, velocity=64, time=92),\n",
       "   Message('note_on', channel=1, note=34, velocity=93, time=2),\n",
       "   Message('note_on', channel=9, note=51, velocity=73, time=1),\n",
       "   Message('note_off', channel=9, note=51, velocity=64, time=1),\n",
       "   Message('note_on', channel=2, note=77, velocity=95, time=54),\n",
       "   Message('note_on', channel=9, note=40, velocity=32, time=3),\n",
       "   Message('note_off', channel=9, note=40, velocity=64, time=1),\n",
       "   Message('note_off', channel=2, note=77, velocity=64, time=22),\n",
       "   Message('note_off', channel=1, note=34, velocity=64, time=12),\n",
       "   Message('note_on', channel=2, note=74, velocity=81, time=2),\n",
       "   Message('note_on', channel=1, note=35, velocity=87, time=0),\n",
       "   Message('note_on', channel=9, note=44, velocity=60, time=1),\n",
       "   Message('note_on', channel=9, note=51, velocity=81, time=0),\n",
       "   Message('note_on', channel=0, note=50, velocity=86, time=0),\n",
       "   Message('note_on', channel=0, note=60, velocity=97, time=0),\n",
       "   Message('note_on', channel=0, note=55, velocity=94, time=0),\n",
       "   Message('note_off', channel=9, note=51, velocity=64, time=1),\n",
       "   Message('note_off', channel=9, note=44, velocity=64, time=0),\n",
       "   Message('note_off', channel=2, note=74, velocity=64, time=28),\n",
       "   Message('note_on', channel=2, note=70, velocity=98, time=26),\n",
       "   Message('note_on', channel=9, note=51, velocity=68, time=4),\n",
       "   Message('note_off', channel=9, note=51, velocity=64, time=1),\n",
       "   Message('note_off', channel=2, note=70, velocity=64, time=27),\n",
       "   Message('note_off', channel=1, note=35, velocity=64, time=6),\n",
       "   Message('note_on', channel=0, note=67, velocity=101, time=2),\n",
       "   Message('note_on', channel=1, note=36, velocity=92, time=0),\n",
       "   Message('note_on', channel=9, note=51, velocity=93, time=1),\n",
       "   Message('note_off', channel=9, note=51, velocity=64, time=1),\n",
       "   Message('note_off', channel=0, note=55, velocity=64, time=29),\n",
       "   Message('note_off', channel=0, note=50, velocity=64, time=0),\n",
       "   Message('note_off', channel=0, note=60, velocity=64, time=1),\n",
       "   Message('note_off', channel=0, note=67, velocity=64, time=6),\n",
       "   Message('note_on', channel=0, note=69, velocity=102, time=18),\n",
       "   Message('note_on', channel=9, note=40, velocity=63, time=3),\n",
       "   Message('note_off', channel=9, note=40, velocity=64, time=1),\n",
       "   Message('note_on', channel=0, note=55, velocity=97, time=0),\n",
       "   Message('note_on', channel=0, note=60, velocity=97, time=0),\n",
       "   Message('note_on', channel=0, note=50, velocity=90, time=0),\n",
       "   Message('note_off', channel=0, note=55, velocity=64, time=20),\n",
       "   Message('note_off', channel=0, note=60, velocity=64, time=2),\n",
       "   Message('note_off', channel=0, note=50, velocity=64, time=7),\n",
       "   Message('note_off', channel=0, note=69, velocity=64, time=3),\n",
       "   Message('note_off', channel=1, note=36, velocity=64, time=2),\n",
       "   Message('note_on', channel=2, note=70, velocity=127, time=2),\n",
       "   Message('note_on', channel=1, note=38, velocity=88, time=0),\n",
       "   Message('note_on', channel=9, note=44, velocity=60, time=1),\n",
       "   Message('note_on', channel=9, note=51, velocity=70, time=0),\n",
       "   Message('note_off', channel=9, note=51, velocity=64, time=1),\n",
       "   Message('note_off', channel=9, note=44, velocity=64, time=0),\n",
       "   Message('note_off', channel=2, note=70, velocity=64, time=36),\n",
       "   Message('note_on', channel=2, note=74, velocity=94, time=18),\n",
       "   Message('note_off', channel=2, note=74, velocity=64, time=32),\n",
       "   Message('note_off', channel=1, note=38, velocity=64, time=6),\n",
       "   Message('note_on', channel=2, note=77, velocity=82, time=2),\n",
       "   Message('note_on', channel=1, note=39, velocity=93, time=0),\n",
       "   Message('note_on', channel=9, note=51, velocity=75, time=1),\n",
       "   Message('note_off', channel=9, note=51, velocity=64, time=1),\n",
       "   Message('note_off', channel=2, note=77, velocity=64, time=31),\n",
       "   Message('note_on', channel=2, note=81, velocity=62, time=23),\n",
       "   Message('note_off', channel=1, note=39, velocity=64, time=38),\n",
       "   Message('note_on', channel=2, note=82, velocity=85, time=2),\n",
       "   Message('note_on', channel=1, note=45, velocity=96, time=0),\n",
       "   Message('note_on', channel=9, note=44, velocity=60, time=1),\n",
       "   Message('note_on', channel=9, note=51, velocity=62, time=0),\n",
       "   Message('note_off', channel=9, note=51, velocity=64, time=1),\n",
       "   Message('note_off', channel=9, note=44, velocity=64, time=0),\n",
       "   Message('note_off', channel=2, note=81, velocity=64, time=3),\n",
       "   Message('note_off', channel=2, note=82, velocity=64, time=21),\n",
       "   Message('note_on', channel=2, note=86, velocity=92, time=30),\n",
       "   Message('note_on', channel=9, note=40, velocity=64, time=3),\n",
       "   Message('note_off', channel=9, note=40, velocity=64, time=1),\n",
       "   Message('note_on', channel=9, note=51, velocity=97, time=0),\n",
       "   Message('note_off', channel=9, note=51, velocity=64, time=1),\n",
       "   Message('note_off', channel=1, note=45, velocity=64, time=1),\n",
       "   Message('note_on', channel=1, note=46, velocity=96, time=2),\n",
       "   Message('note_off', channel=1, note=46, velocity=64, time=30),\n",
       "   Message('note_on', channel=2, note=89, velocity=81, time=2),\n",
       "   Message('note_on', channel=1, note=48, velocity=93, time=0),\n",
       "   Message('note_off', channel=2, note=86, velocity=64, time=5),\n",
       "   Message('note_off', channel=2, note=89, velocity=64, time=34),\n",
       "   Message('note_on', channel=2, note=93, velocity=84, time=17),\n",
       "   Message('note_on', channel=9, note=51, velocity=61, time=4),\n",
       "   Message('note_on', channel=0, note=48, velocity=93, time=0),\n",
       "   Message('note_on', channel=0, note=53, velocity=98, time=0),\n",
       "   Message('note_off', channel=9, note=51, velocity=64, time=1),\n",
       "   Message('note_on', channel=0, note=58, velocity=103, time=0),\n",
       "   Message('note_off', channel=0, note=58, velocity=64, time=18),\n",
       "   Message('note_off', channel=0, note=48, velocity=64, time=2),\n",
       "   Message('note_off', channel=0, note=53, velocity=64, time=1),\n",
       "   Message('note_off', channel=1, note=48, velocity=64, time=12),\n",
       "   Message('note_on', channel=2, note=94, velocity=108, time=2),\n",
       "   Message('note_on', channel=1, note=46, velocity=93, time=0),\n",
       "   Message('note_off', channel=2, note=93, velocity=64, time=1),\n",
       "   Message('note_on', channel=9, note=44, velocity=60, time=0),\n",
       "   Message('note_on', channel=9, note=51, velocity=57, time=0),\n",
       "   Message('note_off', channel=9, note=51, velocity=64, time=1),\n",
       "   Message('note_off', channel=9, note=44, velocity=64, time=0),\n",
       "   Message('note_on', channel=9, note=40, velocity=64, time=30),\n",
       "   Message('note_off', channel=9, note=40, velocity=64, time=1),\n",
       "   Message('note_off', channel=2, note=94, velocity=64, time=2),\n",
       "   Message('note_on', channel=2, note=93, velocity=87, time=21),\n",
       "   Message('note_on', channel=9, note=40, velocity=70, time=3),\n",
       "   Message('note_off', channel=9, note=40, velocity=64, time=1),\n",
       "   Message('note_off', channel=2, note=93, velocity=64, time=32),\n",
       "   Message('note_off', channel=1, note=46, velocity=64, time=2),\n",
       "   Message('note_on', channel=2, note=92, velocity=103, time=2),\n",
       "   Message('note_on', channel=1, note=48, velocity=90, time=0),\n",
       "   Message('note_on', channel=9, note=51, velocity=90, time=1),\n",
       "   Message('note_on', channel=0, note=57, velocity=94, time=0),\n",
       "   Message('note_on', channel=0, note=62, velocity=97, time=0),\n",
       "   Message('note_on', channel=0, note=51, velocity=89, time=0),\n",
       "   Message('note_off', channel=9, note=51, velocity=64, time=1),\n",
       "   Message('note_off', channel=2, note=92, velocity=64, time=40),\n",
       "   Message('note_on', channel=2, note=91, velocity=86, time=14),\n",
       "   Message('note_off', channel=1, note=48, velocity=64, time=38),\n",
       "   Message('note_on', channel=2, note=90, velocity=97, time=2),\n",
       "   Message('note_on', channel=1, note=43, velocity=95, time=0),\n",
       "   Message('note_on', channel=9, note=46, velocity=60, time=1),\n",
       "   Message('note_on', channel=9, note=51, velocity=67, time=0),\n",
       "   Message('note_off', channel=9, note=51, velocity=64, time=1),\n",
       "   Message('note_off', channel=9, note=46, velocity=64, time=0),\n",
       "   Message('note_off', channel=2, note=91, velocity=64, time=1),\n",
       "   Message('note_off', channel=2, note=90, velocity=64, time=51),\n",
       "   Message('note_on', channel=2, note=89, velocity=82, time=2),\n",
       "   Message('note_on', channel=9, note=40, velocity=72, time=3),\n",
       "   Message('note_off', channel=9, note=40, velocity=64, time=1),\n",
       "   Message('note_on', channel=9, note=51, velocity=95, time=0),\n",
       "   Message('note_off', channel=9, note=51, velocity=64, time=1),\n",
       "   Message('note_off', channel=2, note=89, velocity=64, time=28),\n",
       "   Message('note_off', channel=1, note=43, velocity=64, time=5),\n",
       "   Message('note_on', channel=2, note=93, velocity=92, time=2),\n",
       "   Message('note_on', channel=1, note=46, velocity=93, time=0),\n",
       "   Message('note_on', channel=9, note=40, velocity=32, time=32),\n",
       "   Message('note_off', channel=9, note=40, velocity=64, time=1),\n",
       "   Message('note_off', channel=2, note=93, velocity=64, time=2),\n",
       "   Message('note_on', channel=2, note=89, velocity=87, time=21),\n",
       "   Message('note_on', channel=9, note=51, velocity=95, time=8),\n",
       "   Message('note_on', channel=9, note=40, velocity=28, time=0),\n",
       "   Message('note_off', channel=9, note=40, velocity=64, time=1),\n",
       "   Message('note_off', channel=9, note=51, velocity=64, time=0),\n",
       "   Message('note_off', channel=0, note=51, velocity=64, time=8),\n",
       "   Message('note_off', channel=0, note=57, velocity=64, time=0),\n",
       "   Message('note_off', channel=0, note=62, velocity=64, time=2),\n",
       "   Message('note_off', channel=1, note=46, velocity=64, time=19),\n",
       "   Message('note_on', channel=2, note=86, velocity=94, time=2),\n",
       "   Message('note_on', channel=9, note=38, velocity=21, time=0),\n",
       "   Message('note_on', channel=9, note=42, velocity=64, time=0),\n",
       "   Message('note_on', channel=1, note=45, velocity=88, time=0),\n",
       "   Message('note_off', channel=9, note=42, velocity=64, time=1),\n",
       "   Message('note_off', channel=9, note=38, velocity=64, time=0),\n",
       "   Message('note_off', channel=2, note=89, velocity=64, time=3),\n",
       "   Message('note_on', channel=9, note=40, velocity=50, time=28),\n",
       "   Message('note_off', channel=9, note=40, velocity=64, time=1),\n",
       "   Message('note_off', channel=2, note=86, velocity=64, time=1),\n",
       "   Message('note_on', channel=2, note=82, velocity=114, time=22),\n",
       "   Message('note_on', channel=9, note=51, velocity=115, time=8),\n",
       "   Message('note_on', channel=9, note=40, velocity=58, time=0),\n",
       "   Message('note_off', channel=9, note=40, velocity=64, time=1),\n",
       "   Message('note_off', channel=9, note=51, velocity=64, time=0),\n",
       "   Message('note_off', channel=1, note=45, velocity=64, time=29),\n",
       "   Message('note_on', channel=2, note=81, velocity=67, time=2),\n",
       "   Message('note_on', channel=9, note=51, velocity=101, time=0),\n",
       "   Message('note_on', channel=9, note=38, velocity=45, time=0),\n",
       "   Message('note_on', channel=1, note=43, velocity=95, time=0),\n",
       "   Message('note_off', channel=9, note=38, velocity=64, time=1),\n",
       "   Message('note_off', channel=9, note=51, velocity=64, time=0),\n",
       "   Message('note_off', channel=2, note=82, velocity=64, time=2),\n",
       "   Message('note_on', channel=9, note=40, velocity=46, time=29),\n",
       "   Message('note_off', channel=9, note=40, velocity=64, time=1),\n",
       "   Message('note_off', channel=2, note=81, velocity=64, time=18),\n",
       "   Message('note_on', channel=2, note=79, velocity=90, time=5),\n",
       "   Message('note_on', channel=0, note=62, velocity=98, time=4),\n",
       "   Message('note_on', channel=0, note=60, velocity=101, time=0),\n",
       "   Message('note_on', channel=0, note=55, velocity=89, time=0),\n",
       "   Message('note_on', channel=9, note=40, velocity=58, time=4),\n",
       "   Message('note_off', channel=9, note=40, velocity=64, time=1),\n",
       "   Message('note_off', channel=0, note=60, velocity=64, time=11),\n",
       "   Message('note_off', channel=0, note=55, velocity=64, time=1),\n",
       "   Message('note_off', channel=0, note=62, velocity=64, time=2),\n",
       "   Message('note_off', channel=2, note=79, velocity=64, time=10),\n",
       "   Message('note_off', channel=1, note=43, velocity=64, time=5),\n",
       "   Message('note_on', channel=2, note=82, velocity=108, time=2),\n",
       "   Message('note_on', channel=9, note=51, velocity=107, time=0),\n",
       "   Message('note_on', channel=9, note=38, velocity=58, time=0),\n",
       "   Message('note_on', channel=1, note=38, velocity=90, time=0),\n",
       "   Message('note_off', channel=9, note=38, velocity=64, time=1),\n",
       "   Message('note_off', channel=9, note=51, velocity=64, time=0),\n",
       "   Message('note_on', channel=9, note=40, velocity=66, time=31),\n",
       "   Message('note_off', channel=9, note=40, velocity=64, time=1),\n",
       "   Message('note_off', channel=2, note=82, velocity=64, time=9),\n",
       "   Message('note_on', channel=2, note=80, velocity=114, time=14),\n",
       "   Message('note_on', channel=9, note=36, velocity=105, time=4),\n",
       "   Message('note_on', channel=0, note=58, velocity=102, time=0),\n",
       "   Message('note_on', channel=0, note=56, velocity=98, time=0),\n",
       "   Message('note_on', channel=0, note=65, velocity=101, time=0),\n",
       "   Message('note_on', channel=0, note=61, velocity=103, time=0),\n",
       "   Message('note_off', channel=9, note=36, velocity=64, time=1),\n",
       "   Message('note_off', channel=1, note=38, velocity=64, time=1),\n",
       "   Message('note_on', channel=9, note=55, velocity=113, time=2),\n",
       "   Message('note_on', channel=1, note=39, velocity=93, time=0),\n",
       "   Message('note_off', channel=9, note=55, velocity=64, time=1),\n",
       "   Message('note_off', channel=1, note=39, velocity=64, time=125),\n",
       "   Message('note_on', channel=1, note=37, velocity=97, time=2),\n",
       "   Message('note_on', channel=9, note=44, velocity=60, time=1),\n",
       "   Message('note_on', channel=9, note=51, velocity=90, time=0),\n",
       "   Message('note_off', channel=9, note=51, velocity=64, time=1),\n",
       "   Message('note_off', channel=9, note=44, velocity=64, time=0),\n",
       "   Message('note_off', channel=2, note=80, velocity=64, time=52),\n",
       "   Message('note_on', channel=2, note=77, velocity=100, time=2),\n",
       "   Message('note_off', channel=2, note=77, velocity=64, time=34),\n",
       "   Message('note_off', channel=1, note=37, velocity=64, time=1),\n",
       "   Message('note_on', channel=2, note=73, velocity=106, time=5),\n",
       "   Message('note_on', channel=1, note=36, velocity=97, time=0),\n",
       "   Message('note_on', channel=9, note=52, velocity=81, time=1),\n",
       "   Message('note_off', channel=9, note=52, velocity=64, time=1),\n",
       "   Message('note_off', channel=2, note=73, velocity=64, time=68),\n",
       "   Message('note_off', channel=1, note=36, velocity=64, time=21),\n",
       "   Message('note_off', channel=0, note=58, velocity=64, time=5),\n",
       "   Message('note_on', channel=2, note=73, velocity=89, time=0),\n",
       "   Message('note_on', channel=1, note=37, velocity=97, time=0),\n",
       "   Message('note_off', channel=0, note=56, velocity=64, time=1),\n",
       "   Message('note_on', channel=9, note=44, velocity=60, time=0),\n",
       "   Message('note_on', channel=9, note=55, velocity=127, time=0),\n",
       "   Message('note_off', channel=9, note=55, velocity=64, time=1),\n",
       "   Message('note_off', channel=9, note=44, velocity=64, time=0),\n",
       "   Message('note_off', channel=0, note=61, velocity=64, time=1),\n",
       "   Message('note_off', channel=0, note=65, velocity=64, time=1),\n",
       "   Message('note_on', channel=9, note=40, velocity=66, time=55),\n",
       "   Message('note_off', channel=9, note=40, velocity=64, time=1),\n",
       "   Message('note_on', channel=9, note=51, velocity=61, time=0),\n",
       "   Message('note_off', channel=9, note=51, velocity=64, time=1),\n",
       "   Message('note_off', channel=1, note=37, velocity=64, time=30),\n",
       "   Message('note_on', channel=0, note=58, velocity=117, time=5),\n",
       "   Message('note_on', channel=0, note=65, velocity=113, time=0),\n",
       "   Message('note_on', channel=0, note=61, velocity=115, time=0),\n",
       "   Message('note_on', channel=0, note=54, velocity=123, time=0),\n",
       "   Message('note_on', channel=1, note=34, velocity=97, time=0),\n",
       "   Message('note_on', channel=9, note=51, velocity=90, time=1),\n",
       "   Message('note_off', channel=9, note=51, velocity=64, time=1),\n",
       "   Message('note_off', channel=0, note=58, velocity=64, time=5),\n",
       "   Message('note_off', channel=0, note=54, velocity=64, time=9),\n",
       "   Message('note_off', channel=0, note=61, velocity=64, time=8),\n",
       "   Message('note_off', channel=2, note=73, velocity=64, time=0),\n",
       "   Message('note_off', channel=0, note=65, velocity=64, time=11),\n",
       "   Message('note_off', channel=1, note=34, velocity=64, time=56),\n",
       "   Message('note_on', channel=1, note=36, velocity=95, time=5),\n",
       "   Message('note_on', channel=9, note=44, velocity=60, time=1),\n",
       "   Message('note_on', channel=9, note=51, velocity=67, time=0),\n",
       "   Message('note_off', channel=9, note=51, velocity=64, time=1),\n",
       "   Message('note_off', channel=9, note=44, velocity=64, time=0),\n",
       "   Message('note_on', channel=9, note=40, velocity=64, time=57),\n",
       "   Message('note_off', channel=9, note=40, velocity=64, time=1),\n",
       "   Message('note_off', channel=1, note=36, velocity=64, time=31),\n",
       "   Message('note_on', channel=0, note=68, velocity=127, time=5),\n",
       "   Message('note_on', channel=0, note=58, velocity=123, time=0),\n",
       "   Message('note_on', channel=0, note=63, velocity=119, time=0),\n",
       "   Message('note_on', channel=1, note=34, velocity=92, time=0),\n",
       "   Message('note_on', channel=9, note=51, velocity=75, time=1),\n",
       "   Message('note_off', channel=9, note=51, velocity=64, time=1),\n",
       "   Message('note_off', channel=0, note=63, velocity=64, time=2),\n",
       "   Message('note_off', channel=0, note=58, velocity=64, time=9),\n",
       "   Message('note_off', channel=0, note=68, velocity=64, time=16),\n",
       "   Message('note_off', channel=1, note=34, velocity=64, time=62),\n",
       "   Message('note_on', channel=1, note=37, velocity=97, time=5),\n",
       "   Message('note_on', channel=9, note=44, velocity=60, time=1),\n",
       "   Message('note_on', channel=9, note=51, velocity=62, time=0),\n",
       "   Message('note_off', channel=9, note=51, velocity=64, time=1),\n",
       "   Message('note_off', channel=9, note=44, velocity=64, time=0),\n",
       "   Message('note_on', channel=9, note=40, velocity=87, time=57),\n",
       "   Message('note_off', channel=9, note=40, velocity=64, time=1),\n",
       "   Message('note_on', channel=9, note=49, velocity=99, time=0),\n",
       "   Message('note_off', channel=9, note=49, velocity=64, time=1),\n",
       "   Message('note_on', channel=0, note=61, velocity=127, time=3),\n",
       "   Message('note_on', channel=0, note=65, velocity=127, time=0),\n",
       "   Message('note_on', channel=0, note=54, velocity=127, time=0),\n",
       "   Message('note_on', channel=0, note=58, velocity=127, time=0),\n",
       "   Message('note_off', channel=1, note=37, velocity=64, time=27),\n",
       "   Message('note_on', channel=1, note=39, velocity=95, time=5),\n",
       "   Message('note_on', channel=9, note=51, velocity=73, time=1),\n",
       "   Message('note_off', channel=9, note=51, velocity=64, time=1),\n",
       "   Message('note_on', channel=9, note=51, velocity=61, time=58),\n",
       "   Message('note_off', channel=9, note=51, velocity=64, time=1),\n",
       "   Message('note_on', channel=2, note=89, velocity=107, time=11),\n",
       "   Message('note_on', channel=2, note=77, velocity=95, time=3),\n",
       "   Message('note_off', channel=1, note=39, velocity=64, time=16),\n",
       "   Message('note_on', channel=1, note=44, velocity=97, time=5),\n",
       "   Message('note_on', channel=9, note=44, velocity=60, time=1),\n",
       "   Message('note_on', channel=9, note=51, velocity=80, time=0),\n",
       "   Message('note_off', channel=9, note=51, velocity=64, time=1),\n",
       "   Message('note_off', channel=9, note=44, velocity=64, time=0),\n",
       "   Message('note_off', channel=2, note=77, velocity=64, time=4),\n",
       "   Message('note_off', channel=2, note=89, velocity=64, time=11),\n",
       "   Message('note_on', channel=2, note=85, velocity=101, time=5),\n",
       "   Message('note_off', channel=2, note=85, velocity=64, time=23),\n",
       "   Message('note_on', channel=2, note=82, velocity=75, time=4),\n",
       "   Message('note_on', channel=9, note=51, velocity=81, time=11),\n",
       "   Message('note_off', channel=9, note=51, velocity=64, time=1),\n",
       "   Message('note_off', channel=2, note=82, velocity=64, time=1),\n",
       "   Message('note_on', channel=2, note=77, velocity=75, time=6),\n",
       "   Message('note_off', channel=2, note=77, velocity=64, time=22),\n",
       "   Message('note_off', channel=1, note=44, velocity=64, time=1),\n",
       "   Message('note_on', channel=1, note=46, velocity=97, time=5),\n",
       "   Message('note_on', channel=2, note=87, velocity=119, time=5),\n",
       "   Message('note_off', channel=0, note=58, velocity=64, time=15),\n",
       "   Message('note_off', channel=0, note=54, velocity=64, time=6),\n",
       "   Message('note_off', channel=0, note=61, velocity=64, time=5),\n",
       "   Message('note_off', channel=0, note=65, velocity=64, time=1),\n",
       "   Message('note_off', channel=2, note=87, velocity=64, time=5),\n",
       "   Message('note_on', channel=2, note=86, velocity=90, time=18),\n",
       "   Message('note_on', channel=9, note=40, velocity=71, time=4),\n",
       "   Message('note_off', channel=9, note=40, velocity=64, time=1),\n",
       "   Message('note_on', channel=9, note=51, velocity=50, time=0),\n",
       "   Message('note_off', channel=9, note=51, velocity=64, time=1),\n",
       "   Message('note_off', channel=2, note=86, velocity=64, time=29),\n",
       "   Message('note_off', channel=1, note=46, velocity=64, time=1),\n",
       "   Message('note_on', channel=1, note=48, velocity=97, time=5),\n",
       "   Message('note_on', channel=9, note=44, velocity=60, time=1),\n",
       "   Message('note_on', channel=9, note=51, velocity=80, time=0),\n",
       "   Message('note_off', channel=9, note=51, velocity=64, time=1),\n",
       "   Message('note_off', channel=9, note=44, velocity=64, time=0),\n",
       "   Message('note_on', channel=2, note=85, velocity=107, time=2),\n",
       "   Message('note_off', channel=2, note=85, velocity=64, time=44),\n",
       "   Message('note_on', channel=2, note=89, velocity=107, time=7),\n",
       "   Message('note_on', channel=9, note=51, velocity=62, time=5),\n",
       "   Message('note_off', channel=9, note=51, velocity=64, time=1),\n",
       "   Message('note_off', channel=1, note=48, velocity=64, time=30),\n",
       "   Message('note_off', channel=2, note=89, velocity=64, time=0),\n",
       "   Message('note_on', channel=1, note=49, velocity=97, time=5),\n",
       "   Message('note_on', channel=9, note=51, velocity=81, time=1),\n",
       "   Message('note_off', channel=9, note=51, velocity=64, time=1),\n",
       "   Message('note_on', channel=2, note=84, velocity=87, time=4),\n",
       "   Message('note_off', channel=2, note=84, velocity=64, time=45),\n",
       "   Message('note_on', channel=9, note=40, velocity=63, time=8),\n",
       "   Message('note_off', channel=9, note=40, velocity=64, time=1),\n",
       "   Message('note_on', channel=0, note=58, velocity=91, time=0),\n",
       "   Message('note_on', channel=0, note=63, velocity=102, time=0),\n",
       "   Message('note_on', channel=2, note=83, velocity=89, time=1),\n",
       "   Message('note_on', channel=0, note=53, velocity=82, time=0),\n",
       "   Message('note_off', channel=0, note=53, velocity=64, time=14),\n",
       "   Message('note_off', channel=0, note=63, velocity=64, time=2),\n",
       "   Message('note_off', channel=0, note=58, velocity=64, time=1),\n",
       "   Message('note_off', channel=1, note=49, velocity=64, time=16),\n",
       "   Message('note_on', channel=1, note=51, velocity=97, time=2),\n",
       "   Message('note_on', channel=9, note=44, velocity=60, time=1),\n",
       "   Message('note_on', channel=9, note=51, velocity=80, time=0),\n",
       "   Message('note_off', channel=9, note=51, velocity=64, time=1),\n",
       "   Message('note_off', channel=9, note=44, velocity=64, time=0),\n",
       "   Message('note_off', channel=2, note=83, velocity=64, time=8),\n",
       "   Message('note_on', channel=2, note=82, velocity=105, time=3),\n",
       "   Message('note_off', channel=2, note=82, velocity=64, time=39),\n",
       "   Message('note_on', channel=2, note=87, velocity=123, time=8),\n",
       "   Message('note_on', channel=9, note=51, velocity=50, time=0),\n",
       "   Message('note_off', channel=9, note=51, velocity=64, time=1),\n",
       "   Message('note_on', channel=0, note=55, velocity=86, time=0),\n",
       "   Message('note_on', channel=0, note=60, velocity=89, time=0),\n",
       "   Message('note_on', channel=0, note=65, velocity=89, time=0),\n",
       "   Message('note_off', channel=1, note=51, velocity=64, time=1),\n",
       "   Message('note_on', channel=1, note=48, velocity=97, time=2),\n",
       "   Message('note_off', channel=0, note=65, velocity=64, time=15),\n",
       "   Message('note_off', channel=0, note=60, velocity=64, time=1),\n",
       "   Message('note_off', channel=0, note=55, velocity=64, time=3),\n",
       "   Message('note_on', channel=9, note=40, velocity=89, time=13),\n",
       "   Message('note_off', channel=9, note=40, velocity=64, time=1),\n",
       "   Message('note_on', channel=9, note=51, velocity=57, time=0),\n",
       "   Message('note_off', channel=9, note=51, velocity=64, time=1),\n",
       "   Message('note_off', channel=2, note=87, velocity=64, time=4),\n",
       "   Message('note_on', channel=2, note=82, velocity=93, time=4),\n",
       "   Message('note_off', channel=2, note=82, velocity=64, time=45),\n",
       "   Message('note_on', channel=0, note=56, velocity=89, time=5),\n",
       "   Message('note_on', channel=0, note=66, velocity=94, time=0),\n",
       "   Message('note_on', channel=0, note=61, velocity=91, time=0),\n",
       "   Message('note_on', channel=2, note=77, velocity=92, time=3),\n",
       "   Message('note_off', channel=1, note=48, velocity=64, time=30),\n",
       "   Message('note_on', channel=9, note=55, velocity=110, time=3),\n",
       "   Message('note_on', channel=1, note=49, velocity=97, time=0),\n",
       "   Message('note_off', channel=9, note=55, velocity=64, time=1),\n",
       "   Message('note_on', channel=9, note=44, velocity=60, time=0),\n",
       "   Message('note_on', channel=9, note=51, velocity=80, time=0),\n",
       "   Message('note_off', channel=9, note=51, velocity=64, time=1),\n",
       "   Message('note_off', channel=9, note=44, velocity=64, time=0),\n",
       "   Message('note_on', channel=2, note=75, velocity=115, time=8),\n",
       "   Message('note_off', channel=2, note=77, velocity=64, time=1),\n",
       "   Message('note_off', channel=2, note=75, velocity=64, time=43),\n",
       "   Message('note_on', channel=2, note=73, velocity=103, time=4),\n",
       "   Message('note_on', channel=9, note=40, velocity=54, time=1),\n",
       "   Message('note_off', channel=9, note=40, velocity=64, time=1),\n",
       "   Message('note_on', channel=9, note=51, velocity=45, time=0),\n",
       "   Message('note_off', channel=9, note=51, velocity=64, time=1),\n",
       "   Message('note_off', channel=0, note=61, velocity=64, time=30),\n",
       "   Message('note_off', channel=1, note=49, velocity=64, time=3),\n",
       "   Message('note_off', channel=0, note=66, velocity=64, time=0),\n",
       "   Message('note_off', channel=0, note=56, velocity=64, time=0),\n",
       "   Message('note_on', channel=1, note=51, velocity=97, time=2),\n",
       "   Message('note_on', channel=9, note=51, velocity=75, time=1),\n",
       "   Message('note_on', channel=0, note=63, velocity=91, time=0),\n",
       "   Message('note_on', channel=0, note=58, velocity=89, time=0),\n",
       "   Message('note_on', channel=0, note=68, velocity=103, time=0),\n",
       "   Message('note_off', channel=9, note=51, velocity=64, time=1),\n",
       "   Message('note_on', channel=0, note=61, velocity=89, time=0),\n",
       "   Message('note_on', channel=2, note=74, velocity=92, time=5),\n",
       "   Message('note_off', channel=2, note=73, velocity=64, time=1),\n",
       "   Message('note_off', channel=1, note=51, velocity=64, time=22),\n",
       "   Message('note_on', channel=1, note=46, velocity=97, time=2),\n",
       "   Message('note_off', channel=2, note=74, velocity=64, time=20),\n",
       "   Message('note_on', channel=2, note=83, velocity=105, time=8),\n",
       "   Message('note_off', channel=1, note=46, velocity=64, time=1),\n",
       "   Message('note_on', channel=1, note=42, velocity=97, time=3),\n",
       "   Message('note_off', channel=1, note=42, velocity=64, time=29),\n",
       "   Message('note_on', channel=1, note=39, velocity=97, time=3),\n",
       "   Message('note_on', channel=9, note=44, velocity=60, time=1),\n",
       "   Message('note_on', channel=9, note=51, velocity=64, time=0),\n",
       "   Message('note_off', channel=9, note=51, velocity=64, time=1),\n",
       "   Message('note_off', channel=9, note=44, velocity=64, time=0),\n",
       "   Message('note_on', channel=2, note=78, velocity=87, time=2),\n",
       "   Message('note_off', channel=2, note=83, velocity=64, time=1),\n",
       "   Message('note_off', channel=2, note=78, velocity=64, time=43),\n",
       "   Message('note_on', channel=2, note=83, velocity=111, time=9),\n",
       "   Message('note_off', channel=2, note=83, velocity=64, time=37),\n",
       "   Message('note_on', channel=9, note=51, velocity=67, time=3),\n",
       "   Message('note_off', channel=9, note=51, velocity=64, time=1),\n",
       "   Message('note_on', channel=2, note=78, velocity=117, time=6),\n",
       "   Message('note_on', channel=9, note=45, velocity=90, time=24),\n",
       "   Message('note_off', channel=9, note=45, velocity=64, time=2),\n",
       "   Message('note_off', channel=2, note=78, velocity=64, time=14),\n",
       "   Message('note_on', channel=2, note=76, velocity=89, time=6),\n",
       "   Message('note_on', channel=9, note=51, velocity=81, time=6),\n",
       "   Message('note_off', channel=9, note=51, velocity=64, time=1),\n",
       "   Message('note_off', channel=1, note=39, velocity=64, time=33),\n",
       "   Message('note_off', channel=2, note=76, velocity=64, time=1),\n",
       "   Message('note_on', channel=1, note=37, velocity=97, time=1),\n",
       "   Message('note_on', channel=9, note=44, velocity=58, time=1),\n",
       "   Message('note_off', channel=9, note=44, velocity=64, time=1),\n",
       "   Message('note_on', channel=2, note=71, velocity=83, time=5),\n",
       "   Message('note_off', channel=0, note=63, velocity=64, time=38),\n",
       "   Message('note_off', channel=0, note=61, velocity=64, time=7),\n",
       "   Message('note_off', channel=0, note=68, velocity=64, time=1),\n",
       "   Message('note_off', channel=0, note=58, velocity=64, time=1),\n",
       "   Message('note_on', channel=2, note=70, velocity=127, time=1),\n",
       "   Message('note_off', channel=2, note=71, velocity=64, time=3),\n",
       "   Message('note_on', channel=9, note=51, velocity=86, time=2),\n",
       "   Message('note_off', channel=9, note=51, velocity=64, time=1),\n",
       "   Message('note_off', channel=1, note=37, velocity=64, time=33),\n",
       "   Message('note_on', channel=1, note=39, velocity=86, time=2),\n",
       "   Message('note_on', channel=9, note=51, velocity=80, time=1),\n",
       "   Message('note_off', channel=9, note=51, velocity=64, time=1),\n",
       "   Message('note_off', channel=2, note=70, velocity=64, time=1),\n",
       "   Message('note_on', channel=0, note=69, velocity=103, time=3),\n",
       "   Message('note_off', channel=0, note=69, velocity=64, time=41),\n",
       "   Message('note_on', channel=0, note=68, velocity=113, time=4),\n",
       "   Message('note_on', channel=9, note=40, velocity=74, time=8),\n",
       "   Message('note_off', channel=9, note=40, velocity=64, time=1),\n",
       "   Message('note_on', channel=0, note=61, velocity=87, time=0),\n",
       "   Message('note_on', channel=0, note=66, velocity=87, time=0),\n",
       "   Message('note_on', channel=0, note=56, velocity=78, time=0),\n",
       "   Message('note_off', channel=0, note=61, velocity=64, time=15),\n",
       "   Message('note_off', channel=0, note=56, velocity=64, time=2),\n",
       "   Message('note_off', channel=0, note=66, velocity=64, time=1),\n",
       "   Message('note_off', channel=1, note=39, velocity=64, time=12),\n",
       "   Message('note_on', channel=1, note=41, velocity=86, time=6),\n",
       "   Message('note_on', channel=9, note=44, velocity=60, time=1),\n",
       "   Message('note_on', channel=9, note=51, velocity=97, time=0),\n",
       "   Message('note_off', channel=9, note=51, velocity=64, time=1),\n",
       "   Message('note_off', channel=9, note=44, velocity=64, time=0),\n",
       "   Message('note_on', channel=0, note=67, velocity=113, time=0),\n",
       "   Message('note_off', channel=0, note=68, velocity=64, time=1),\n",
       "   Message('note_off', channel=0, note=67, velocity=64, time=44),\n",
       "   Message('note_on', channel=0, note=66, velocity=119, time=7),\n",
       "   Message('note_on', channel=9, note=51, velocity=93, time=6),\n",
       "   Message('note_off', channel=9, note=51, velocity=64, time=1),\n",
       "   Message('note_off', channel=1, note=41, velocity=64, time=30),\n",
       "   Message('note_on', channel=1, note=42, velocity=97, time=5),\n",
       "   Message('note_off', channel=0, note=66, velocity=64, time=2),\n",
       "   Message('note_on', channel=0, note=65, velocity=117, time=5),\n",
       "   Message('note_on', channel=9, note=51, velocity=81, time=53),\n",
       "   Message('note_off', channel=9, note=51, velocity=64, time=1),\n",
       "   Message('note_off', channel=0, note=65, velocity=64, time=14),\n",
       "   Message('note_off', channel=1, note=42, velocity=64, time=15),\n",
       "   Message('note_on', channel=2, note=72, velocity=101, time=0),\n",
       "   Message('note_on', channel=1, note=37, velocity=95, time=6),\n",
       "   Message('note_on', channel=9, note=44, velocity=58, time=1),\n",
       "   Message('note_on', channel=9, note=51, velocity=90, time=0),\n",
       "   Message('note_on', channel=0, note=66, velocity=80, time=0),\n",
       "   Message('note_on', channel=0, note=61, velocity=79, time=0),\n",
       "   Message('note_on', channel=0, note=56, velocity=80, time=0),\n",
       "   Message('note_off', channel=9, note=51, velocity=64, time=1),\n",
       "   Message('note_off', channel=9, note=44, velocity=64, time=0),\n",
       "   Message('note_off', channel=2, note=72, velocity=64, time=44),\n",
       "   Message('note_off', channel=0, note=56, velocity=64, time=3),\n",
       "   Message('note_off', channel=0, note=66, velocity=64, time=4),\n",
       "   Message('note_off', channel=0, note=61, velocity=64, time=1),\n",
       "   Message('note_on', channel=0, note=68, velocity=127, time=0),\n",
       "   Message('note_on', channel=9, note=40, velocity=37, time=5),\n",
       "   Message('note_off', channel=9, note=40, velocity=64, time=1),\n",
       "   Message('note_on', channel=9, note=51, velocity=70, time=0),\n",
       "   Message('note_on', channel=0, note=66, velocity=78, time=0),\n",
       "   Message('note_on', channel=0, note=61, velocity=84, time=0),\n",
       "   Message('note_off', channel=9, note=51, velocity=64, time=1),\n",
       "   Message('note_on', channel=0, note=56, velocity=82, time=0),\n",
       "   Message('note_off', channel=0, note=56, velocity=64, time=17),\n",
       "   Message('note_off', channel=0, note=61, velocity=64, time=0),\n",
       "   Message('note_off', channel=0, note=66, velocity=64, time=1),\n",
       "   Message('note_off', channel=1, note=37, velocity=64, time=11),\n",
       "   Message('note_on', channel=1, note=39, velocity=95, time=6),\n",
       "   Message('note_on', channel=9, note=51, velocity=24, time=1),\n",
       "   Message('note_off', channel=9, note=51, velocity=64, time=1),\n",
       "   Message('note_off', channel=0, note=68, velocity=64, time=10),\n",
       "   Message('note_on', channel=2, note=75, velocity=126, time=45),\n",
       "   Message('note_on', channel=9, note=40, velocity=62, time=2),\n",
       "   Message('note_off', channel=9, note=40, velocity=64, time=1),\n",
       "   Message('note_off', channel=1, note=39, velocity=64, time=31),\n",
       "   Message('note_on', channel=1, note=41, velocity=97, time=5),\n",
       "   Message('note_on', channel=9, note=44, velocity=60, time=1),\n",
       "   Message('note_on', channel=9, note=51, velocity=86, time=0),\n",
       "   Message('note_off', channel=9, note=51, velocity=64, time=1),\n",
       "   Message('note_off', channel=9, note=44, velocity=64, time=0),\n",
       "   Message('note_off', channel=2, note=75, velocity=64, time=3),\n",
       "   Message('note_on', channel=2, note=72, velocity=80, time=10),\n",
       "   Message('note_off', channel=2, note=72, velocity=64, time=35),\n",
       "   Message('note_on', channel=2, note=73, velocity=89, time=8),\n",
       "   Message('note_on', channel=9, note=51, velocity=58, time=2),\n",
       "   Message('note_off', channel=9, note=51, velocity=64, time=1),\n",
       "   Message('note_off', channel=1, note=41, velocity=64, time=30),\n",
       "   Message('note_off', channel=2, note=73, velocity=64, time=3),\n",
       "   Message('note_on', channel=1, note=42, velocity=97, time=2),\n",
       "   Message('note_on', channel=9, note=51, velocity=85, time=1),\n",
       "   Message('note_off', channel=9, note=51, velocity=64, time=1),\n",
       "   Message('note_on', channel=2, note=77, velocity=93, time=8),\n",
       "   Message('note_off', channel=2, note=77, velocity=64, time=35),\n",
       "   Message('note_on', channel=2, note=80, velocity=101, time=11),\n",
       "   Message('note_on', channel=9, note=40, velocity=66, time=3),\n",
       "   Message('note_off', channel=9, note=40, velocity=64, time=1),\n",
       "   Message('note_on', channel=0, note=55, velocity=82, time=0),\n",
       "   Message('note_on', channel=0, note=65, velocity=89, time=0),\n",
       "   Message('note_on', channel=0, note=60, velocity=88, time=0),\n",
       "   Message('note_off', channel=0, note=60, velocity=64, time=14),\n",
       "   Message('note_off', channel=0, note=65, velocity=64, time=4),\n",
       "   Message('note_off', channel=0, note=55, velocity=64, time=1),\n",
       "   Message('note_off', channel=2, note=80, velocity=64, time=9),\n",
       "   Message('note_off', channel=1, note=42, velocity=64, time=3),\n",
       "   Message('note_on', channel=1, note=37, velocity=97, time=5),\n",
       "   Message('note_on', channel=2, note=84, velocity=89, time=1),\n",
       "   Message('note_on', channel=9, note=44, velocity=60, time=0),\n",
       "   Message('note_on', channel=9, note=51, velocity=67, time=0),\n",
       "   Message('note_off', channel=9, note=51, velocity=64, time=1),\n",
       "   Message('note_off', channel=9, note=44, velocity=64, time=0),\n",
       "   Message('note_off', channel=2, note=84, velocity=64, time=42),\n",
       "   Message('note_on', channel=2, note=87, velocity=123, time=11),\n",
       "   Message('note_on', channel=9, note=51, velocity=50, time=5),\n",
       "   Message('note_off', channel=9, note=51, velocity=64, time=1),\n",
       "   Message('note_off', channel=2, note=87, velocity=64, time=26),\n",
       "   Message('note_off', channel=1, note=37, velocity=64, time=4),\n",
       "   Message('note_on', channel=2, note=87, velocity=99, time=5),\n",
       "   Message('note_on', channel=1, note=39, velocity=97, time=0),\n",
       "   Message('note_on', channel=9, note=51, velocity=73, time=1),\n",
       "   Message('note_off', channel=9, note=51, velocity=64, time=1),\n",
       "   Message('note_on', channel=9, note=48, velocity=126, time=57),\n",
       "   Message('note_off', channel=9, note=48, velocity=64, time=1),\n",
       "   Message('note_on', channel=2, note=84, velocity=110, time=0),\n",
       "   Message('note_off', channel=2, note=84, velocity=64, time=22),\n",
       "   Message('note_on', channel=9, note=45, velocity=100, time=2),\n",
       "   Message('note_off', channel=9, note=45, velocity=64, time=1),\n",
       "   Message('note_off', channel=1, note=39, velocity=64, time=6),\n",
       "   Message('note_on', channel=1, note=41, velocity=95, time=5),\n",
       "   Message('note_on', channel=9, note=44, velocity=60, time=1),\n",
       "   Message('note_on', channel=9, note=41, velocity=93, time=0),\n",
       "   Message('note_off', channel=9, note=41, velocity=64, time=1),\n",
       "   Message('note_off', channel=9, note=44, velocity=64, time=0),\n",
       "   Message('note_off', channel=2, note=87, velocity=64, time=10),\n",
       "   Message('note_on', channel=2, note=85, velocity=105, time=3),\n",
       "   Message('note_off', channel=2, note=85, velocity=64, time=44),\n",
       "   Message('note_on', channel=2, note=80, velocity=111, time=4),\n",
       "   Message('note_off', channel=1, note=41, velocity=64, time=28),\n",
       "   Message('note_on', channel=9, note=48, velocity=64, time=5),\n",
       "   Message('note_on', channel=1, note=42, velocity=97, time=0),\n",
       "   Message('note_off', channel=9, note=48, velocity=64, time=1),\n",
       "   Message('note_on', channel=9, note=51, velocity=95, time=0),\n",
       "   Message('note_off', channel=9, note=51, velocity=64, time=1),\n",
       "   Message('note_on', channel=2, note=77, velocity=93, time=7),\n",
       "   Message('note_off', channel=2, note=80, velocity=64, time=1),\n",
       "   Message('note_on', channel=9, note=45, velocity=100, time=6),\n",
       "   Message('note_off', channel=9, note=45, velocity=64, time=1),\n",
       "   Message('note_on', channel=9, note=40, velocity=86, time=42),\n",
       "   Message('note_off', channel=9, note=40, velocity=64, time=1),\n",
       "   Message('note_off', channel=2, note=77, velocity=64, time=0),\n",
       "   Message('note_on', channel=2, note=75, velocity=119, time=0),\n",
       "   Message('note_on', channel=0, note=63, velocity=103, time=0),\n",
       "   Message('note_on', channel=0, note=53, velocity=90, time=0),\n",
       "   Message('note_on', channel=0, note=58, velocity=96, time=0),\n",
       "   Message('note_off', channel=0, note=58, velocity=64, time=13),\n",
       "   Message('note_off', channel=0, note=63, velocity=64, time=1),\n",
       "   Message('note_off', channel=0, note=53, velocity=64, time=1),\n",
       "   Message('note_off', channel=1, note=42, velocity=64, time=16),\n",
       "   Message('note_on', channel=2, note=74, velocity=81, time=5),\n",
       "   Message('note_on', channel=1, note=37, velocity=97, time=0),\n",
       "   Message('note_on', channel=9, note=44, velocity=60, time=1),\n",
       "   Message('note_on', channel=9, note=51, velocity=97, time=0),\n",
       "   Message('note_off', channel=9, note=51, velocity=64, time=1),\n",
       "   Message('note_off', channel=9, note=44, velocity=64, time=0),\n",
       "   Message('note_off', channel=2, note=75, velocity=64, time=7),\n",
       "   Message('note_off', channel=2, note=74, velocity=64, time=30),\n",
       "   Message('note_on', channel=2, note=77, velocity=107, time=21),\n",
       "   Message('note_on', channel=9, note=35, velocity=110, time=0),\n",
       "   Message('note_on', channel=9, note=49, velocity=110, time=0),\n",
       "   Message('note_on', channel=0, note=48, velocity=101, time=0),\n",
       "   Message('note_on', channel=0, note=53, velocity=102, time=0),\n",
       "   Message('note_on', channel=0, note=58, velocity=102, time=0),\n",
       "   Message('note_off', channel=9, note=49, velocity=64, time=1),\n",
       "   Message('note_off', channel=9, note=35, velocity=64, time=0),\n",
       "   Message('note_off', channel=1, note=37, velocity=64, time=30),\n",
       "   Message('note_on', channel=1, note=36, velocity=90, time=5),\n",
       "   Message('note_off', channel=1, note=36, velocity=64, time=91),\n",
       "   Message('note_off', channel=2, note=77, velocity=64, time=5),\n",
       "   Message('note_on', channel=1, note=38, velocity=78, time=0),\n",
       "   Message('note_on', channel=9, note=44, velocity=60, time=1),\n",
       "   Message('note_on', channel=9, note=51, velocity=75, time=0),\n",
       "   Message('note_off', channel=9, note=51, velocity=64, time=1),\n",
       "   Message('note_off', channel=9, note=44, velocity=64, time=0),\n",
       "   Message('note_on', channel=2, note=72, velocity=83, time=2),\n",
       "   Message('note_off', channel=2, note=72, velocity=64, time=36),\n",
       "   Message('note_on', channel=2, note=77, velocity=107, time=16),\n",
       "   Message('note_off', channel=1, note=38, velocity=64, time=35),\n",
       "   Message('note_on', channel=1, note=39, velocity=92, time=5),\n",
       "   Message('note_on', channel=9, note=51, velocity=86, time=1),\n",
       "   Message('note_off', channel=9, note=51, velocity=64, time=1),\n",
       "   Message('note_off', channel=2, note=77, velocity=64, time=7),\n",
       "   Message('note_on', channel=2, note=74, velocity=83, time=0),\n",
       "   Message('note_off', channel=2, note=74, velocity=64, time=43),\n",
       "   Message('note_on', channel=2, note=70, velocity=127, time=7),\n",
       "   Message('note_on', channel=9, note=40, velocity=72, time=0),\n",
       "   Message('note_off', channel=9, note=40, velocity=64, time=1),\n",
       "   Message('note_off', channel=0, note=58, velocity=64, time=22),\n",
       "   Message('note_off', channel=0, note=53, velocity=64, time=0),\n",
       "   Message('note_off', channel=0, note=48, velocity=64, time=0),\n",
       "   Message('note_off', channel=1, note=39, velocity=64, time=9),\n",
       "   Message('note_off', channel=2, note=70, velocity=64, time=1),\n",
       "   Message('note_on', channel=1, note=41, velocity=86, time=4),\n",
       "   Message('note_on', channel=9, note=44, velocity=60, time=1),\n",
       "   Message('note_on', channel=9, note=51, velocity=86, time=0),\n",
       "   Message('note_off', channel=9, note=51, velocity=64, time=1),\n",
       "   Message('note_off', channel=9, note=44, velocity=64, time=0),\n",
       "   Message('note_on', channel=0, note=67, velocity=113, time=2),\n",
       "   Message('note_on', channel=0, note=65, velocity=106, time=47),\n",
       "   Message('note_off', channel=0, note=67, velocity=64, time=1),\n",
       "   Message('note_on', channel=9, note=40, velocity=89, time=7),\n",
       "   Message('note_off', channel=9, note=40, velocity=64, time=1),\n",
       "   Message('note_on', channel=9, note=51, velocity=80, time=0),\n",
       "   Message('note_on', channel=0, note=50, velocity=68, time=0),\n",
       "   Message('note_on', channel=0, note=60, velocity=89, time=0),\n",
       "   Message('note_off', channel=9, note=51, velocity=64, time=1),\n",
       "   Message('note_on', channel=0, note=55, velocity=90, time=0),\n",
       "   Message('note_off', channel=0, note=55, velocity=64, time=16),\n",
       "   Message('note_off', channel=0, note=60, velocity=64, time=0),\n",
       "   Message('note_off', channel=0, note=50, velocity=64, time=0),\n",
       "   Message('note_off', channel=0, note=65, velocity=64, time=12),\n",
       "   Message('note_off', channel=1, note=41, velocity=64, time=2),\n",
       "   Message('note_on', channel=1, note=43, velocity=75, time=5),\n",
       "   Message('note_on', channel=9, note=51, velocity=73, time=1),\n",
       "   Message('note_on', channel=0, note=67, velocity=106, time=0),\n",
       "   Message('note_off', channel=9, note=51, velocity=64, time=1),\n",
       "   Message('note_off', channel=0, note=67, velocity=64, time=40),\n",
       "   Message('note_on', channel=2, note=70, velocity=127, time=11),\n",
       "   Message('note_off', channel=1, note=43, velocity=64, time=38),\n",
       "   Message('note_off', channel=2, note=70, velocity=64, time=1),\n",
       "   Message('note_on', channel=1, note=45, velocity=95, time=4),\n",
       "   Message('note_on', channel=9, note=44, velocity=60, time=1),\n",
       "   Message('note_on', channel=9, note=51, velocity=67, time=0),\n",
       "   Message('note_off', channel=9, note=51, velocity=64, time=1),\n",
       "   Message('note_off', channel=9, note=44, velocity=64, time=0),\n",
       "   Message('note_on', channel=2, note=72, velocity=92, time=4),\n",
       "   Message('note_off', channel=2, note=72, velocity=64, time=38),\n",
       "   Message('note_on', channel=2, note=74, velocity=89, time=9),\n",
       "   Message('note_on', channel=9, note=51, velocity=73, time=7),\n",
       "   Message('note_off', channel=9, note=51, velocity=64, time=1),\n",
       "   Message('note_off', channel=1, note=45, velocity=64, time=30),\n",
       "   Message('note_off', channel=2, note=74, velocity=64, time=4),\n",
       "   Message('note_on', channel=1, note=46, velocity=95, time=1),\n",
       "   Message('note_on', channel=9, note=51, velocity=80, time=1),\n",
       "   Message('note_on', channel=0, note=53, velocity=90, time=0),\n",
       "   Message('note_on', channel=0, note=63, velocity=96, time=0),\n",
       "   Message('note_on', channel=0, note=58, velocity=74, time=0),\n",
       "   Message('note_off', channel=9, note=51, velocity=64, time=1),\n",
       "   Message('note_on', channel=2, note=75, velocity=113, time=6),\n",
       "   Message('note_off', channel=2, note=75, velocity=64, time=35),\n",
       "   Message('note_off', channel=0, note=58, velocity=64, time=2),\n",
       "   Message('note_off', channel=0, note=53, velocity=64, time=1),\n",
       "   Message('note_off', channel=0, note=63, velocity=64, time=2),\n",
       "   Message('note_on', channel=2, note=77, velocity=92, time=8),\n",
       "   Message('note_on', channel=0, note=55, velocity=85, time=4),\n",
       "   Message('note_on', channel=0, note=60, velocity=93, time=0),\n",
       "   Message('note_on', channel=0, note=65, velocity=102, time=1),\n",
       "   Message('note_off', channel=0, note=60, velocity=64, time=20),\n",
       "   Message('note_off', channel=0, note=55, velocity=64, time=4),\n",
       "   Message('note_off', channel=0, note=65, velocity=64, time=1),\n",
       "   Message('note_off', channel=1, note=46, velocity=64, time=5),\n",
       "   Message('note_off', channel=2, note=77, velocity=64, time=3),\n",
       "   Message('note_on', channel=1, note=47, velocity=95, time=2),\n",
       "   Message('note_on', channel=9, note=44, velocity=60, time=1),\n",
       "   Message('note_on', channel=9, note=51, velocity=81, time=0),\n",
       "   Message('note_off', channel=9, note=51, velocity=64, time=1),\n",
       "   Message('note_off', channel=9, note=44, velocity=64, time=0),\n",
       "   Message('note_on', channel=2, note=79, velocity=97, time=7),\n",
       "   Message('note_off', channel=2, note=79, velocity=64, time=39),\n",
       "   Message('note_on', channel=2, note=82, velocity=115, time=8),\n",
       "   Message('note_on', channel=9, note=40, velocity=60, time=3),\n",
       "   Message('note_off', channel=9, note=40, velocity=64, time=1),\n",
       "   Message('note_on', channel=9, note=51, velocity=61, time=0),\n",
       "   Message('note_off', channel=9, note=51, velocity=64, time=1),\n",
       "   Message('note_off', channel=1, note=47, velocity=64, time=30),\n",
       "   Message('note_off', channel=2, note=82, velocity=64, time=0),\n",
       "   Message('note_on', channel=1, note=48, velocity=81, time=5),\n",
       "   Message('note_on', channel=9, note=51, velocity=78, time=1),\n",
       "   Message('note_off', channel=9, note=51, velocity=64, time=1),\n",
       "   Message('note_on', channel=2, note=84, velocity=85, time=7),\n",
       "   Message('note_off', channel=2, note=84, velocity=64, time=37),\n",
       "   Message('note_on', channel=2, note=86, velocity=85, time=11),\n",
       "   Message('note_off', channel=1, note=48, velocity=64, time=33),\n",
       "   Message('note_off', channel=2, note=86, velocity=64, time=4),\n",
       "   Message('note_on', channel=1, note=46, velocity=97, time=2),\n",
       "   Message('note_on', channel=9, note=44, velocity=60, time=1),\n",
       "   Message('note_on', channel=9, note=51, velocity=85, time=0),\n",
       "   Message('note_off', channel=9, note=51, velocity=64, time=1),\n",
       "   Message('note_off', channel=9, note=44, velocity=64, time=0),\n",
       "   Message('note_on', channel=2, note=87, velocity=113, time=5),\n",
       "   Message('note_off', channel=2, note=87, velocity=64, time=31),\n",
       "   Message('note_on', channel=2, note=89, velocity=82, time=15),\n",
       "   Message('note_on', channel=9, note=51, velocity=61, time=7),\n",
       "   Message('note_on', channel=0, note=58, velocity=78, time=0),\n",
       "   Message('note_on', channel=0, note=63, velocity=91, time=0),\n",
       "   Message('note_off', channel=9, note=51, velocity=64, time=1),\n",
       "   Message('note_on', channel=0, note=53, velocity=71, time=0),\n",
       "   Message('note_off', channel=0, note=53, velocity=64, time=13),\n",
       "   Message('note_off', channel=0, note=63, velocity=64, time=2),\n",
       "   Message('note_off', channel=0, note=58, velocity=64, time=0),\n",
       "   Message('note_off', channel=1, note=46, velocity=64, time=15),\n",
       "   Message('note_on', channel=1, note=45, velocity=95, time=5),\n",
       "   Message('note_on', channel=9, note=51, velocity=86, time=1),\n",
       "   Message('note_off', channel=9, note=51, velocity=64, time=1),\n",
       "   Message('note_off', channel=2, note=89, velocity=64, time=0),\n",
       "   Message('note_on', channel=2, note=91, velocity=85, time=6),\n",
       "   Message('note_off', channel=2, note=91, velocity=64, time=38),\n",
       "   Message('note_on', channel=2, note=94, velocity=117, time=12),\n",
       "   Message('note_off', channel=2, note=94, velocity=64, time=32),\n",
       "   Message('note_off', channel=1, note=45, velocity=64, time=1),\n",
       "   Message('note_on', channel=1, note=43, velocity=95, time=5),\n",
       "   Message('note_on', channel=9, note=44, velocity=60, time=1),\n",
       "   Message('note_on', channel=9, note=51, velocity=80, time=0),\n",
       "   Message('note_off', channel=9, note=51, velocity=64, time=1),\n",
       "   Message('note_off', channel=9, note=44, velocity=64, time=0),\n",
       "   Message('note_on', channel=2, note=98, velocity=90, time=11),\n",
       "   Message('note_off', channel=2, note=98, velocity=64, time=28),\n",
       "   Message('note_on', channel=2, note=101, velocity=97, time=17),\n",
       "   Message('note_on', channel=9, note=51, velocity=81, time=2),\n",
       "   Message('note_off', channel=9, note=51, velocity=64, time=1),\n",
       "   Message('note_off', channel=1, note=43, velocity=64, time=30),\n",
       "   Message('note_on', channel=1, note=41, velocity=93, time=5),\n",
       "   Message('note_on', channel=9, note=51, velocity=68, time=1),\n",
       "   Message('note_off', channel=9, note=51, velocity=64, time=1),\n",
       "   Message('note_off', channel=2, note=101, velocity=64, time=2),\n",
       "   Message('note_on', channel=2, note=98, velocity=95, time=6),\n",
       "   Message('note_off', channel=2, note=98, velocity=64, time=36),\n",
       "   Message('note_on', channel=2, note=101, velocity=107, time=13),\n",
       "   Message('note_on', channel=9, note=51, velocity=75, time=1),\n",
       "   Message('note_on', channel=0, note=55, velocity=75, time=0),\n",
       "   Message('note_on', channel=0, note=65, velocity=94, time=0),\n",
       "   Message('note_off', channel=9, note=51, velocity=64, time=1),\n",
       "   Message('note_on', channel=0, note=60, velocity=90, time=0),\n",
       "   Message('note_off', channel=0, note=60, velocity=64, time=13),\n",
       "   Message('note_off', channel=0, note=55, velocity=64, time=2),\n",
       "   Message('note_off', channel=0, note=65, velocity=64, time=1),\n",
       "   Message('note_off', channel=1, note=41, velocity=64, time=14),\n",
       "   Message('note_on', channel=1, note=43, velocity=93, time=5),\n",
       "   Message('note_on', channel=9, note=44, velocity=60, time=1),\n",
       "   Message('note_on', channel=9, note=51, velocity=64, time=0),\n",
       "   Message('note_off', channel=9, note=51, velocity=64, time=1),\n",
       "   Message('note_off', channel=9, note=44, velocity=64, time=0),\n",
       "   Message('note_off', channel=2, note=101, velocity=64, time=1),\n",
       "   Message('note_on', channel=2, note=98, velocity=76, time=8),\n",
       "   Message('note_off', channel=2, note=98, velocity=64, time=32),\n",
       "   Message('note_on', channel=2, note=94, velocity=103, time=14),\n",
       "   Message('note_on', channel=9, note=51, velocity=85, time=3),\n",
       "   Message('note_off', channel=9, note=51, velocity=64, time=1),\n",
       "   Message('note_off', channel=1, note=43, velocity=64, time=30),\n",
       "   Message('note_off', channel=2, note=94, velocity=64, time=3),\n",
       "   Message('note_on', channel=1, note=38, velocity=95, time=2),\n",
       "   Message('note_on', channel=2, note=91, velocity=83, time=2),\n",
       "   Message('note_off', channel=2, note=91, velocity=64, time=38),\n",
       "   Message('note_on', channel=2, note=87, velocity=123, time=13),\n",
       "   Message('note_on', channel=9, note=40, velocity=57, time=6),\n",
       "   Message('note_off', channel=9, note=40, velocity=64, time=1),\n",
       "   Message('note_on', channel=9, note=51, velocity=57, time=0),\n",
       "   Message('note_on', channel=0, note=55, velocity=82, time=0),\n",
       "   Message('note_on', channel=0, note=60, velocity=90, time=0),\n",
       "   Message('note_off', channel=9, note=51, velocity=64, time=1),\n",
       "   Message('note_on', channel=0, note=65, velocity=84, time=0),\n",
       "   Message('note_off', channel=0, note=60, velocity=64, time=11),\n",
       "   Message('note_off', channel=0, note=55, velocity=64, time=0),\n",
       "   Message('note_off', channel=0, note=65, velocity=64, time=2),\n",
       "   Message('note_off', channel=1, note=38, velocity=64, time=17),\n",
       "   Message('note_on', channel=1, note=39, velocity=97, time=5),\n",
       "   Message('note_on', channel=9, note=44, velocity=58, time=1),\n",
       "   Message('note_on', channel=9, note=51, velocity=58, time=0),\n",
       "   Message('note_off', channel=9, note=51, velocity=64, time=1),\n",
       "   Message('note_off', channel=9, note=44, velocity=64, time=0),\n",
       "   Message('note_off', channel=2, note=87, velocity=64, time=2),\n",
       "   Message('note_on', channel=2, note=86, velocity=83, time=5),\n",
       "   Message('note_off', channel=2, note=86, velocity=64, time=40),\n",
       "   Message('note_on', channel=9, note=40, velocity=82, time=10),\n",
       "   Message('note_off', channel=9, note=40, velocity=64, time=1),\n",
       "   Message('note_on', channel=9, note=51, velocity=70, time=0),\n",
       "   Message('note_off', channel=9, note=51, velocity=64, time=1),\n",
       "   Message('note_on', channel=2, note=98, velocity=107, time=0),\n",
       "   Message('note_on', channel=0, note=66, velocity=96, time=0),\n",
       "   Message('note_on', channel=0, note=56, velocity=89, time=0),\n",
       "   Message('note_on', channel=0, note=61, velocity=91, time=0),\n",
       "   Message('note_off', channel=1, note=39, velocity=64, time=1),\n",
       "   Message('note_on', channel=1, note=36, velocity=97, time=2),\n",
       "   Message('note_on', channel=9, note=51, velocity=54, time=33),\n",
       "   Message('note_off', channel=9, note=51, velocity=64, time=1),\n",
       "   Message('note_off', channel=2, note=98, velocity=64, time=17),\n",
       "   Message('note_on', channel=2, note=95, velocity=97, time=0),\n",
       "   Message('note_off', channel=0, note=56, velocity=64, time=14),\n",
       "   Message('note_off', channel=0, note=61, velocity=64, time=3),\n",
       "   Message('note_off', channel=0, note=66, velocity=64, time=4),\n",
       "   Message('note_on', channel=0, note=60, velocity=84, time=20),\n",
       "   Message('note_on', channel=0, note=55, velocity=82, time=1),\n",
       "   Message('note_on', channel=0, note=65, velocity=85, time=0),\n",
       "   Message('note_off', channel=1, note=36, velocity=64, time=1),\n",
       "   Message('note_on', channel=2, note=91, velocity=97, time=0),\n",
       "   Message('note_off', channel=2, note=95, velocity=64, time=1),\n",
       "   Message('note_on', channel=1, note=36, velocity=86, time=1),\n",
       "   Message('note_off', channel=0, note=65, velocity=64, time=9),\n",
       "   Message('note_off', channel=0, note=55, velocity=64, time=18),\n",
       "   Message('note_off', channel=1, note=36, velocity=64, time=3),\n",
       "   Message('note_off', channel=0, note=60, velocity=64, time=0),\n",
       "   Message('note_on', channel=1, note=34, velocity=95, time=2),\n",
       "   Message('note_off', channel=2, note=91, velocity=64, time=1),\n",
       "   Message('note_on', channel=9, note=44, velocity=60, time=0),\n",
       "   Message('note_on', channel=9, note=51, velocity=78, time=0),\n",
       "   Message('note_off', channel=9, note=51, velocity=64, time=1),\n",
       "   Message('note_off', channel=9, note=44, velocity=64, time=0),\n",
       "   Message('note_on', channel=2, note=86, velocity=95, time=6),\n",
       "   Message('note_off', channel=2, note=86, velocity=64, time=43),\n",
       "   Message('note_on', channel=2, note=87, velocity=123, time=4),\n",
       "   Message('note_on', channel=9, note=40, velocity=38, time=4),\n",
       "   Message('note_off', channel=9, note=40, velocity=64, time=1),\n",
       "   Message('note_off', channel=2, note=87, velocity=64, time=30),\n",
       "   Message('note_off', channel=1, note=34, velocity=64, time=4),\n",
       "   Message('note_on', channel=2, note=86, velocity=78, time=2),\n",
       "   Message('note_on', channel=1, note=36, velocity=97, time=0),\n",
       "   Message('note_on', channel=9, note=51, velocity=62, time=1),\n",
       "   Message('note_off', channel=9, note=51, velocity=64, time=1),\n",
       "   Message('note_off', channel=2, note=86, velocity=64, time=40),\n",
       "   Message('note_on', channel=2, note=84, velocity=92, time=8),\n",
       "   Message('note_on', channel=9, note=40, velocity=83, time=9),\n",
       "   Message('note_off', channel=9, note=40, velocity=64, time=1),\n",
       "   Message('note_off', channel=1, note=36, velocity=64, time=34),\n",
       "   Message('note_on', channel=1, note=45, velocity=93, time=2),\n",
       "   Message('note_on', channel=9, note=44, velocity=60, time=1),\n",
       "   Message('note_on', channel=9, note=51, velocity=81, time=0),\n",
       "   Message('note_off', channel=9, note=51, velocity=64, time=1),\n",
       "   Message('note_off', channel=9, note=44, velocity=64, time=0),\n",
       "   Message('note_on', channel=2, note=83, velocity=81, time=3),\n",
       "   Message('note_off', channel=2, note=84, velocity=64, time=4),\n",
       "   Message('note_off', channel=2, note=83, velocity=64, time=27),\n",
       "   Message('note_on', channel=2, note=86, velocity=93, time=12),\n",
       "   Message('note_on', channel=9, note=51, velocity=58, time=12),\n",
       "   Message('note_off', channel=9, note=51, velocity=64, time=1),\n",
       "   Message('note_off', channel=1, note=45, velocity=64, time=33),\n",
       "   Message('note_on', channel=2, note=85, velocity=109, time=1),\n",
       "   Message('note_on', channel=1, note=46, velocity=97, time=1),\n",
       "   Message('note_off', channel=2, note=86, velocity=64, time=1),\n",
       "   Message('note_on', channel=9, note=51, velocity=68, time=0),\n",
       "   Message('note_off', channel=9, note=51, velocity=64, time=1),\n",
       "   Message('note_off', channel=2, note=85, velocity=64, time=38),\n",
       "   Message('note_on', channel=2, note=84, velocity=89, time=10),\n",
       "   Message('note_on', channel=9, note=40, velocity=59, time=9),\n",
       "   Message('note_off', channel=9, note=40, velocity=64, time=1),\n",
       "   Message('note_off', channel=1, note=46, velocity=64, time=34),\n",
       "   Message('note_on', channel=2, note=82, velocity=121, time=2),\n",
       "   Message('note_on', channel=9, note=40, velocity=70, time=0),\n",
       "   Message('note_on', channel=1, note=45, velocity=93, time=0),\n",
       "   Message('note_off', channel=9, note=40, velocity=64, time=1),\n",
       "   Message('note_off', channel=2, note=84, velocity=64, time=0),\n",
       "   Message('note_on', channel=9, note=44, velocity=60, time=0),\n",
       "   Message('note_on', channel=9, note=51, velocity=68, time=0),\n",
       "   Message('note_off', channel=9, note=51, velocity=64, time=1),\n",
       "   Message('note_off', channel=9, note=44, velocity=64, time=0),\n",
       "   Message('note_off', channel=2, note=82, velocity=64, time=44),\n",
       "   Message('note_on', channel=2, note=83, velocity=83, time=0),\n",
       "   Message('note_on', channel=9, note=51, velocity=54, time=14),\n",
       "   Message('note_off', channel=9, note=51, velocity=64, time=1),\n",
       "   Message('note_off', channel=2, note=83, velocity=64, time=22),\n",
       "   Message('note_off', channel=1, note=45, velocity=64, time=11),\n",
       "   Message('note_on', channel=2, note=86, velocity=97, time=0),\n",
       "   Message('note_on', channel=1, note=43, velocity=90, time=2),\n",
       "   Message('note_on', channel=9, note=51, velocity=57, time=1),\n",
       "   Message('note_off', channel=9, note=51, velocity=64, time=1),\n",
       "   Message('note_on', channel=2, note=85, velocity=121, time=50),\n",
       "   Message('note_off', channel=2, note=86, velocity=64, time=2),\n",
       "   Message('note_on', channel=9, note=40, velocity=62, time=5),\n",
       "   Message('note_off', channel=9, note=40, velocity=64, time=1),\n",
       "   Message('note_on', channel=0, note=66, velocity=110, time=0),\n",
       "   Message('note_on', channel=0, note=62, velocity=100, time=0),\n",
       "   Message('note_on', channel=0, note=55, velocity=110, time=1),\n",
       "   Message('note_off', channel=1, note=43, velocity=64, time=33),\n",
       "   Message('note_off', channel=2, note=85, velocity=64, time=1),\n",
       "   Message('note_on', channel=9, note=40, velocity=73, time=1),\n",
       "   Message('note_on', channel=1, note=45, velocity=93, time=0),\n",
       "   Message('note_off', channel=9, note=40, velocity=64, time=1),\n",
       "   Message('note_on', channel=9, note=44, velocity=60, time=0),\n",
       "   Message('note_on', channel=9, note=51, velocity=68, time=0),\n",
       "   Message('note_off', channel=9, note=51, velocity=64, time=1),\n",
       "   Message('note_off', channel=9, note=44, velocity=64, time=0),\n",
       "   Message('note_on', channel=2, note=84, velocity=83, time=6),\n",
       "   Message('note_off', channel=2, note=84, velocity=64, time=33),\n",
       "   Message('note_on', channel=2, note=82, velocity=123, time=13),\n",
       "   Message('note_on', channel=9, note=51, velocity=68, time=6),\n",
       "   Message('note_off', channel=9, note=51, velocity=64, time=1),\n",
       "   Message('note_off', channel=2, note=82, velocity=64, time=32),\n",
       "   Message('note_off', channel=1, note=45, velocity=64, time=1),\n",
       "   Message('note_on', channel=1, note=46, velocity=97, time=2),\n",
       "   Message('note_on', channel=9, note=51, velocity=61, time=1),\n",
       "   Message('note_off', channel=9, note=51, velocity=64, time=1),\n",
       "   Message('note_on', channel=2, note=79, velocity=101, time=1),\n",
       "   Message('note_off', channel=2, note=79, velocity=64, time=35),\n",
       "   Message('note_on', channel=2, note=75, velocity=127, time=15),\n",
       "   Message('note_on', channel=9, note=40, velocity=75, time=6),\n",
       "   Message('note_off', channel=9, note=40, velocity=64, time=1),\n",
       "   Message('note_on', channel=0, note=58, velocity=87, time=0),\n",
       "   Message('note_on', channel=0, note=63, velocity=94, time=0),\n",
       "   Message('note_off', channel=0, note=58, velocity=64, time=16),\n",
       "   Message('note_off', channel=0, note=63, velocity=64, time=1),\n",
       "   Message('note_off', channel=1, note=46, velocity=64, time=17),\n",
       "   Message('note_on', channel=9, note=40, velocity=76, time=2),\n",
       "   Message('note_on', channel=1, note=45, velocity=90, time=0),\n",
       "   Message('note_off', channel=9, note=40, velocity=64, time=1),\n",
       "   Message('note_on', channel=9, note=44, velocity=60, time=0),\n",
       "   Message('note_on', channel=9, note=55, velocity=110, time=0),\n",
       "   Message('note_off', channel=9, note=55, velocity=64, time=1),\n",
       "   Message('note_off', channel=9, note=44, velocity=64, time=0),\n",
       "   Message('note_on', channel=2, note=74, velocity=77, time=0),\n",
       "   Message('note_off', channel=2, note=75, velocity=64, time=1),\n",
       "   Message('note_on', channel=2, note=72, velocity=85, time=49),\n",
       "   Message('note_off', channel=2, note=74, velocity=64, time=2),\n",
       "   Message('note_off', channel=0, note=62, velocity=64, time=18),\n",
       "   Message('note_off', channel=0, note=66, velocity=64, time=0),\n",
       "   Message('note_off', channel=0, note=55, velocity=64, time=1),\n",
       "   Message('note_off', channel=2, note=72, velocity=64, time=10),\n",
       "   Message('note_off', channel=1, note=45, velocity=64, time=10),\n",
       "   Message('note_on', channel=2, note=77, velocity=101, time=3),\n",
       "   Message('note_on', channel=1, note=48, velocity=97, time=0),\n",
       "   Message('note_on', channel=9, note=51, velocity=85, time=1),\n",
       "   Message('note_off', channel=9, note=51, velocity=64, time=1),\n",
       "   Message('note_on', channel=2, note=74, velocity=76, time=49),\n",
       "   Message('note_off', channel=2, note=77, velocity=64, time=1),\n",
       "   Message('note_on', channel=9, note=40, velocity=77, time=7),\n",
       "   Message('note_off', channel=9, note=40, velocity=64, time=1),\n",
       "   Message('note_off', channel=2, note=74, velocity=64, time=22),\n",
       "   Message('note_off', channel=1, note=48, velocity=64, time=12),\n",
       "   Message('note_on', channel=9, note=40, velocity=81, time=2),\n",
       "   Message('note_on', channel=1, note=43, velocity=97, time=0),\n",
       "   Message('note_off', channel=9, note=40, velocity=64, time=1),\n",
       "   Message('note_on', channel=2, note=77, velocity=111, time=0),\n",
       "   Message('note_on', channel=9, note=44, velocity=60, time=0),\n",
       "   Message('note_on', channel=9, note=55, velocity=110, time=0),\n",
       "   Message('note_off', channel=9, note=55, velocity=64, time=1),\n",
       "   Message('note_off', channel=9, note=44, velocity=64, time=0),\n",
       "   Message('note_off', channel=2, note=77, velocity=64, time=54),\n",
       "   Message('note_on', channel=2, note=74, velocity=99, time=0),\n",
       "   Message('note_on', channel=9, note=51, velocity=58, time=4),\n",
       "   Message('note_off', channel=9, note=51, velocity=64, time=1),\n",
       "   Message('note_off', channel=2, note=74, velocity=64, time=25),\n",
       "   Message('note_off', channel=1, note=43, velocity=64, time=8),\n",
       "   Message('note_on', channel=1, note=41, velocity=95, time=2),\n",
       "   Message('note_on', channel=9, note=51, velocity=81, time=1),\n",
       "   Message('note_off', channel=9, note=51, velocity=64, time=1),\n",
       "   Message('note_on', channel=9, note=40, velocity=85, time=57),\n",
       "   Message('note_off', channel=9, note=40, velocity=64, time=1),\n",
       "   Message('note_on', channel=9, note=51, velocity=93, time=0),\n",
       "   Message('note_on', channel=0, note=50, velocity=79, time=0),\n",
       "   Message('note_on', channel=0, note=55, velocity=97, time=0),\n",
       "   Message('note_off', channel=9, note=51, velocity=64, time=1),\n",
       "   Message('note_on', channel=0, note=60, velocity=97, time=0),\n",
       "   Message('note_off', channel=0, note=60, velocity=64, time=14),\n",
       "   Message('note_off', channel=0, note=50, velocity=64, time=0),\n",
       "   Message('note_off', channel=0, note=55, velocity=64, time=1),\n",
       "   Message('note_off', channel=1, note=41, velocity=64, time=18),\n",
       "   Message('note_on', channel=9, note=40, velocity=78, time=2),\n",
       "   Message('note_on', channel=1, note=36, velocity=95, time=0),\n",
       "   Message('note_off', channel=9, note=40, velocity=64, time=1),\n",
       "   Message('note_on', channel=9, note=44, velocity=60, time=0),\n",
       "   Message('note_on', channel=9, note=57, velocity=120, time=0),\n",
       "   Message('note_off', channel=9, note=57, velocity=64, time=1),\n",
       "   Message('note_off', channel=9, note=44, velocity=64, time=0),\n",
       "   Message('note_on', channel=9, note=51, velocity=97, time=58),\n",
       "   Message('note_on', channel=0, note=55, velocity=94, time=0),\n",
       "   Message('note_off', channel=9, note=51, velocity=64, time=1),\n",
       "   Message('note_on', channel=0, note=60, velocity=103, time=0),\n",
       "   Message('note_on', channel=0, note=50, velocity=94, time=0),\n",
       "   Message('note_on', channel=0, note=65, velocity=127, time=6),\n",
       "   Message('note_off', channel=0, note=50, velocity=64, time=7),\n",
       "   Message('note_off', channel=0, note=60, velocity=64, time=0),\n",
       "   Message('note_off', channel=0, note=55, velocity=64, time=1),\n",
       "   Message('note_off', channel=1, note=36, velocity=64, time=19),\n",
       "   Message('note_on', channel=1, note=38, velocity=92, time=2),\n",
       "   Message('note_on', channel=9, note=51, velocity=95, time=1),\n",
       "   Message('note_off', channel=9, note=51, velocity=64, time=1),\n",
       "   Message('note_off', channel=0, note=65, velocity=64, time=3),\n",
       "   Message('note_on', channel=0, note=67, velocity=110, time=4),\n",
       "   Message('note_off', channel=0, note=67, velocity=64, time=20),\n",
       "   Message('note_on', channel=2, note=70, velocity=127, time=9),\n",
       "   Message('note_off', channel=2, note=70, velocity=64, time=19),\n",
       "   Message('note_on', channel=9, note=40, velocity=82, time=2),\n",
       "   Message('note_off', channel=9, note=40, velocity=64, time=1),\n",
       "   Message('note_on', channel=9, note=55, velocity=127, time=0),\n",
       "   Message('note_on', channel=0, note=55, velocity=97, time=0),\n",
       "   Message('note_on', channel=0, note=60, velocity=98, time=0),\n",
       "   Message('note_off', channel=9, note=55, velocity=64, time=1),\n",
       "   Message('note_on', channel=0, note=65, velocity=103, time=0),\n",
       "   Message('note_on', channel=2, note=72, velocity=93, time=9),\n",
       "   Message('note_off', channel=0, note=60, velocity=64, time=7),\n",
       "   Message('note_off', channel=0, note=65, velocity=64, time=1),\n",
       "   Message('note_off', channel=0, note=55, velocity=64, time=3),\n",
       "   Message('note_off', channel=1, note=38, velocity=64, time=13),\n",
       "   Message('note_off', channel=2, note=72, velocity=64, time=1),\n",
       "   Message('note_on', channel=1, note=34, velocity=86, time=1),\n",
       "   Message('note_on', channel=9, note=44, velocity=60, time=1),\n",
       "   Message('note_on', channel=9, note=51, velocity=95, time=0),\n",
       "   Message('note_off', channel=9, note=51, velocity=64, time=1),\n",
       "   Message('note_off', channel=9, note=44, velocity=64, time=0),\n",
       "   Message('note_on', channel=2, note=74, velocity=87, time=3),\n",
       "   Message('note_off', channel=2, note=74, velocity=64, time=22),\n",
       "   Message('note_on', channel=2, note=75, velocity=117, time=6),\n",
       "   Message('note_off', channel=2, note=75, velocity=64, time=22),\n",
       "   Message('note_off', channel=1, note=34, velocity=64, time=5),\n",
       "   Message('note_on', channel=2, note=77, velocity=120, time=0),\n",
       "   Message('note_on', channel=2, note=89, velocity=110, time=0),\n",
       "   Message('note_on', channel=9, note=35, velocity=110, time=0),\n",
       "   Message('note_on', channel=9, note=52, velocity=120, time=0),\n",
       "   Message('note_on', channel=0, note=66, velocity=120, time=0),\n",
       "   Message('note_on', channel=0, note=56, velocity=120, time=0),\n",
       "   Message('note_on', channel=1, note=27, velocity=120, time=0),\n",
       "   Message('note_off', channel=9, note=52, velocity=64, time=1),\n",
       "   Message('note_off', channel=9, note=35, velocity=64, time=0),\n",
       "   Message('note_on', channel=0, note=61, velocity=103, time=0),\n",
       "   Message('note_on', channel=9, note=49, velocity=120, time=95),\n",
       "   Message('note_off', channel=9, note=49, velocity=64, time=1),\n",
       "   Message('note_off', channel=1, note=27, velocity=64, time=3),\n",
       "   Message('note_on', channel=1, note=34, velocity=95, time=0),\n",
       "   Message('note_off', channel=1, note=34, velocity=64, time=30),\n",
       "   Message('note_on', channel=1, note=36, velocity=90, time=2),\n",
       "   Message('note_on', channel=9, note=44, velocity=60, time=1),\n",
       "   Message('note_on', channel=9, note=51, velocity=78, time=0),\n",
       "   Message('note_off', channel=9, note=51, velocity=64, time=1),\n",
       "   Message('note_off', channel=9, note=44, velocity=64, time=0),\n",
       "   Message('note_on', channel=2, note=89, velocity=107, time=30),\n",
       "   Message('note_off', channel=2, note=77, velocity=64, time=21),\n",
       "   Message('note_off', channel=2, note=89, velocity=64, time=5),\n",
       "   Message('note_on', channel=2, note=77, velocity=97, time=6),\n",
       "   Message('note_off', channel=2, note=77, velocity=64, time=26),\n",
       "   Message('note_off', channel=1, note=36, velocity=64, time=4),\n",
       "   Message('note_on', channel=2, note=76, velocity=87, time=2),\n",
       "   Message('note_on', channel=1, note=37, velocity=95, time=0),\n",
       "   Message('note_on', channel=9, note=51, velocity=95, time=1),\n",
       "   Message('note_off', channel=9, note=51, velocity=64, time=1),\n",
       "   Message('note_off', channel=2, note=76, velocity=64, time=24),\n",
       "   Message('note_on', channel=2, note=88, velocity=103, time=6),\n",
       "   Message('note_off', channel=2, note=89, velocity=64, time=10),\n",
       "   Message('note_off', channel=0, note=61, velocity=64, time=1),\n",
       "   Message('note_off', channel=0, note=56, velocity=64, time=1),\n",
       "   Message('note_off', channel=0, note=66, velocity=64, time=1),\n",
       "   Message('note_off', channel=2, note=88, velocity=64, time=13),\n",
       "   Message('note_on', channel=9, note=40, velocity=71, time=1),\n",
       "   Message('note_off', channel=9, note=40, velocity=64, time=1),\n",
       "   Message('note_on', channel=2, note=76, velocity=97, time=4),\n",
       "   Message('note_off', channel=2, note=76, velocity=64, time=26),\n",
       "   Message('note_off', channel=1, note=37, velocity=64, time=4),\n",
       "   Message('note_on', channel=2, note=75, velocity=111, time=2),\n",
       "   Message('note_on', channel=2, note=87, velocity=109, time=0),\n",
       "   Message('note_on', channel=1, note=38, velocity=90, time=0),\n",
       "   Message('note_on', channel=9, note=44, velocity=60, time=1),\n",
       "   Message('note_on', channel=9, note=51, velocity=73, time=0),\n",
       "   Message('note_off', channel=9, note=51, velocity=64, time=1),\n",
       "   Message('note_off', channel=9, note=44, velocity=64, time=0),\n",
       "   Message('note_off', channel=2, note=87, velocity=64, time=24),\n",
       "   Message('note_off', channel=2, note=75, velocity=64, time=0),\n",
       "   Message('note_on', channel=2, note=75, velocity=123, time=6),\n",
       "   Message('note_off', channel=2, note=75, velocity=64, time=26),\n",
       "   Message('note_on', channel=9, note=40, velocity=107, time=1),\n",
       "   Message('note_off', channel=9, note=40, velocity=64, time=1),\n",
       "   Message('note_on', channel=9, note=49, velocity=110, time=0),\n",
       "   Message('note_on', channel=9, note=35, velocity=110, time=0),\n",
       "   Message('note_off', channel=9, note=49, velocity=64, time=1),\n",
       "   Message('note_on', channel=2, note=76, velocity=99, time=3),\n",
       "   Message('note_on', channel=2, note=88, velocity=90, time=0),\n",
       "   Message('note_off', channel=9, note=35, velocity=64, time=18),\n",
       "   Message('note_off', channel=2, note=88, velocity=64, time=8),\n",
       "   Message('note_off', channel=2, note=76, velocity=64, time=0),\n",
       "   Message('note_off', channel=1, note=38, velocity=64, time=4),\n",
       "   Message('note_on', channel=2, note=76, velocity=115, time=2),\n",
       "   Message('note_on', channel=1, note=39, velocity=96, time=0),\n",
       "   Message('note_on', channel=9, note=51, velocity=67, time=1),\n",
       "   Message('note_off', channel=9, note=51, velocity=64, time=1),\n",
       "   Message('note_off', channel=2, note=76, velocity=64, time=24),\n",
       "   Message('note_on', channel=2, note=77, velocity=93, time=6),\n",
       "   Message('note_on', channel=2, note=89, velocity=92, time=0),\n",
       "   Message('note_off', channel=2, note=89, velocity=64, time=26),\n",
       "   Message('note_off', channel=2, note=77, velocity=64, time=0),\n",
       "   Message('note_on', channel=2, note=77, velocity=107, time=6),\n",
       "   Message('note_off', channel=2, note=77, velocity=64, time=26),\n",
       "   Message('note_off', channel=1, note=39, velocity=64, time=4),\n",
       "   Message('note_on', channel=2, note=76, velocity=74, time=2),\n",
       "   Message('note_on', channel=2, note=88, velocity=85, time=0),\n",
       "   Message('note_on', channel=1, note=51, velocity=95, time=0),\n",
       "   Message('note_on', channel=9, note=44, velocity=60, time=1),\n",
       "   Message('note_on', channel=9, note=51, velocity=78, time=0),\n",
       "   Message('note_off', channel=9, note=51, velocity=64, time=1),\n",
       "   Message('note_off', channel=9, note=44, velocity=64, time=0),\n",
       "   Message('note_off', channel=2, note=88, velocity=64, time=24),\n",
       "   Message('note_off', channel=2, note=76, velocity=64, time=0),\n",
       "   Message('note_on', channel=2, note=76, velocity=107, time=6),\n",
       "   Message('note_off', channel=2, note=76, velocity=64, time=26),\n",
       "   Message('note_on', channel=9, note=52, velocity=93, time=2),\n",
       "   Message('note_on', channel=9, note=40, velocity=110, time=0),\n",
       "   Message('note_off', channel=9, note=40, velocity=64, time=1),\n",
       "   Message('note_off', channel=9, note=52, velocity=64, time=0),\n",
       "   Message('note_on', channel=2, note=75, velocity=113, time=3),\n",
       "   Message('note_on', channel=2, note=87, velocity=103, time=0),\n",
       "   Message('note_off', channel=2, note=87, velocity=64, time=26),\n",
       "   Message('note_off', channel=2, note=75, velocity=64, time=0),\n",
       "   Message('note_off', channel=1, note=51, velocity=64, time=1),\n",
       "   Message('note_on', channel=2, note=75, velocity=123, time=5),\n",
       "   Message('note_on', channel=1, note=49, velocity=97, time=0),\n",
       "   Message('note_off', channel=2, note=75, velocity=64, time=26),\n",
       "   Message('note_on', channel=2, note=76, velocity=103, time=6),\n",
       "   Message('note_off', channel=2, note=76, velocity=64, time=26),\n",
       "   Message('note_on', channel=2, note=88, velocity=86, time=6),\n",
       "   Message('note_off', channel=2, note=88, velocity=64, time=26),\n",
       "   Message('note_off', channel=1, note=49, velocity=64, time=1),\n",
       "   Message('note_on', channel=2, note=76, velocity=115, time=5),\n",
       "   Message('note_on', channel=1, note=48, velocity=97, time=0),\n",
       "   Message('note_on', channel=9, note=44, velocity=60, time=1),\n",
       "   Message('note_on', channel=9, note=59, velocity=90, time=0),\n",
       "   Message('note_off', channel=9, note=59, velocity=64, time=1),\n",
       "   Message('note_off', channel=9, note=44, velocity=64, time=0),\n",
       "   Message('note_off', channel=2, note=76, velocity=64, time=24),\n",
       "   Message('note_on', channel=2, note=77, velocity=97, time=6),\n",
       "   Message('note_off', channel=2, note=77, velocity=64, time=26),\n",
       "   Message('note_on', channel=9, note=40, velocity=70, time=1),\n",
       "   Message('note_off', channel=9, note=40, velocity=64, time=1),\n",
       "   Message('note_on', channel=9, note=49, velocity=110, time=0),\n",
       "   Message('note_off', channel=9, note=49, velocity=64, time=1),\n",
       "   Message('note_on', channel=2, note=89, velocity=92, time=3),\n",
       "   Message('note_off', channel=2, note=89, velocity=64, time=26),\n",
       "   Message('note_off', channel=1, note=48, velocity=64, time=1),\n",
       "   Message('note_on', channel=2, note=77, velocity=107, time=5),\n",
       "   Message('note_on', channel=1, note=46, velocity=97, time=0),\n",
       "   Message('note_on', channel=9, note=51, velocity=80, time=1),\n",
       "   Message('note_off', channel=9, note=51, velocity=64, time=1),\n",
       "   Message('note_off', channel=2, note=77, velocity=64, time=24),\n",
       "   Message('note_on', channel=2, note=76, velocity=103, time=6),\n",
       "   Message('note_off', channel=2, note=76, velocity=64, time=26),\n",
       "   Message('note_on', channel=2, note=88, velocity=85, time=6),\n",
       "   Message('note_off', channel=2, note=88, velocity=64, time=26),\n",
       "   Message('note_off', channel=1, note=46, velocity=64, time=1),\n",
       "   Message('note_on', channel=2, note=76, velocity=101, time=5),\n",
       "   Message('note_on', channel=1, note=44, velocity=97, time=0),\n",
       "   Message('note_on', channel=9, note=44, velocity=60, time=1),\n",
       "   Message('note_on', channel=9, note=51, velocity=86, time=0),\n",
       "   Message('note_off', channel=9, note=51, velocity=64, time=1),\n",
       "   Message('note_off', channel=9, note=44, velocity=64, time=0),\n",
       "   Message('note_off', channel=2, note=76, velocity=64, time=24),\n",
       "   Message('note_on', channel=2, note=75, velocity=111, time=6),\n",
       "   Message('note_on', channel=2, note=87, velocity=105, time=0),\n",
       "   Message('note_off', channel=2, note=87, velocity=64, time=26),\n",
       "   Message('note_off', channel=2, note=75, velocity=64, time=0),\n",
       "   Message('note_on', channel=2, note=75, velocity=123, time=6),\n",
       "   Message('note_off', channel=2, note=75, velocity=64, time=26),\n",
       "   Message('note_off', channel=1, note=44, velocity=64, time=1),\n",
       "   Message('note_on', channel=2, note=76, velocity=99, time=5),\n",
       "   Message('note_on', channel=2, note=88, velocity=92, time=0),\n",
       "   Message('note_on', channel=1, note=41, velocity=85, time=0),\n",
       "   Message('note_on', channel=9, note=51, velocity=90, time=1),\n",
       "   Message('note_off', channel=9, note=51, velocity=64, time=1),\n",
       "   Message('note_off', channel=2, note=88, velocity=64, time=24),\n",
       "   Message('note_off', channel=2, note=76, velocity=64, time=0),\n",
       "   Message('note_on', channel=2, note=76, velocity=117, time=6),\n",
       "   Message('note_off', channel=2, note=76, velocity=64, time=26),\n",
       "   Message('note_on', channel=9, note=40, velocity=67, time=1),\n",
       "   Message('note_off', channel=9, note=40, velocity=64, time=1),\n",
       "   Message('note_on', channel=9, note=55, velocity=110, time=0),\n",
       "   Message('note_on', channel=9, note=35, velocity=64, time=0),\n",
       "   Message('note_off', channel=9, note=55, velocity=64, time=1),\n",
       "   Message('note_on', channel=2, note=72, velocity=75, time=3),\n",
       "   Message('note_on', channel=2, note=75, velocity=103, time=0),\n",
       "   Message('note_off', channel=9, note=35, velocity=64, time=18),\n",
       "   Message('note_off', channel=2, note=75, velocity=64, time=1),\n",
       "   Message('note_off', channel=2, note=72, velocity=64, time=0),\n",
       "   Message('note_on', channel=2, note=72, velocity=71, time=0),\n",
       "   Message('note_off', channel=1, note=41, velocity=64, time=8),\n",
       "   Message('note_on', channel=1, note=42, velocity=95, time=5),\n",
       "   Message('note_on', channel=9, note=44, velocity=58, time=1),\n",
       "   Message('note_off', channel=9, note=44, velocity=64, time=1),\n",
       "   Message('note_off', channel=2, note=72, velocity=64, time=4),\n",
       "   Message('note_on', channel=2, note=75, velocity=123, time=0),\n",
       "   Message('note_off', channel=2, note=75, velocity=64, time=19),\n",
       "   Message('note_on', channel=2, note=77, velocity=87, time=0),\n",
       "   Message('note_off', channel=2, note=77, velocity=64, time=19),\n",
       "   Message('note_on', channel=2, note=80, velocity=95, time=0),\n",
       "   Message('note_on', channel=9, note=51, velocity=73, time=16),\n",
       "   Message('note_off', channel=9, note=51, velocity=64, time=1),\n",
       "   Message('note_off', channel=2, note=80, velocity=64, time=2),\n",
       "   Message('note_on', channel=2, note=77, velocity=77, time=0),\n",
       "   Message('note_off', channel=2, note=77, velocity=64, time=19),\n",
       "   Message('note_on', channel=2, note=80, velocity=117, time=0),\n",
       "   Message('note_off', channel=1, note=42, velocity=64, time=9),\n",
       "   Message('note_on', channel=1, note=39, velocity=97, time=5),\n",
       "   Message('note_on', channel=9, note=51, velocity=61, time=1),\n",
       "   Message('note_off', channel=9, note=51, velocity=64, time=1),\n",
       "   Message('note_off', channel=2, note=80, velocity=64, time=3),\n",
       "   Message('note_on', channel=2, note=84, velocity=90, time=0),\n",
       "   Message('note_off', channel=2, note=84, velocity=64, time=19),\n",
       "   Message('note_on', channel=2, note=87, velocity=111, time=0),\n",
       "   Message('note_off', channel=2, note=87, velocity=64, time=19),\n",
       "   Message('note_on', channel=2, note=84, velocity=59, time=0),\n",
       "   Message('note_on', channel=9, note=40, velocity=110, time=17),\n",
       "   Message('note_off', channel=9, note=40, velocity=64, time=1),\n",
       "   Message('note_off', channel=2, note=84, velocity=64, time=1),\n",
       "   Message('note_on', channel=2, note=87, velocity=119, time=0),\n",
       "   Message('note_off', channel=2, note=87, velocity=64, time=19),\n",
       "   Message('note_on', channel=2, note=79, velocity=87, time=0),\n",
       "   Message('note_on', channel=2, note=82, velocity=103, time=0),\n",
       "   Message('note_off', channel=1, note=39, velocity=64, time=10),\n",
       "   Message('note_on', channel=1, note=36, velocity=86, time=5),\n",
       "   Message('note_on', channel=9, note=44, velocity=60, time=1),\n",
       "   Message('note_on', channel=9, note=51, velocity=85, time=0),\n",
       "   Message('note_off', channel=9, note=51, velocity=64, time=1),\n",
       "   Message('note_off', channel=9, note=44, velocity=64, time=0),\n",
       "   Message('note_off', channel=2, note=82, velocity=64, time=2),\n",
       "   Message('note_off', channel=2, note=79, velocity=64, time=0),\n",
       "   Message('note_on', channel=2, note=82, velocity=117, time=0),\n",
       "   Message('note_on', channel=2, note=79, velocity=66, time=0),\n",
       "   Message('note_off', channel=2, note=79, velocity=64, time=19),\n",
       "   Message('note_off', channel=2, note=82, velocity=64, time=0),\n",
       "   Message('note_on', channel=2, note=78, velocity=105, time=0),\n",
       "   Message('note_off', channel=2, note=78, velocity=64, time=19),\n",
       "   Message('note_on', channel=2, note=80, velocity=75, time=0),\n",
       "   Message('note_off', channel=2, note=80, velocity=64, time=19),\n",
       "   Message('note_on', channel=2, note=78, velocity=109, time=0),\n",
       "   Message('note_on', channel=2, note=80, velocity=111, time=0),\n",
       "   Message('note_off', channel=2, note=80, velocity=64, time=19),\n",
       "   Message('note_off', channel=2, note=78, velocity=64, time=0),\n",
       "   Message('note_on', channel=2, note=81, velocity=92, time=0),\n",
       "   Message('note_off', channel=1, note=36, velocity=64, time=11),\n",
       "   Message('note_on', channel=1, note=37, velocity=92, time=5),\n",
       "   Message('note_on', channel=9, note=49, velocity=110, time=1),\n",
       "   Message('note_off', channel=9, note=49, velocity=64, time=1),\n",
       "   Message('note_off', channel=2, note=81, velocity=64, time=1),\n",
       "   Message('note_on', channel=2, note=83, velocity=83, time=0),\n",
       "   Message('note_off', channel=2, note=83, velocity=64, time=19),\n",
       "   Message('note_on', channel=2, note=81, velocity=103, time=0),\n",
       "   Message('note_off', channel=2, note=81, velocity=64, time=19),\n",
       "   Message('note_on', channel=2, note=83, velocity=97, time=0),\n",
       "   Message('note_on', channel=9, note=40, velocity=64, time=18),\n",
       "   Message('note_on', channel=9, note=55, velocity=127, time=0),\n",
       "   Message('note_on', channel=9, note=35, velocity=110, time=0),\n",
       "   Message('note_off', channel=9, note=35, velocity=64, time=1),\n",
       "   Message('note_off', channel=9, note=40, velocity=64, time=0),\n",
       "   Message('note_off', channel=2, note=83, velocity=64, time=0),\n",
       "   Message('note_on', channel=2, note=85, velocity=111, time=0),\n",
       "   Message('note_off', channel=2, note=85, velocity=64, time=19),\n",
       "   Message('note_on', channel=2, note=87, velocity=97, time=0),\n",
       "   Message('note_off', channel=9, note=55, velocity=64, time=2),\n",
       "   Message('note_off', channel=1, note=37, velocity=64, time=10),\n",
       "   Message('note_on', channel=1, note=38, velocity=81, time=5),\n",
       "   Message('note_on', channel=9, note=46, velocity=120, time=1),\n",
       "   Message('note_on', channel=9, note=40, velocity=90, time=0),\n",
       "   Message('note_off', channel=9, note=40, velocity=64, time=1),\n",
       "   Message('note_off', channel=9, note=46, velocity=64, time=0),\n",
       "   Message('note_off', channel=2, note=87, velocity=64, time=0),\n",
       "   Message('note_on', channel=2, note=85, velocity=99, time=0),\n",
       "   Message('note_on', channel=2, note=87, velocity=109, time=0),\n",
       "   Message('note_off', channel=2, note=87, velocity=64, time=19),\n",
       "   Message('note_off', channel=2, note=85, velocity=64, time=0),\n",
       "   Message('note_on', channel=2, note=90, velocity=101, time=0),\n",
       "   Message('note_on', channel=9, note=45, velocity=64, time=11),\n",
       "   Message('note_off', channel=9, note=45, velocity=64, time=1),\n",
       "   Message('note_off', channel=2, note=90, velocity=64, time=7),\n",
       "   Message('note_on', channel=2, note=92, velocity=97, time=0),\n",
       "   Message('note_off', channel=2, note=92, velocity=64, time=19),\n",
       "   Message('note_on', channel=2, note=90, velocity=109, time=0),\n",
       "   Message('note_on', channel=9, note=35, velocity=93, time=0),\n",
       "   Message('note_off', channel=9, note=35, velocity=64, time=1),\n",
       "   Message('note_on', channel=9, note=52, velocity=120, time=0),\n",
       "   Message('note_off', channel=9, note=52, velocity=64, time=1),\n",
       "   Message('note_off', channel=2, note=90, velocity=64, time=17),\n",
       "   Message('note_on', channel=2, note=92, velocity=86, time=0),\n",
       "   Message('note_off', channel=1, note=38, velocity=64, time=12),\n",
       "   Message('note_on', channel=9, note=38, velocity=62, time=6),\n",
       "   Message('note_on', channel=1, note=39, velocity=95, time=0),\n",
       "   Message('note_off', channel=9, note=38, velocity=64, time=1),\n",
       "   Message('note_off', channel=2, note=92, velocity=64, time=0),\n",
       "   Message('note_on', channel=2, note=93, velocity=74, time=0),\n",
       "   Message('note_on', channel=9, note=51, velocity=75, time=0),\n",
       "   Message('note_off', channel=9, note=51, velocity=64, time=1),\n",
       "   Message('note_off', channel=2, note=93, velocity=64, time=18),\n",
       "   Message('note_on', channel=2, note=95, velocity=90, time=0),\n",
       "   Message('note_on', channel=9, note=38, velocity=41, time=12),\n",
       "   Message('note_off', channel=9, note=38, velocity=64, time=1),\n",
       "   Message('note_off', channel=2, note=95, velocity=64, time=6),\n",
       "   Message('note_on', channel=2, note=93, velocity=89, time=0),\n",
       "   Message('note_off', channel=2, note=93, velocity=64, time=19),\n",
       "   Message('note_on', channel=2, note=97, velocity=109, time=0),\n",
       "   Message('note_on', channel=9, note=40, velocity=75, time=6),\n",
       "   Message('note_off', channel=9, note=40, velocity=64, time=1),\n",
       "   Message('note_off', channel=2, note=97, velocity=64, time=12),\n",
       "   Message('note_on', channel=2, note=99, velocity=87, time=0),\n",
       "   Message('note_off', channel=1, note=39, velocity=64, time=14),\n",
       "   Message('note_off', channel=2, note=99, velocity=64, time=5),\n",
       "   Message('note_on', channel=2, note=97, velocity=71, time=0),\n",
       "   Message('note_on', channel=2, note=99, velocity=109, time=0),\n",
       "   Message('note_on', channel=9, note=46, velocity=90, time=0),\n",
       "   Message('note_on', channel=1, note=41, velocity=93, time=0),\n",
       "   Message('note_off', channel=9, note=46, velocity=64, time=1),\n",
       "   Message('note_off', channel=2, note=99, velocity=64, time=18),\n",
       "   Message('note_off', channel=2, note=97, velocity=64, time=0),\n",
       "   Message('note_on', channel=2, note=101, velocity=111, time=0),\n",
       "   Message('note_on', channel=2, note=103, velocity=105, time=0),\n",
       "   Message('note_off', channel=2, note=103, velocity=64, time=19),\n",
       "   Message('note_off', channel=2, note=101, velocity=64, time=0),\n",
       "   Message('note_on', channel=9, note=35, velocity=110, time=22),\n",
       "   Message('note_on', channel=9, note=49, velocity=110, time=0),\n",
       "   Message('note_on', channel=0, note=62, velocity=93, time=0),\n",
       "   Message('note_on', channel=0, note=60, velocity=90, time=0),\n",
       "   Message('note_on', channel=0, note=55, velocity=105, time=0),\n",
       "   Message('note_on', channel=0, note=65, velocity=113, time=0),\n",
       "   Message('note_off', channel=9, note=49, velocity=64, time=1),\n",
       "   Message('note_off', channel=9, note=35, velocity=64, time=0),\n",
       "   Message('note_off', channel=1, note=41, velocity=64, time=30),\n",
       "   Message('note_on', channel=9, note=40, velocity=38, time=5),\n",
       "   Message('note_on', channel=1, note=42, velocity=97, time=0),\n",
       "   Message('note_off', channel=9, note=40, velocity=64, time=1),\n",
       "   Message('note_on', channel=9, note=51, velocity=78, time=0),\n",
       "   Message('note_off', channel=9, note=51, velocity=64, time=1),\n",
       "   Message('note_on', channel=9, note=40, velocity=44, time=30),\n",
       "   Message('note_off', channel=9, note=40, velocity=64, time=1),\n",
       "   Message('note_on', channel=9, note=40, velocity=68, time=26),\n",
       "   Message('note_off', channel=9, note=40, velocity=64, time=1),\n",
       "   Message('note_on', channel=9, note=52, velocity=100, time=0),\n",
       "   Message('note_on', channel=9, note=35, velocity=64, time=0),\n",
       "   Message('note_off', channel=9, note=35, velocity=64, time=1),\n",
       "   Message('note_off', channel=9, note=52, velocity=64, time=0),\n",
       "   Message('note_on', channel=9, note=40, velocity=57, time=3),\n",
       "   Message('note_off', channel=9, note=40, velocity=64, time=1),\n",
       "   Message('note_off', channel=1, note=42, velocity=64, time=25),\n",
       "   Message('note_on', channel=2, note=87, velocity=121, time=6),\n",
       "   Message('note_on', channel=9, note=46, velocity=90, time=0),\n",
       "   Message('note_on', channel=1, note=48, velocity=95, time=0),\n",
       "   Message('note_off', channel=9, note=46, velocity=64, time=1),\n",
       "   Message('note_on', channel=9, note=51, velocity=68, time=0),\n",
       "   Message('note_off', channel=9, note=51, velocity=64, time=1),\n",
       "   Message('note_on', channel=9, note=38, velocity=80, time=30),\n",
       "   Message('note_off', channel=9, note=38, velocity=64, time=1),\n",
       "   Message('note_off', channel=2, note=87, velocity=64, time=24),\n",
       "   Message('note_on', channel=2, note=85, velocity=101, time=2),\n",
       "   Message('note_on', channel=9, note=51, velocity=95, time=1),\n",
       "   Message('note_off', channel=9, note=51, velocity=64, time=1),\n",
       "   Message('note_off', channel=0, note=65, velocity=64, time=7),\n",
       "   Message('note_off', channel=0, note=55, velocity=64, time=0),\n",
       "   Message('note_off', channel=0, note=60, velocity=64, time=0),\n",
       "   Message('note_off', channel=0, note=62, velocity=64, time=0),\n",
       "   Message('note_off', channel=1, note=48, velocity=64, time=23),\n",
       "   Message('note_on', channel=2, note=80, velocity=95, time=5),\n",
       "   Message('note_on', channel=1, note=51, velocity=95, time=0),\n",
       "   Message('note_on', channel=9, note=51, velocity=81, time=1),\n",
       "   Message('note_off', channel=9, note=51, velocity=64, time=1),\n",
       "   Message('note_off', channel=2, note=85, velocity=64, time=2),\n",
       "   Message('note_off', channel=2, note=80, velocity=64, time=44),\n",
       "   Message('note_on', channel=2, note=79, velocity=82, time=11),\n",
       "   Message('note_on', channel=9, note=40, velocity=74, time=0),\n",
       "   Message('note_off', channel=9, note=40, velocity=64, time=1),\n",
       "   Message('note_on', channel=9, note=57, velocity=93, time=0),\n",
       "   Message('note_off', channel=9, note=57, velocity=64, time=1),\n",
       "   Message('note_off', channel=1, note=51, velocity=64, time=30),\n",
       "   Message('note_on', channel=2, note=86, velocity=105, time=5),\n",
       "   Message('note_on', channel=1, note=49, velocity=89, time=0),\n",
       "   Message('note_off', channel=2, note=79, velocity=64, time=1),\n",
       "   Message('note_on', channel=9, note=44, velocity=60, time=0),\n",
       "   Message('note_on', channel=9, note=51, velocity=90, time=0),\n",
       "   Message('note_off', channel=9, note=51, velocity=64, time=1),\n",
       "   Message('note_off', channel=9, note=44, velocity=64, time=0),\n",
       "   Message('note_off', channel=2, note=86, velocity=64, time=35),\n",
       "   Message('note_on', channel=2, note=83, velocity=90, time=22),\n",
       "   Message('note_on', channel=0, note=56, velocity=77, time=0),\n",
       "   Message('note_on', channel=0, note=66, velocity=94, time=0),\n",
       "   Message('note_on', channel=0, note=61, velocity=91, time=0),\n",
       "   Message('note_on', channel=9, note=51, velocity=97, time=1),\n",
       "   Message('note_on', channel=9, note=40, velocity=100, time=0),\n",
       "   Message('note_off', channel=9, note=40, velocity=64, time=1),\n",
       "   Message('note_off', channel=9, note=51, velocity=64, time=0),\n",
       "   Message('note_off', channel=0, note=61, velocity=64, time=10),\n",
       "   Message('note_off', channel=0, note=56, velocity=64, time=3),\n",
       "   Message('note_off', channel=0, note=66, velocity=64, time=1),\n",
       "   Message('note_off', channel=1, note=49, velocity=64, time=16),\n",
       "   Message('note_off', channel=2, note=83, velocity=64, time=1),\n",
       "   Message('note_on', channel=2, note=79, velocity=103, time=4),\n",
       "   Message('note_on', channel=1, note=48, velocity=93, time=0),\n",
       "   Message('note_on', channel=9, note=51, velocity=95, time=1),\n",
       "   Message('note_off', channel=9, note=51, velocity=64, time=1),\n",
       "   Message('note_on', channel=9, note=40, velocity=81, time=57),\n",
       "   Message('note_off', channel=9, note=40, velocity=64, time=1),\n",
       "   Message('note_on', channel=9, note=49, velocity=97, time=0),\n",
       "   Message('note_off', channel=9, note=49, velocity=64, time=1),\n",
       "   Message('note_off', channel=2, note=79, velocity=64, time=21),\n",
       "   Message('note_off', channel=1, note=48, velocity=64, time=9),\n",
       "   Message('note_on', channel=2, note=84, velocity=115, time=5),\n",
       "   Message('note_on', channel=0, note=56, velocity=81, time=0),\n",
       "   Message('note_on', channel=0, note=66, velocity=86, time=0),\n",
       "   Message('note_on', channel=0, note=61, velocity=77, time=0),\n",
       "   Message('note_on', channel=1, note=44, velocity=89, time=0),\n",
       "   Message('note_on', channel=9, note=44, velocity=60, time=1),\n",
       "   Message('note_on', channel=9, note=51, velocity=95, time=0),\n",
       "   Message('note_off', channel=9, note=51, velocity=64, time=1),\n",
       "   Message('note_off', channel=9, note=44, velocity=64, time=0),\n",
       "   Message('note_off', channel=2, note=84, velocity=64, time=43),\n",
       "   Message('note_off', channel=0, note=61, velocity=64, time=14),\n",
       "   Message('note_off', channel=0, note=66, velocity=64, time=0),\n",
       "   Message('note_off', channel=0, note=56, velocity=64, time=0),\n",
       "   Message('note_on', channel=2, note=81, velocity=81, time=0),\n",
       "   Message('note_on', channel=0, note=58, velocity=78, time=0),\n",
       "   Message('note_on', channel=0, note=63, velocity=85, time=0),\n",
       "   Message('note_on', channel=0, note=68, velocity=96, time=0),\n",
       "   Message('note_off', channel=0, note=68, velocity=64, time=21),\n",
       "   Message('note_off', channel=0, note=63, velocity=64, time=3),\n",
       "   Message('note_off', channel=0, note=58, velocity=64, time=4),\n",
       "   Message('note_off', channel=1, note=44, velocity=64, time=4),\n",
       "   Message('note_on', channel=2, note=77, velocity=97, time=5),\n",
       "   Message('note_on', channel=1, note=46, velocity=97, time=0),\n",
       "   Message('note_on', channel=9, note=51, velocity=75, time=1),\n",
       "   Message('note_off', channel=9, note=51, velocity=64, time=1),\n",
       "   Message('note_off', channel=2, note=81, velocity=64, time=1),\n",
       "   Message('note_off', channel=2, note=77, velocity=64, time=45),\n",
       "   Message('note_on', channel=2, note=73, velocity=107, time=8),\n",
       "   Message('note_on', channel=9, note=40, velocity=74, time=3),\n",
       "   Message('note_on', channel=9, note=55, velocity=127, time=0),\n",
       "   Message('note_off', channel=9, note=55, velocity=64, time=1),\n",
       "   Message('note_off', channel=9, note=40, velocity=64, time=0),\n",
       "   Message('note_off', channel=1, note=46, velocity=64, time=31),\n",
       "   Message('note_off', channel=2, note=73, velocity=64, time=0),\n",
       "   Message('note_on', channel=2, note=80, velocity=117, time=5),\n",
       "   Message('note_on', channel=2, note=81, velocity=85, time=0),\n",
       "   Message('note_on', channel=1, note=51, velocity=95, time=0),\n",
       "   Message('note_off', channel=2, note=81, velocity=64, time=1),\n",
       "   Message('note_on', channel=9, note=44, velocity=60, time=0),\n",
       "   Message('note_on', channel=9, note=55, velocity=110, time=0),\n",
       "   Message('note_off', channel=9, note=55, velocity=64, time=1),\n",
       "   Message('note_off', channel=9, note=44, velocity=64, time=0),\n",
       "   Message('note_off', channel=2, note=80, velocity=64, time=56),\n",
       "   Message('note_on', channel=9, note=40, velocity=100, time=2),\n",
       "   Message('note_off', channel=9, note=40, velocity=64, time=1),\n",
       "   Message('note_off', channel=1, note=51, velocity=64, time=30),\n",
       "   Message('note_on', channel=2, note=80, velocity=119, time=5),\n",
       "   Message('note_on', channel=1, note=44, velocity=83, time=0),\n",
       "   Message('note_on', channel=9, note=51, velocity=70, time=1),\n",
       "   Message('note_off', channel=9, note=51, velocity=64, time=1),\n",
       "   Message('note_on', channel=2, note=79, velocity=80, time=38),\n",
       "   Message('note_off', channel=2, note=80, velocity=64, time=12),\n",
       "   Message('note_on', channel=0, note=61, velocity=96, time=4),\n",
       "   Message('note_on', channel=0, note=66, velocity=94, time=0),\n",
       "   Message('note_on', channel=0, note=56, velocity=79, time=0),\n",
       "   Message('note_on', channel=9, note=40, velocity=82, time=3),\n",
       "   Message('note_off', channel=9, note=40, velocity=64, time=1),\n",
       "   Message('note_off', channel=0, note=61, velocity=64, time=11),\n",
       "   Message('note_off', channel=0, note=66, velocity=64, time=2),\n",
       "   Message('note_off', channel=0, note=56, velocity=64, time=0),\n",
       "   Message('note_off', channel=2, note=79, velocity=64, time=8),\n",
       "   Message('note_off', channel=1, note=44, velocity=64, time=10),\n",
       "   Message('note_on', channel=2, note=77, velocity=86, time=5),\n",
       "   Message('note_on', channel=1, note=49, velocity=95, time=0),\n",
       "   Message('note_on', channel=9, note=44, velocity=60, time=1),\n",
       "   Message('note_on', channel=9, note=51, velocity=73, time=0),\n",
       "   Message('note_off', channel=9, note=51, velocity=64, time=1),\n",
       "   Message('note_off', channel=9, note=44, velocity=64, time=0),\n",
       "   Message('note_off', channel=2, note=77, velocity=64, time=37),\n",
       "   Message('note_on', channel=2, note=73, velocity=127, time=17),\n",
       "   Message('note_on', channel=9, note=49, velocity=120, time=4),\n",
       "   Message('note_on', channel=9, note=35, velocity=95, time=0),\n",
       "   Message('note_off', channel=9, note=35, velocity=64, time=1),\n",
       "   Message('note_off', channel=9, note=49, velocity=64, time=0),\n",
       "   Message('note_off', channel=1, note=49, velocity=64, time=30),\n",
       "   Message('note_on', channel=0, note=69, velocity=113, time=5),\n",
       "   Message('note_on', channel=1, note=42, velocity=92, time=0),\n",
       "   Message('note_on', channel=9, note=51, velocity=73, time=1),\n",
       "   Message('note_off', channel=9, note=51, velocity=64, time=1),\n",
       "   Message('note_off', channel=2, note=73, velocity=64, time=5),\n",
       "   Message('note_on', channel=9, note=40, velocity=50, time=25),\n",
       "   Message('note_off', channel=9, note=40, velocity=64, time=1),\n",
       "   Message('note_off', channel=0, note=69, velocity=64, time=17),\n",
       "   Message('note_on', channel=0, note=68, velocity=125, time=6),\n",
       "   Message('note_on', channel=9, note=40, velocity=83, time=3),\n",
       "   Message('note_off', channel=9, note=40, velocity=64, time=1),\n",
       "   Message('note_off', channel=1, note=42, velocity=64, time=31),\n",
       "   Message('note_on', channel=0, note=66, velocity=121, time=5),\n",
       "   Message('note_on', channel=1, note=48, velocity=85, time=0),\n",
       "   Message('note_on', channel=9, note=44, velocity=60, time=1),\n",
       "   Message('note_on', channel=9, note=51, velocity=95, time=0),\n",
       "   Message('note_off', channel=9, note=51, velocity=64, time=1),\n",
       "   Message('note_off', channel=9, note=44, velocity=64, time=0),\n",
       "   Message('note_off', channel=0, note=68, velocity=64, time=4),\n",
       "   Message('note_on', channel=9, note=40, velocity=50, time=26),\n",
       "   Message('note_off', channel=9, note=40, velocity=64, time=1),\n",
       "   Message('note_off', channel=0, note=66, velocity=64, time=11),\n",
       "   Message('note_on', channel=0, note=65, velocity=117, time=12),\n",
       "   Message('note_on', channel=0, note=63, velocity=98, time=0),\n",
       "   Message('note_on', channel=0, note=58, velocity=96, time=0),\n",
       "   Message('note_on', channel=0, note=53, velocity=89, time=0),\n",
       "   Message('note_on', channel=9, note=40, velocity=59, time=3),\n",
       "   Message('note_on', channel=9, note=49, velocity=100, time=0),\n",
       "   Message('note_off', channel=9, note=49, velocity=64, time=1),\n",
       "   Message('note_off', channel=9, note=40, velocity=64, time=0),\n",
       "   Message('note_off', channel=0, note=53, velocity=64, time=11),\n",
       "   Message('note_off', channel=0, note=58, velocity=64, time=1),\n",
       "   Message('note_off', channel=0, note=63, velocity=64, time=0),\n",
       "   Message('note_off', channel=1, note=48, velocity=64, time=19),\n",
       "   Message('note_on', channel=0, note=63, velocity=127, time=5),\n",
       "   Message('note_on', channel=1, note=46, velocity=97, time=0),\n",
       "   Message('note_off', channel=0, note=65, velocity=64, time=9),\n",
       "   Message('note_off', channel=0, note=63, velocity=64, time=41),\n",
       "   Message('note_on', channel=0, note=61, velocity=119, time=6),\n",
       "   Message('note_on', channel=9, note=35, velocity=82, time=3),\n",
       "   Message('note_on', channel=9, note=57, velocity=100, time=0),\n",
       "   Message('note_off', channel=9, note=57, velocity=64, time=1),\n",
       "   Message('note_off', channel=9, note=35, velocity=64, time=0),\n",
       "   Message('note_off', channel=1, note=46, velocity=64, time=31),\n",
       "   Message('note_off', channel=0, note=61, velocity=64, time=5),\n",
       "   Message('note_on', channel=1, note=42, velocity=97, time=0),\n",
       "   Message('note_on', channel=9, note=44, velocity=60, time=1),\n",
       "   Message('note_on', channel=9, note=45, velocity=80, time=0),\n",
       "   Message('note_off', channel=9, note=45, velocity=64, time=1),\n",
       "   Message('note_off', channel=9, note=44, velocity=64, time=0),\n",
       "   Message('note_on', channel=9, note=40, velocity=50, time=30),\n",
       "   Message('note_off', channel=9, note=40, velocity=64, time=1),\n",
       "   Message('note_on', channel=0, note=43, velocity=127, time=23),\n",
       "   Message('note_on', channel=0, note=36, velocity=127, time=0),\n",
       "   Message('note_on', channel=0, note=60, velocity=127, time=0),\n",
       "   Message('note_off', channel=1, note=42, velocity=64, time=3),\n",
       "   Message('note_on', channel=9, note=40, velocity=113, time=0),\n",
       "   Message('note_off', channel=9, note=40, velocity=64, time=1),\n",
       "   Message('note_on', channel=9, note=49, velocity=120, time=0),\n",
       "   Message('note_on', channel=9, note=35, velocity=110, time=0),\n",
       "   Message('note_on', channel=1, note=36, velocity=97, time=0),\n",
       "   Message('note_off', channel=9, note=35, velocity=64, time=1),\n",
       "   Message('note_off', channel=9, note=49, velocity=64, time=0),\n",
       "   Message('note_off', channel=1, note=36, velocity=64, time=129),\n",
       "   Message('note_on', channel=1, note=43, velocity=110, time=2),\n",
       "   Message('note_on', channel=9, note=44, velocity=60, time=1),\n",
       "   Message('note_on', channel=9, note=51, velocity=85, time=0),\n",
       "   Message('note_off', channel=9, note=51, velocity=64, time=1),\n",
       "   Message('note_off', channel=9, note=44, velocity=64, time=0),\n",
       "   Message('note_off', channel=0, note=60, velocity=64, time=62),\n",
       "   Message('note_off', channel=1, note=43, velocity=64, time=32),\n",
       "   Message('note_on', channel=1, note=50, velocity=110, time=0),\n",
       "   Message('note_on', channel=9, note=51, velocity=85, time=1),\n",
       "   Message('note_off', channel=9, note=51, velocity=64, time=1),\n",
       "   Message('note_on', channel=0, note=62, velocity=127, time=54),\n",
       "   Message('note_on', channel=9, note=40, velocity=83, time=3),\n",
       "   Message('note_off', channel=9, note=40, velocity=64, time=1),\n",
       "   Message('note_off', channel=1, note=50, velocity=64, time=36),\n",
       "   Message('note_off', channel=0, note=62, velocity=64, time=0),\n",
       "   Message('note_on', channel=0, note=58, velocity=109, time=0),\n",
       "   Message('note_on', channel=1, note=49, velocity=93, time=0),\n",
       "   Message('note_on', channel=9, note=44, velocity=58, time=1),\n",
       "   Message('note_on', channel=9, note=55, velocity=120, time=0),\n",
       "   Message('note_off', channel=9, note=55, velocity=64, time=1),\n",
       "   Message('note_off', channel=9, note=44, velocity=64, time=0),\n",
       "   Message('note_off', channel=0, note=58, velocity=64, time=38),\n",
       "   Message('note_on', channel=0, note=57, velocity=96, time=16),\n",
       "   Message('note_on', channel=9, note=51, velocity=61, time=4),\n",
       "   Message('note_off', channel=9, note=51, velocity=64, time=1),\n",
       "   Message('note_off', channel=0, note=57, velocity=64, time=28),\n",
       "   Message('note_off', channel=1, note=49, velocity=64, time=2),\n",
       "   Message('note_on', channel=0, note=60, velocity=85, time=5),\n",
       "   Message('note_on', channel=1, note=48, velocity=95, time=0),\n",
       "   Message('note_on', channel=9, note=51, velocity=78, time=1),\n",
       "   Message('note_off', channel=9, note=51, velocity=64, time=1),\n",
       "   Message('note_off', channel=0, note=60, velocity=64, time=37),\n",
       "   Message('note_on', channel=9, note=40, velocity=86, time=20),\n",
       "   Message('note_on', channel=0, note=62, velocity=80, time=0),\n",
       "   Message('note_off', channel=9, note=40, velocity=64, time=1),\n",
       "   Message('note_off', channel=1, note=48, velocity=64, time=31),\n",
       "   Message('note_on', channel=0, note=63, velocity=127, time=5),\n",
       "   Message('note_on', channel=1, note=41, velocity=95, time=0),\n",
       "   Message('note_on', channel=9, note=44, velocity=60, time=1),\n",
       "   Message('note_on', channel=9, note=51, velocity=80, time=0),\n",
       "   Message('note_off', channel=9, note=51, velocity=64, time=1),\n",
       "   Message('note_off', channel=9, note=44, velocity=64, time=0),\n",
       "   Message('note_off', channel=0, note=62, velocity=64, time=6),\n",
       "   Message('note_off', channel=0, note=36, velocity=64, time=5),\n",
       "   Message('note_off', channel=0, note=43, velocity=64, time=6),\n",
       "   Message('note_off', channel=0, note=63, velocity=64, time=10),\n",
       "   Message('note_on', channel=0, note=65, velocity=113, time=30),\n",
       "   Message('note_off', channel=1, note=41, velocity=64, time=32),\n",
       "   Message('note_on', channel=0, note=67, velocity=110, time=5),\n",
       "   Message('note_on', channel=1, note=42, velocity=97, time=0),\n",
       "   Message('note_off', channel=0, note=65, velocity=64, time=1),\n",
       "   Message('note_on', channel=9, note=57, velocity=99, time=0),\n",
       "   Message('note_off', channel=9, note=57, velocity=64, time=1),\n",
       "   Message('note_on', channel=9, note=40, velocity=64, time=30),\n",
       "   Message('note_off', channel=9, note=40, velocity=64, time=1),\n",
       "   Message('note_off', channel=0, note=67, velocity=64, time=12),\n",
       "   Message('note_on', channel=2, note=70, velocity=127, time=14),\n",
       "   Message('note_on', channel=9, note=40, velocity=64, time=5),\n",
       "   Message('note_off', channel=9, note=40, velocity=64, time=1),\n",
       "   Message('note_off', channel=1, note=42, velocity=64, time=26),\n",
       "   Message('note_off', channel=2, note=70, velocity=64, time=2),\n",
       "   Message('note_on', channel=2, note=72, velocity=95, time=3),\n",
       "   Message('note_on', channel=1, note=43, velocity=97, time=0),\n",
       "   Message('note_on', channel=9, note=44, velocity=60, time=1),\n",
       "   Message('note_on', channel=9, note=51, velocity=80, time=0),\n",
       "   Message('note_off', channel=9, note=51, velocity=64, time=1),\n",
       "   Message('note_off', channel=9, note=44, velocity=64, time=0),\n",
       "   Message('note_off', channel=2, note=72, velocity=64, time=44),\n",
       "   Message('note_on', channel=2, note=74, velocity=81, time=13),\n",
       "   Message('note_on', channel=9, note=49, velocity=90, time=1),\n",
       "   Message('note_on', channel=9, note=35, velocity=100, time=0),\n",
       "   Message('note_off', channel=9, note=49, velocity=64, time=1),\n",
       "   Message('note_off', channel=9, note=35, velocity=64, time=1),\n",
       "   Message('note_off', channel=1, note=43, velocity=64, time=29),\n",
       "   Message('note_on', channel=2, note=75, velocity=103, time=5),\n",
       "   Message('note_on', channel=1, note=46, velocity=95, time=0),\n",
       "   Message('note_on', channel=9, note=51, velocity=73, time=1),\n",
       "   Message('note_off', channel=9, note=51, velocity=64, time=1),\n",
       "   Message('note_off', channel=2, note=74, velocity=64, time=1),\n",
       "   Message('note_off', channel=2, note=75, velocity=64, time=38),\n",
       "   Message('note_on', channel=2, note=77, velocity=93, time=18),\n",
       "   Message('note_off', channel=1, note=46, velocity=64, time=32),\n",
       "   Message('note_on', channel=2, note=79, velocity=101, time=5),\n",
       "   Message('note_on', channel=1, note=43, velocity=97, time=0),\n",
       "   Message('note_on', channel=9, note=44, velocity=60, time=1),\n",
       "   Message('note_on', channel=9, note=51, velocity=78, time=0),\n",
       "   Message('note_off', channel=9, note=51, velocity=64, time=1),\n",
       "   Message('note_off', channel=9, note=44, velocity=64, time=0),\n",
       "   Message('note_off', channel=2, note=77, velocity=64, time=11),\n",
       "   Message('note_off', channel=2, note=79, velocity=64, time=29),\n",
       "   Message('note_on', channel=2, note=82, velocity=125, time=17),\n",
       "   Message('note_off', channel=1, note=43, velocity=64, time=32),\n",
       "   Message('note_on', channel=2, note=79, velocity=92, time=5),\n",
       "   Message('note_on', channel=1, note=47, velocity=95, time=0),\n",
       "   Message('note_on', channel=9, note=51, velocity=80, time=1),\n",
       "   Message('note_off', channel=9, note=51, velocity=64, time=1),\n",
       "   Message('note_off', channel=2, note=82, velocity=64, time=3),\n",
       "   Message('note_on', channel=9, note=40, velocity=100, time=54),\n",
       "   Message('note_on', channel=9, note=52, velocity=110, time=0),\n",
       "   Message('note_off', channel=9, note=52, velocity=64, time=1),\n",
       "   Message('note_off', channel=9, note=40, velocity=64, time=0),\n",
       "   Message('note_off', channel=2, note=79, velocity=64, time=22),\n",
       "   Message('note_off', channel=1, note=47, velocity=64, time=9),\n",
       "   Message('note_on', channel=2, note=82, velocity=127, time=5),\n",
       "   Message('note_on', channel=0, note=50, velocity=66, time=0),\n",
       "   Message('note_on', channel=0, note=60, velocity=85, time=0),\n",
       "   Message('note_on', channel=0, note=55, velocity=84, time=0),\n",
       "   Message('note_on', channel=1, note=48, velocity=97, time=0),\n",
       "   Message('note_on', channel=9, note=44, velocity=60, time=1),\n",
       "   Message('note_on', channel=9, note=51, velocity=73, time=0),\n",
       "   Message('note_off', channel=9, note=51, velocity=64, time=1),\n",
       "   Message('note_off', channel=9, note=44, velocity=64, time=0),\n",
       "   Message('note_off', channel=0, note=55, velocity=64, time=13),\n",
       "   Message('note_off', channel=0, note=50, velocity=64, time=0),\n",
       "   Message('note_off', channel=0, note=60, velocity=64, time=1),\n",
       "   Message('note_on', channel=2, note=79, velocity=83, time=43),\n",
       "   Message('note_on', channel=9, note=40, velocity=93, time=0),\n",
       "   Message('note_off', channel=9, note=40, velocity=64, time=1),\n",
       "   Message('note_on', channel=9, note=55, velocity=120, time=0),\n",
       "   Message('note_off', channel=9, note=55, velocity=64, time=1),\n",
       "   Message('note_off', channel=2, note=82, velocity=64, time=0),\n",
       "   Message('note_off', channel=1, note=48, velocity=64, time=30),\n",
       "   Message('note_on', channel=1, note=43, velocity=97, time=5),\n",
       "   Message('note_on', channel=9, note=51, velocity=75, time=1),\n",
       "   Message('note_off', channel=9, note=51, velocity=64, time=1),\n",
       "   Message('note_off', channel=2, note=79, velocity=64, time=46),\n",
       "   Message('note_on', channel=2, note=82, velocity=127, time=11),\n",
       "   Message('note_on', channel=9, note=40, velocity=100, time=1),\n",
       "   Message('note_on', channel=9, note=49, velocity=100, time=0),\n",
       "   Message('note_off', channel=9, note=49, velocity=64, time=1),\n",
       "   Message('note_off', channel=9, note=40, velocity=64, time=0),\n",
       "   Message('note_off', channel=1, note=43, velocity=64, time=29),\n",
       "   Message('note_off', channel=2, note=82, velocity=64, time=1),\n",
       "   Message('note_on', channel=2, note=79, velocity=86, time=5),\n",
       "   Message('note_on', channel=1, note=41, velocity=97, time=0),\n",
       "   Message('note_on', channel=9, note=44, velocity=58, time=1),\n",
       "   Message('note_on', channel=9, note=51, velocity=80, time=0),\n",
       "   Message('note_off', channel=9, note=51, velocity=64, time=1),\n",
       "   Message('note_off', channel=9, note=44, velocity=64, time=0),\n",
       "   Message('note_off', channel=2, note=79, velocity=64, time=74),\n",
       "   Message('note_off', channel=1, note=41, velocity=64, time=15),\n",
       "   Message('note_on', channel=2, note=82, velocity=125, time=5),\n",
       "   Message('note_on', channel=0, note=68, velocity=127, time=0),\n",
       "   Message('note_on', channel=0, note=63, velocity=127, time=0),\n",
       "   Message('note_on', channel=0, note=57, velocity=123, time=0),\n",
       "   Message('note_on', channel=0, note=59, velocity=80, time=0),\n",
       "   Message('note_on', channel=1, note=39, velocity=95, time=0),\n",
       "   Message('note_off', channel=0, note=59, velocity=64, time=1),\n",
       "   Message('note_on', channel=9, note=49, velocity=100, time=0),\n",
       "   Message('note_off', channel=9, note=49, velocity=64, time=1),\n",
       "   Message('note_on', channel=2, note=79, velocity=85, time=57),\n",
       "   Message('note_on', channel=9, note=40, velocity=58, time=0),\n",
       "   Message('note_off', channel=9, note=40, velocity=64, time=1),\n",
       "   Message('note_off', channel=2, note=82, velocity=64, time=2),\n",
       "   Message('note_off', channel=1, note=39, velocity=64, time=29),\n",
       "   Message('note_off', channel=0, note=57, velocity=64, time=2),\n",
       "   Message('note_on', channel=1, note=38, velocity=95, time=3),\n",
       "   Message('note_off', channel=0, note=63, velocity=64, time=1),\n",
       "   Message('note_on', channel=9, note=44, velocity=60, time=0),\n",
       "   Message('note_on', channel=9, note=51, velocity=78, time=0),\n",
       "   Message('note_off', channel=9, note=51, velocity=64, time=1),\n",
       "   Message('note_off', channel=9, note=44, velocity=64, time=0),\n",
       "   Message('note_off', channel=0, note=68, velocity=64, time=8),\n",
       "   Message('note_off', channel=2, note=79, velocity=64, time=26),\n",
       "   Message('note_on', channel=2, note=82, velocity=125, time=23),\n",
       "   Message('note_on', channel=9, note=40, velocity=60, time=0),\n",
       "   Message('note_on', channel=0, note=56, velocity=127, time=0),\n",
       "   Message('note_on', channel=0, note=62, velocity=123, time=0),\n",
       "   Message('note_on', channel=0, note=67, velocity=127, time=0),\n",
       "   Message('note_off', channel=9, note=40, velocity=64, time=1),\n",
       "   Message('note_on', channel=9, note=51, velocity=81, time=0),\n",
       "   Message('note_off', channel=9, note=51, velocity=64, time=1),\n",
       "   Message('note_off', channel=2, note=82, velocity=64, time=29),\n",
       "   Message('note_off', channel=1, note=38, velocity=64, time=1),\n",
       "   Message('note_on', channel=2, note=79, velocity=87, time=5),\n",
       "   Message('note_on', channel=1, note=36, velocity=97, time=0),\n",
       "   Message('note_on', channel=9, note=51, velocity=78, time=1),\n",
       "   Message('note_off', channel=9, note=51, velocity=64, time=1),\n",
       "   Message('note_off', channel=0, note=62, velocity=64, time=44),\n",
       "   Message('note_off', channel=0, note=67, velocity=64, time=9),\n",
       "   Message('note_off', channel=0, note=56, velocity=64, time=0),\n",
       "   Message('note_off', channel=2, note=79, velocity=64, time=27),\n",
       "   Message('note_off', channel=1, note=36, velocity=64, time=9),\n",
       "   Message('note_on', channel=2, note=82, velocity=125, time=5),\n",
       "   Message('note_on', channel=9, note=40, velocity=77, time=0),\n",
       "   Message('note_on', channel=0, note=66, velocity=127, time=0),\n",
       "   Message('note_on', channel=0, note=61, velocity=127, time=0),\n",
       "   Message('note_on', channel=0, note=55, velocity=127, time=0),\n",
       "   Message('note_on', channel=1, note=34, velocity=97, time=0),\n",
       "   Message('note_off', channel=9, note=40, velocity=64, time=1),\n",
       "   Message('note_on', channel=9, note=44, velocity=60, time=0),\n",
       "   Message('note_on', channel=9, note=49, velocity=70, time=0),\n",
       "   Message('note_off', channel=9, note=49, velocity=64, time=1),\n",
       "   Message('note_off', channel=9, note=44, velocity=64, time=0),\n",
       "   Message('note_on', channel=2, note=79, velocity=78, time=57),\n",
       "   Message('note_off', channel=2, note=82, velocity=64, time=12),\n",
       "   Message('note_off', channel=1, note=34, velocity=64, time=20),\n",
       "   Message('note_on', channel=1, note=36, velocity=95, time=5),\n",
       "   Message('note_on', channel=9, note=51, velocity=75, time=1),\n",
       "   Message('note_off', channel=9, note=51, velocity=64, time=1),\n",
       "   Message('note_off', channel=0, note=55, velocity=64, time=2),\n",
       "   Message('note_off', channel=0, note=61, velocity=64, time=9),\n",
       "   Message('note_off', channel=0, note=66, velocity=64, time=8),\n",
       "   Message('note_off', channel=2, note=79, velocity=64, time=18),\n",
       "   Message('note_on', channel=2, note=82, velocity=126, time=20),\n",
       "   Message('note_on', channel=9, note=40, velocity=90, time=0),\n",
       "   Message('note_on', channel=0, note=54, velocity=127, time=0),\n",
       "   Message('note_on', channel=0, note=65, velocity=127, time=0),\n",
       "   Message('note_on', channel=0, note=60, velocity=127, time=0),\n",
       "   Message('note_off', channel=9, note=40, velocity=64, time=1),\n",
       "   Message('note_on', channel=9, note=57, velocity=95, time=0),\n",
       "   Message('note_off', channel=9, note=57, velocity=64, time=1),\n",
       "   Message('note_off', channel=1, note=36, velocity=64, time=30),\n",
       "   Message('note_off', channel=2, note=82, velocity=64, time=4),\n",
       "   Message('note_on', channel=2, note=79, velocity=75, time=1),\n",
       "   Message('note_on', channel=1, note=48, velocity=97, time=0),\n",
       "   Message('note_on', channel=9, note=44, velocity=58, time=1),\n",
       "   Message('note_off', channel=9, note=44, velocity=64, time=1),\n",
       "   Message('note_on', channel=9, note=40, velocity=64, time=30),\n",
       "   Message('note_off', channel=9, note=40, velocity=64, time=22),\n",
       "   Message('note_off', channel=0, note=60, velocity=64, time=2),\n",
       "   Message('note_off', channel=0, note=65, velocity=64, time=3),\n",
       "   Message('note_off', channel=0, note=54, velocity=64, time=0),\n",
       "   Message('note_on', channel=9, note=51, velocity=61, time=1),\n",
       "   Message('note_off', channel=9, note=51, velocity=64, time=1),\n",
       "   Message('note_off', channel=2, note=79, velocity=64, time=16),\n",
       "   Message('note_off', channel=1, note=48, velocity=64, time=14),\n",
       "   Message('note_on', channel=2, note=82, velocity=125, time=5),\n",
       "   Message('note_on', channel=9, note=40, velocity=95, time=0),\n",
       "   Message('note_on', channel=0, note=64, velocity=127, time=0),\n",
       "   Message('note_on', channel=0, note=59, velocity=127, time=0),\n",
       "   Message('note_on', channel=0, note=53, velocity=127, time=0),\n",
       "   Message('note_on', channel=1, note=36, velocity=95, time=0),\n",
       "   Message('note_off', channel=9, note=40, velocity=64, time=1),\n",
       "   Message('note_on', channel=9, note=52, velocity=110, time=0),\n",
       "   Message('note_off', channel=9, note=52, velocity=64, time=1),\n",
       "   Message('note_on', channel=2, note=79, velocity=60, time=57),\n",
       "   Message('note_off', channel=2, note=82, velocity=64, time=7),\n",
       "   Message('note_off', channel=1, note=36, velocity=64, time=24),\n",
       "   Message('note_off', channel=0, note=53, velocity=64, time=0),\n",
       "   Message('note_off', channel=0, note=59, velocity=64, time=5),\n",
       "   Message('note_on', channel=1, note=46, velocity=92, time=1),\n",
       "   Message('note_on', channel=9, note=44, velocity=60, time=1),\n",
       "   Message('note_on', channel=9, note=51, velocity=78, time=0),\n",
       "   Message('note_off', channel=9, note=51, velocity=64, time=1),\n",
       "   Message('note_off', channel=9, note=44, velocity=64, time=0),\n",
       "   Message('note_off', channel=0, note=64, velocity=64, time=11),\n",
       "   Message('note_off', channel=2, note=79, velocity=64, time=30),\n",
       "   Message('note_on', channel=2, note=82, velocity=127, time=16),\n",
       "   Message('note_on', channel=9, note=40, velocity=83, time=0),\n",
       "   Message('note_on', channel=9, note=55, velocity=120, time=0),\n",
       "   Message('note_on', channel=0, note=63, velocity=127, time=0),\n",
       "   Message('note_on', channel=0, note=58, velocity=127, time=0),\n",
       "   Message('note_on', channel=0, note=52, velocity=125, time=0),\n",
       "   Message('note_off', channel=9, note=55, velocity=64, time=1),\n",
       "   Message('note_off', channel=9, note=40, velocity=64, time=0),\n",
       "   Message('note_off', channel=1, note=46, velocity=64, time=31),\n",
       "   Message('note_off', channel=2, note=82, velocity=64, time=3),\n",
       "   Message('note_on', channel=2, note=79, velocity=77, time=2),\n",
       "   Message('note_on', channel=1, note=36, velocity=90, time=0),\n",
       "   Message('note_on', channel=9, note=51, velocity=73, time=1),\n",
       "   Message('note_off', channel=9, note=51, velocity=64, time=1),\n",
       "   Message('note_off', channel=0, note=52, velocity=64, time=47),\n",
       "   Message('note_off', channel=0, note=58, velocity=64, time=8),\n",
       "   Message('note_off', channel=0, note=63, velocity=64, time=4),\n",
       "   Message('note_off', channel=2, note=79, velocity=64, time=16),\n",
       "   Message('note_off', channel=1, note=36, velocity=64, time=14),\n",
       "   Message('note_on', channel=2, note=82, velocity=123, time=5),\n",
       "   Message('note_on', channel=9, note=40, velocity=93, time=0),\n",
       "   Message('note_on', channel=0, note=60, velocity=127, time=0),\n",
       "   Message('note_on', channel=0, note=55, velocity=127, time=0),\n",
       "   Message('note_on', channel=0, note=48, velocity=127, time=0),\n",
       "   Message('note_on', channel=1, note=45, velocity=95, time=0),\n",
       "   Message('note_off', channel=9, note=40, velocity=64, time=1),\n",
       "   Message('note_on', channel=9, note=44, velocity=60, time=0),\n",
       "   Message('note_on', channel=9, note=51, velocity=80, time=0),\n",
       "   Message('note_off', channel=9, note=51, velocity=64, time=1),\n",
       "   Message('note_off', channel=9, note=44, velocity=64, time=0),\n",
       "   Message('note_on', channel=9, note=40, velocity=64, time=30),\n",
       "   Message('note_off', channel=9, note=40, velocity=64, time=2),\n",
       "   Message('note_off', channel=2, note=82, velocity=64, time=21),\n",
       "   Message('note_on', channel=2, note=79, velocity=76, time=4),\n",
       "   Message('note_on', channel=9, note=51, velocity=62, time=1),\n",
       "   Message('note_off', channel=9, note=51, velocity=64, time=1),\n",
       "   Message('note_off', channel=0, note=55, velocity=64, time=19),\n",
       "   Message('note_off', channel=0, note=48, velocity=64, time=7),\n",
       "   Message('note_off', channel=1, note=45, velocity=64, time=4),\n",
       "   Message('note_off', channel=0, note=60, velocity=64, time=5),\n",
       "   Message('note_on', channel=9, note=35, velocity=76, time=0),\n",
       "   Message('note_on', channel=1, note=36, velocity=95, time=0),\n",
       "   Message('note_off', channel=9, note=35, velocity=64, time=1),\n",
       "   Message('note_on', channel=9, note=51, velocity=68, time=0),\n",
       "   Message('note_off', channel=9, note=51, velocity=64, time=1),\n",
       "   Message('note_on', channel=9, note=40, velocity=64, time=30),\n",
       "   Message('note_off', channel=9, note=40, velocity=64, time=2),\n",
       "   Message('note_off', channel=2, note=79, velocity=64, time=7),\n",
       "   Message('note_on', channel=2, note=82, velocity=127, time=18),\n",
       "   Message('note_on', channel=9, note=40, velocity=93, time=0),\n",
       "   Message('note_on', channel=9, note=49, velocity=100, time=0),\n",
       "   Message('note_on', channel=0, note=58, velocity=127, time=0),\n",
       "   Message('note_on', channel=0, note=53, velocity=127, time=0),\n",
       "   Message('note_on', channel=0, note=48, velocity=127, time=0),\n",
       "   Message('note_off', channel=9, note=49, velocity=64, time=1),\n",
       "   Message('note_off', channel=9, note=40, velocity=64, time=0),\n",
       "   Message('note_off', channel=1, note=36, velocity=64, time=31),\n",
       "   Message('note_off', channel=2, note=82, velocity=64, time=3),\n",
       "   Message('note_on', channel=2, note=79, velocity=78, time=2),\n",
       "   Message('note_on', channel=1, note=43, velocity=97, time=0),\n",
       "   Message('note_on', channel=9, note=44, velocity=60, time=1),\n",
       "   Message('note_on', channel=9, note=51, velocity=85, time=0),\n",
       "   Message('note_off', channel=9, note=51, velocity=64, time=1),\n",
       "   Message('note_off', channel=9, note=44, velocity=64, time=0),\n",
       "   Message('note_off', channel=0, note=48, velocity=64, time=20),\n",
       "   Message('note_off', channel=0, note=53, velocity=64, time=9),\n",
       "   Message('note_off', channel=0, note=58, velocity=64, time=10),\n",
       "   Message('note_on', channel=9, note=35, velocity=97, time=18),\n",
       "   Message('note_off', channel=9, note=35, velocity=64, time=1),\n",
       "   Message('note_on', channel=9, note=51, velocity=70, time=0),\n",
       "   Message('note_off', channel=9, note=51, velocity=64, time=1),\n",
       "   Message('note_off', channel=2, note=79, velocity=64, time=7),\n",
       "   Message('note_off', channel=1, note=43, velocity=64, time=23),\n",
       "   Message('note_on', channel=2, note=82, velocity=127, time=5),\n",
       "   Message('note_on', channel=9, note=40, velocity=92, time=0),\n",
       "   Message('note_on', channel=9, note=52, velocity=110, time=0),\n",
       "   Message('note_on', channel=0, note=65, velocity=127, time=0),\n",
       "   Message('note_on', channel=0, note=55, velocity=127, time=0),\n",
       "   Message('note_on', channel=1, note=36, velocity=90, time=0),\n",
       "   Message('note_off', channel=9, note=52, velocity=64, time=1),\n",
       "   Message('note_off', channel=9, note=40, velocity=64, time=0),\n",
       "   Message('note_on', channel=0, note=60, velocity=127, time=36),\n",
       "   Message('note_off', channel=0, note=55, velocity=64, time=10),\n",
       "   Message('note_off', channel=2, note=82, velocity=64, time=12),\n",
       "   Message('note_on', channel=2, note=79, velocity=74, time=0),\n",
       "   Message('note_off', channel=0, note=65, velocity=64, time=1),\n",
       "   Message('note_on', channel=9, note=51, velocity=61, time=0),\n",
       "   Message('note_off', channel=9, note=51, velocity=64, time=1),\n",
       "   Message('note_off', channel=0, note=60, velocity=64, time=20),\n",
       "   Message('note_off', channel=1, note=36, velocity=64, time=9),\n",
       "   Message('note_on', channel=9, note=40, velocity=45, time=6),\n",
       "   Message('note_on', channel=1, note=41, velocity=97, time=0),\n",
       "   Message('note_off', channel=9, note=40, velocity=64, time=1),\n",
       "   Message('note_off', channel=2, note=79, velocity=64, time=31),\n",
       "   Message('note_on', channel=9, note=40, velocity=72, time=0),\n",
       "   Message('note_off', channel=9, note=40, velocity=64, time=1),\n",
       "   Message('note_on', channel=2, note=82, velocity=125, time=26),\n",
       "   Message('note_on', channel=0, note=63, velocity=127, time=0),\n",
       "   Message('note_on', channel=0, note=68, velocity=127, time=0),\n",
       "   Message('note_on', channel=0, note=58, velocity=127, time=0),\n",
       "   Message('note_on', channel=9, note=40, velocity=99, time=5),\n",
       "   Message('note_off', channel=9, note=40, velocity=64, time=1),\n",
       "   Message('note_off', channel=1, note=41, velocity=64, time=26),\n",
       "   Message('note_off', channel=2, note=82, velocity=64, time=5),\n",
       "   Message('note_on', channel=2, note=79, velocity=75, time=0),\n",
       "   Message('note_on', channel=9, note=40, velocity=83, time=0),\n",
       "   Message('note_on', channel=1, note=39, velocity=95, time=0),\n",
       "   Message('note_off', channel=9, note=40, velocity=64, time=1),\n",
       "   Message('note_on', channel=9, note=40, velocity=105, time=31),\n",
       "   Message('note_off', channel=9, note=40, velocity=64, time=1),\n",
       "   Message('note_off', channel=0, note=58, velocity=64, time=14),\n",
       "   Message('note_off', channel=0, note=68, velocity=64, time=6),\n",
       "   Message('note_off', channel=0, note=63, velocity=64, time=4),\n",
       "   Message('note_on', channel=0, note=58, velocity=98, time=2),\n",
       "   Message('note_on', channel=0, note=68, velocity=103, time=0),\n",
       "   Message('note_on', channel=0, note=63, velocity=67, time=0),\n",
       "   Message('note_on', channel=9, note=40, velocity=97, time=5),\n",
       "   Message('note_off', channel=9, note=40, velocity=64, time=1),\n",
       "   Message('note_off', channel=2, note=79, velocity=64, time=11),\n",
       "   Message('note_off', channel=0, note=63, velocity=64, time=14),\n",
       "   Message('note_off', channel=1, note=39, velocity=64, time=1),\n",
       "   Message('note_on', channel=2, note=82, velocity=127, time=5),\n",
       "   Message('note_on', channel=9, note=40, velocity=66, time=0),\n",
       "   Message('note_on', channel=1, note=38, velocity=86, time=0),\n",
       "   Message('note_off', channel=9, note=40, velocity=64, time=1),\n",
       "   Message('note_off', channel=0, note=58, velocity=64, time=2),\n",
       "   Message('note_off', channel=0, note=68, velocity=64, time=3),\n",
       "   Message('note_on', channel=9, note=40, velocity=78, time=26),\n",
       "   Message('note_off', channel=9, note=40, velocity=64, time=1),\n",
       "   Message('note_off', channel=2, note=82, velocity=64, time=23),\n",
       "   Message('note_on', channel=2, note=79, velocity=77, time=3),\n",
       "   Message('note_on', channel=0, note=68, velocity=103, time=0),\n",
       "   Message('note_on', channel=0, note=58, velocity=102, time=0),\n",
       "   Message('note_on', channel=0, note=63, velocity=96, time=0),\n",
       "   Message('note_on', channel=9, note=40, velocity=87, time=5),\n",
       "   Message('note_off', channel=9, note=40, velocity=64, time=1),\n",
       "   Message('note_off', channel=1, note=38, velocity=64, time=26),\n",
       "   Message('note_off', channel=0, note=63, velocity=64, time=5),\n",
       "   Message('note_off', channel=0, note=58, velocity=64, time=0),\n",
       "   Message('note_on', channel=2, note=72, velocity=111, time=0),\n",
       "   Message('note_on', channel=9, note=40, velocity=92, time=0),\n",
       "   Message('note_on', channel=1, note=36, velocity=93, time=0),\n",
       "   Message('note_off', channel=9, note=40, velocity=64, time=1),\n",
       "   Message('note_off', channel=0, note=68, velocity=64, time=6),\n",
       "   Message('note_off', channel=2, note=79, velocity=64, time=13),\n",
       "   Message('note_off', channel=2, note=72, velocity=64, time=6),\n",
       "   Message('note_on', channel=2, note=74, velocity=92, time=6),\n",
       "   Message('note_on', channel=9, note=40, velocity=71, time=0),\n",
       "   Message('note_off', channel=9, note=40, velocity=64, time=1),\n",
       "   Message('note_off', channel=2, note=74, velocity=64, time=25),\n",
       "   Message('note_on', channel=2, note=75, velocity=117, time=6),\n",
       "   Message('note_on', channel=9, note=40, velocity=95, time=0),\n",
       "   Message('note_off', channel=9, note=40, velocity=64, time=1),\n",
       "   Message('note_off', channel=2, note=75, velocity=64, time=25),\n",
       "   Message('note_off', channel=1, note=36, velocity=64, time=1),\n",
       "   Message('note_on', channel=2, note=77, velocity=83, time=5),\n",
       "   Message('note_on', channel=2, note=79, velocity=92, time=0),\n",
       "   Message('note_on', channel=9, note=40, velocity=89, time=0),\n",
       "   Message('note_on', channel=1, note=34, velocity=97, time=0),\n",
       "   Message('note_off', channel=9, note=40, velocity=64, time=1),\n",
       "   Message('note_off', channel=2, note=79, velocity=64, time=25),\n",
       "   Message('note_off', channel=2, note=77, velocity=64, time=0),\n",
       "   Message('note_on', channel=2, note=79, velocity=101, time=6),\n",
       "   Message('note_on', channel=9, note=40, velocity=86, time=0),\n",
       "   Message('note_off', channel=9, note=40, velocity=64, time=1),\n",
       "   Message('note_off', channel=2, note=79, velocity=64, time=25),\n",
       "   Message('note_on', channel=2, note=82, velocity=126, time=6),\n",
       "   Message('note_on', channel=9, note=40, velocity=107, time=0),\n",
       "   Message('note_off', channel=9, note=40, velocity=64, time=1),\n",
       "   Message('note_off', channel=2, note=82, velocity=64, time=25),\n",
       "   Message('note_off', channel=1, note=34, velocity=64, time=1),\n",
       "   Message('note_on', channel=2, note=94, velocity=107, time=5),\n",
       "   Message('note_on', channel=2, note=87, velocity=103, time=0),\n",
       "   Message('note_on', channel=2, note=82, velocity=90, time=0),\n",
       "   Message('note_on', channel=2, note=89, velocity=99, time=0),\n",
       "   Message('note_on', channel=9, note=35, velocity=119, time=0),\n",
       "   Message('note_on', channel=9, note=49, velocity=100, time=0),\n",
       "   Message('note_on', channel=9, note=52, velocity=117, time=0),\n",
       "   Message('note_on', channel=0, note=46, velocity=127, time=0),\n",
       "   Message('note_on', channel=0, note=39, velocity=127, time=0),\n",
       "   Message('note_on', channel=1, note=39, velocity=97, time=0),\n",
       "   Message('note_off', channel=9, note=52, velocity=64, time=1),\n",
       "   Message('note_off', channel=9, note=49, velocity=64, time=0),\n",
       "   Message('note_off', channel=9, note=35, velocity=64, time=0),\n",
       "   Message('note_on', channel=9, note=44, velocity=60, time=96),\n",
       "   Message('note_off', channel=9, note=44, velocity=64, time=1),\n",
       "   Message('note_off', channel=1, note=39, velocity=64, time=86),\n",
       "   Message('note_on', channel=1, note=41, velocity=97, time=8),\n",
       "   Message('note_on', channel=9, note=49, velocity=110, time=1),\n",
       "   Message('note_on', channel=9, note=35, velocity=110, time=0),\n",
       "   Message('note_off', channel=9, note=49, velocity=64, time=1),\n",
       "   Message('note_off', channel=9, note=35, velocity=64, time=21),\n",
       "   Message('note_on', channel=9, note=44, velocity=60, time=74),\n",
       "   Message('note_on', channel=9, note=51, velocity=80, time=0),\n",
       "   Message('note_off', channel=9, note=51, velocity=64, time=1),\n",
       "   Message('note_off', channel=9, note=44, velocity=64, time=0),\n",
       "   Message('note_off', channel=1, note=41, velocity=64, time=52),\n",
       "   Message('note_on', channel=2, note=73, velocity=119, time=6),\n",
       "   Message('note_on', channel=9, note=55, velocity=127, time=0),\n",
       "   Message('note_on', channel=9, note=35, velocity=110, time=0),\n",
       "   Message('note_on', channel=0, note=63, velocity=127, time=0),\n",
       "   Message('note_on', channel=0, note=68, velocity=127, time=0),\n",
       "   Message('note_off', channel=9, note=35, velocity=64, time=1),\n",
       "   Message('note_off', channel=9, note=55, velocity=64, time=0),\n",
       "   Message('note_on', channel=1, note=46, velocity=97, time=3),\n",
       "   Message('note_off', channel=2, note=89, velocity=64, time=28),\n",
       "   Message('note_off', channel=2, note=82, velocity=64, time=0),\n",
       "   Message('note_off', channel=2, note=87, velocity=64, time=0),\n",
       "   Message('note_off', channel=2, note=94, velocity=64, time=0),\n",
       "   Message('note_on', channel=9, note=51, velocity=73, time=5),\n",
       "   Message('note_off', channel=9, note=51, velocity=64, time=1),\n",
       "   Message('note_off', channel=0, note=68, velocity=64, time=53),\n",
       "   Message('note_off', channel=0, note=63, velocity=64, time=0),\n",
       "   Message('note_off', channel=2, note=73, velocity=64, time=0),\n",
       "   Message('note_off', channel=1, note=46, velocity=64, time=23),\n",
       "   Message('note_on', channel=2, note=70, velocity=105, time=18),\n",
       "   Message('note_on', channel=2, note=75, velocity=92, time=0),\n",
       "   Message('note_on', channel=0, note=65, velocity=102, time=0),\n",
       "   Message('note_on', channel=0, note=48, velocity=94, time=0),\n",
       "   Message('note_on', channel=0, note=55, velocity=103, time=0),\n",
       "   Message('note_on', channel=1, note=48, velocity=97, time=0),\n",
       "   Message('note_on', channel=9, note=35, velocity=99, time=1),\n",
       "   Message('note_on', channel=9, note=57, velocity=110, time=0),\n",
       "   Message('note_off', channel=9, note=57, velocity=64, time=1),\n",
       "   Message('note_off', channel=9, note=35, velocity=64, time=0),\n",
       "   Message('note_on', channel=9, note=51, velocity=81, time=95),\n",
       "   Message('note_off', channel=9, note=51, velocity=64, time=1),\n",
       "   Message('note_off', channel=0, note=39, velocity=64, time=37),\n",
       "   Message('note_off', channel=0, note=46, velocity=64, time=3),\n",
       "   Message('note_on', channel=9, note=40, velocity=100, time=18),\n",
       "   Message('note_off', channel=9, note=40, velocity=64, time=1),\n",
       "   Message('note_on', channel=9, note=48, velocity=110, time=35),\n",
       "   Message('note_off', channel=9, note=48, velocity=64, time=1),\n",
       "   Message('note_on', channel=9, note=45, velocity=111, time=31),\n",
       "   Message('note_off', channel=9, note=45, velocity=64, time=1),\n",
       "   Message('note_off', channel=1, note=48, velocity=64, time=9),\n",
       "   Message('note_off', channel=0, note=65, velocity=64, time=2),\n",
       "   Message('note_off', channel=2, note=75, velocity=64, time=0),\n",
       "   Message('note_off', channel=2, note=70, velocity=64, time=0),\n",
       "   Message('note_on', channel=9, note=41, velocity=110, time=20),\n",
       "   Message('note_off', channel=9, note=41, velocity=64, time=1),\n",
       "   Message('note_off', channel=0, note=55, velocity=64, time=10),\n",
       "   Message('note_off', channel=0, note=48, velocity=64, time=0),\n",
       "   Message('note_on', channel=2, note=70, velocity=111, time=21),\n",
       "   Message('note_on', channel=9, note=35, velocity=119, time=0),\n",
       "   Message('note_on', channel=9, note=57, velocity=127, time=0),\n",
       "   Message('note_on', channel=0, note=39, velocity=127, time=0),\n",
       "   Message('note_on', channel=0, note=46, velocity=127, time=0),\n",
       "   Message('note_on', channel=0, note=65, velocity=110, time=0),\n",
       "   Message('note_on', channel=0, note=60, velocity=106, time=0),\n",
       "   Message('note_on', channel=1, note=39, velocity=97, time=0),\n",
       "   Message('note_off', channel=9, note=57, velocity=64, time=1),\n",
       "   Message('note_off', channel=9, note=35, velocity=64, time=0),\n",
       "   Message('note_on', channel=9, note=44, velocity=60, time=96),\n",
       "   Message('note_off', channel=9, note=44, velocity=64, time=1),\n",
       "   Message('note_off', channel=0, note=46, velocity=64, time=77),\n",
       "   Message('note_off', channel=0, note=39, velocity=64, time=0),\n",
       "   Message('note_off', channel=1, note=39, velocity=64, time=9),\n",
       "   Message('note_off', channel=0, note=60, velocity=64, time=1),\n",
       "   Message('note_off', channel=0, note=65, velocity=64, time=0),\n",
       "   Message('note_off', channel=2, note=70, velocity=64, time=1),\n",
       "   Message('note_on', channel=0, note=41, velocity=94, time=6),\n",
       "   Message('note_on', channel=0, note=65, velocity=102, time=0),\n",
       "   Message('note_on', channel=0, note=60, velocity=99, time=0),\n",
       "   Message('note_on', channel=0, note=55, velocity=98, time=0),\n",
       "   Message('note_on', channel=0, note=48, velocity=103, time=0),\n",
       "   Message('note_on', channel=1, note=41, velocity=97, time=0),\n",
       "   Message('note_on', channel=9, note=49, velocity=120, time=1),\n",
       "   Message('note_on', channel=9, note=35, velocity=100, time=0),\n",
       "   Message('note_off', channel=9, note=35, velocity=64, time=1),\n",
       "   Message('note_off', channel=9, note=49, velocity=64, time=0),\n",
       "   Message('note_on', channel=9, note=44, velocity=60, time=95),\n",
       "   Message('note_on', channel=9, note=51, velocity=80, time=0),\n",
       "   Message('note_off', channel=9, note=51, velocity=64, time=1),\n",
       "   Message('note_off', channel=9, note=44, velocity=64, time=0),\n",
       "   Message('note_off', channel=0, note=48, velocity=64, time=21),\n",
       "   Message('note_off', channel=0, note=41, velocity=64, time=1),\n",
       "   Message('note_off', channel=1, note=41, velocity=64, time=34),\n",
       "   Message('note_off', channel=0, note=65, velocity=64, time=1),\n",
       "   Message('note_on', channel=2, note=73, velocity=92, time=0),\n",
       "   Message('note_on', channel=0, note=63, velocity=107, time=0),\n",
       "   Message('note_on', channel=0, note=68, velocity=102, time=0),\n",
       "   Message('note_on', channel=0, note=46, velocity=87, time=0),\n",
       "   Message('note_on', channel=0, note=53, velocity=98, time=0),\n",
       "   Message('note_off', channel=0, note=60, velocity=64, time=1),\n",
       "   Message('note_off', channel=0, note=55, velocity=64, time=0),\n",
       "   Message('note_on', channel=9, note=55, velocity=127, time=0),\n",
       "   Message('note_on', channel=9, note=35, velocity=110, time=0),\n",
       "   Message('note_off', channel=9, note=35, velocity=64, time=1),\n",
       "   Message('note_off', channel=9, note=55, velocity=64, time=0),\n",
       "   Message('note_on', channel=1, note=46, velocity=97, time=3),\n",
       "   Message('note_on', channel=9, note=51, velocity=73, time=33),\n",
       "   Message('note_off', channel=9, note=51, velocity=64, time=1),\n",
       "   Message('note_off', channel=0, note=68, velocity=64, time=61),\n",
       "   Message('note_off', channel=0, note=63, velocity=64, time=0),\n",
       "   Message('note_off', channel=2, note=73, velocity=64, time=7),\n",
       "   Message('note_off', channel=0, note=46, velocity=64, time=3),\n",
       "   Message('note_off', channel=0, note=53, velocity=64, time=4),\n",
       "   Message('note_off', channel=1, note=46, velocity=64, time=1),\n",
       "   Message('note_on', channel=2, note=70, velocity=105, time=18),\n",
       "   Message('note_on', channel=2, note=75, velocity=92, time=0),\n",
       "   Message('note_on', channel=0, note=65, velocity=102, time=0),\n",
       "   Message('note_on', channel=0, note=48, velocity=94, time=0),\n",
       "   Message('note_on', channel=0, note=55, velocity=103, time=0),\n",
       "   Message('note_on', channel=1, note=48, velocity=97, time=0),\n",
       "   Message('note_on', channel=9, note=35, velocity=99, time=1),\n",
       "   Message('note_on', channel=9, note=57, velocity=100, time=0),\n",
       "   Message('note_off', channel=9, note=57, velocity=64, time=1),\n",
       "   Message('note_off', channel=9, note=35, velocity=64, time=0),\n",
       "   Message('note_on', channel=9, note=51, velocity=81, time=95),\n",
       "   Message('note_off', channel=9, note=51, velocity=64, time=1),\n",
       "   Message('note_on', channel=9, note=40, velocity=95, time=94),\n",
       "   Message('note_off', channel=9, note=40, velocity=64, time=1),\n",
       "   Message('note_on', channel=9, note=45, velocity=67, time=31),\n",
       "   Message('note_off', channel=9, note=45, velocity=64, time=1),\n",
       "   Message('note_off', channel=0, note=65, velocity=64, time=11),\n",
       "   Message('note_off', channel=2, note=75, velocity=64, time=0),\n",
       "   Message('note_off', channel=2, note=70, velocity=64, time=0),\n",
       "   Message('note_off', channel=1, note=48, velocity=64, time=5),\n",
       "   Message('note_on', channel=9, note=41, velocity=110, time=15),\n",
       "   Message('note_off', channel=9, note=41, velocity=64, time=1),\n",
       "   Message('note_off', channel=0, note=48, velocity=64, time=10),\n",
       "   Message('note_off', channel=0, note=55, velocity=64, time=0),\n",
       "   Message('note_on', channel=2, note=70, velocity=111, time=21),\n",
       "   Message('note_on', channel=9, note=35, velocity=119, time=0),\n",
       "   Message('note_on', channel=9, note=52, velocity=117, time=0),\n",
       "   Message('note_on', channel=0, note=39, velocity=127, time=0),\n",
       "   Message('note_on', channel=0, note=46, velocity=127, time=0),\n",
       "   Message('note_on', channel=0, note=65, velocity=110, time=0),\n",
       "   Message('note_on', channel=0, note=60, velocity=106, time=0),\n",
       "   Message('note_on', channel=1, note=39, velocity=120, time=0),\n",
       "   Message('note_off', channel=9, note=52, velocity=64, time=1),\n",
       "   Message('note_off', channel=9, note=35, velocity=64, time=0),\n",
       "   Message('note_on', channel=9, note=40, velocity=90, time=59),\n",
       "   Message('note_off', channel=9, note=40, velocity=64, time=1),\n",
       "   Message('note_on', channel=9, note=44, velocity=60, time=36),\n",
       "   Message('note_off', channel=9, note=44, velocity=64, time=1),\n",
       "   Message('note_off', channel=0, note=46, velocity=64, time=77),\n",
       "   Message('note_off', channel=0, note=39, velocity=64, time=0),\n",
       "   Message('note_off', channel=1, note=39, velocity=64, time=8),\n",
       "   Message('note_off', channel=0, note=60, velocity=64, time=2),\n",
       "   Message('note_off', channel=0, note=65, velocity=64, time=0),\n",
       "   Message('note_off', channel=2, note=70, velocity=64, time=1),\n",
       "   Message('note_on', channel=0, note=41, velocity=94, time=6),\n",
       "   Message('note_on', channel=0, note=65, velocity=102, time=0),\n",
       "   Message('note_on', channel=0, note=60, velocity=99, time=0),\n",
       "   Message('note_on', channel=0, note=55, velocity=98, time=0),\n",
       "   Message('note_on', channel=0, note=48, velocity=103, time=0),\n",
       "   Message('note_on', channel=1, note=41, velocity=97, time=0),\n",
       "   Message('note_on', channel=9, note=49, velocity=99, time=1),\n",
       "   Message('note_on', channel=9, note=35, velocity=64, time=0),\n",
       "   Message('note_off', channel=9, note=35, velocity=64, time=1),\n",
       "   Message('note_off', channel=9, note=49, velocity=64, time=0),\n",
       "   Message('note_on', channel=9, note=44, velocity=60, time=95),\n",
       "   Message('note_on', channel=9, note=51, velocity=80, time=0),\n",
       "   Message('note_off', channel=9, note=51, velocity=64, time=1),\n",
       "   Message('note_off', channel=9, note=44, velocity=64, time=0),\n",
       "   Message('note_off', channel=0, note=48, velocity=64, time=21),\n",
       "   Message('note_off', channel=0, note=41, velocity=64, time=1),\n",
       "   Message('note_off', channel=1, note=41, velocity=64, time=34),\n",
       "   Message('note_on', channel=2, note=73, velocity=92, time=1),\n",
       "   Message('note_on', channel=0, note=63, velocity=107, time=0),\n",
       "   Message('note_on', channel=0, note=68, velocity=102, time=0),\n",
       "   Message('note_on', channel=0, note=46, velocity=87, time=0),\n",
       "   Message('note_on', channel=0, note=53, velocity=98, time=0),\n",
       "   Message('note_off', channel=0, note=60, velocity=64, time=1),\n",
       "   Message('note_off', channel=0, note=65, velocity=64, time=0),\n",
       "   Message('note_off', channel=0, note=55, velocity=64, time=0),\n",
       "   Message('note_on', channel=9, note=55, velocity=127, time=0),\n",
       "   Message('note_on', channel=9, note=35, velocity=110, time=0),\n",
       "   Message('note_off', channel=9, note=35, velocity=64, time=1),\n",
       "   Message('note_off', channel=9, note=55, velocity=64, time=0),\n",
       "   Message('note_on', channel=1, note=46, velocity=97, time=3),\n",
       "   Message('note_on', channel=9, note=51, velocity=73, time=33),\n",
       "   Message('note_off', channel=9, note=51, velocity=64, time=1),\n",
       "   Message('note_off', channel=0, note=63, velocity=64, time=61),\n",
       "   Message('note_off', channel=0, note=68, velocity=64, time=0),\n",
       "   Message('note_off', channel=2, note=73, velocity=64, time=8),\n",
       "   Message('note_off', channel=0, note=46, velocity=64, time=2),\n",
       "   Message('note_off', channel=0, note=53, velocity=64, time=3),\n",
       "   Message('note_off', channel=1, note=46, velocity=64, time=2),\n",
       "   Message('note_on', channel=2, note=75, velocity=92, time=18),\n",
       "   Message('note_on', channel=2, note=70, velocity=105, time=0),\n",
       "   Message('note_on', channel=0, note=65, velocity=102, time=0),\n",
       "   Message('note_on', channel=0, note=48, velocity=94, time=0),\n",
       "   Message('note_on', channel=0, note=55, velocity=103, time=0),\n",
       "   Message('note_on', channel=1, note=48, velocity=97, time=0),\n",
       "   Message('note_on', channel=9, note=35, velocity=99, time=1),\n",
       "   Message('note_on', channel=9, note=57, velocity=100, time=0),\n",
       "   Message('note_off', channel=9, note=57, velocity=64, time=1),\n",
       "   Message('note_off', channel=9, note=35, velocity=64, time=0),\n",
       "   Message('note_on', channel=9, note=51, velocity=81, time=95),\n",
       "   Message('note_off', channel=9, note=51, velocity=64, time=1),\n",
       "   Message('note_on', channel=9, note=40, velocity=95, time=94),\n",
       "   Message('note_off', channel=9, note=40, velocity=64, time=1),\n",
       "   Message('note_on', channel=9, note=45, velocity=67, time=31),\n",
       "   Message('note_off', channel=9, note=45, velocity=64, time=1),\n",
       "   Message('note_off', channel=0, note=65, velocity=64, time=11),\n",
       "   Message('note_off', channel=2, note=70, velocity=64, time=0),\n",
       "   Message('note_off', channel=2, note=75, velocity=64, time=0),\n",
       "   Message('note_on', channel=9, note=40, velocity=69, time=20),\n",
       "   Message('note_off', channel=9, note=40, velocity=64, time=1),\n",
       "   Message('note_off', channel=1, note=48, velocity=64, time=7),\n",
       "   Message('note_off', channel=0, note=48, velocity=64, time=3),\n",
       "   Message('note_off', channel=0, note=55, velocity=64, time=1),\n",
       "   Message('note_on', channel=2, note=70, velocity=111, time=20),\n",
       "   Message('note_on', channel=9, note=52, velocity=109, time=0),\n",
       "   Message('note_on', channel=9, note=35, velocity=105, time=0),\n",
       "   Message('note_on', channel=0, note=39, velocity=89, time=0),\n",
       "   Message('note_on', channel=0, note=46, velocity=102, time=0),\n",
       "   Message('note_on', channel=0, note=65, velocity=110, time=0),\n",
       "   Message('note_on', channel=0, note=60, velocity=106, time=0),\n",
       "   Message('note_on', channel=1, note=39, velocity=97, time=0),\n",
       "   Message('note_off', channel=9, note=35, velocity=64, time=1),\n",
       "   Message('note_off', channel=9, note=52, velocity=64, time=0),\n",
       "   Message('note_on', channel=9, note=35, velocity=82, time=63),\n",
       "   Message('note_on', channel=9, note=49, velocity=101, time=0),\n",
       "   Message('note_off', channel=9, note=49, velocity=64, time=1),\n",
       "   Message('note_off', channel=9, note=35, velocity=64, time=0),\n",
       "   Message('note_on', channel=9, note=44, velocity=86, time=31),\n",
       "   Message('note_off', channel=9, note=44, velocity=64, time=1),\n",
       "   Message('note_on', channel=9, note=48, velocity=86, time=31),\n",
       "   Message('note_off', channel=9, note=48, velocity=64, time=1),\n",
       "   Message('note_on', channel=9, note=45, velocity=78, time=31),\n",
       "   Message('note_off', channel=9, note=45, velocity=64, time=1),\n",
       "   Message('note_off', channel=0, note=46, velocity=64, time=14),\n",
       "   Message('note_off', channel=0, note=39, velocity=64, time=0),\n",
       "   Message('note_off', channel=1, note=39, velocity=64, time=9),\n",
       "   Message('note_off', channel=0, note=60, velocity=64, time=1),\n",
       "   Message('note_off', channel=0, note=65, velocity=64, time=0),\n",
       "   Message('note_off', channel=2, note=70, velocity=64, time=1),\n",
       "   Message('note_on', channel=9, note=35, velocity=109, time=6),\n",
       "   Message('note_on', channel=9, note=55, velocity=95, time=0),\n",
       "   Message('note_on', channel=0, note=41, velocity=94, time=0),\n",
       "   Message('note_on', channel=0, note=65, velocity=102, time=0),\n",
       "   Message('note_on', channel=0, note=60, velocity=99, time=0),\n",
       "   Message('note_on', channel=0, note=55, velocity=98, time=0),\n",
       "   Message('note_on', channel=0, note=48, velocity=103, time=0),\n",
       "   Message('note_on', channel=1, note=41, velocity=97, time=0),\n",
       "   Message('note_off', channel=9, note=55, velocity=64, time=1),\n",
       "   Message('note_off', channel=9, note=35, velocity=64, time=0),\n",
       "   Message('note_on', channel=9, note=44, velocity=58, time=96),\n",
       "   Message('note_off', channel=9, note=44, velocity=64, time=1),\n",
       "   Message('note_off', channel=0, note=48, velocity=64, time=21),\n",
       "   Message('note_off', channel=0, note=41, velocity=64, time=1),\n",
       "   Message('note_off', channel=1, note=41, velocity=64, time=34),\n",
       "   Message('note_on', channel=2, note=73, velocity=92, time=1),\n",
       "   Message('note_on', channel=0, note=63, velocity=107, time=0),\n",
       "   Message('note_on', channel=0, note=68, velocity=102, time=0),\n",
       "   Message('note_on', channel=0, note=46, velocity=87, time=0),\n",
       "   Message('note_on', channel=0, note=53, velocity=98, time=0),\n",
       "   Message('note_off', channel=0, note=60, velocity=64, time=1),\n",
       "   Message('note_off', channel=0, note=65, velocity=64, time=0),\n",
       "   Message('note_off', channel=0, note=55, velocity=64, time=0),\n",
       "   Message('note_on', channel=9, note=35, velocity=110, time=0),\n",
       "   Message('note_on', channel=9, note=49, velocity=110, time=0),\n",
       "   Message('note_off', channel=9, note=49, velocity=64, time=1),\n",
       "   Message('note_off', channel=9, note=35, velocity=64, time=0),\n",
       "   Message('note_on', channel=1, note=46, velocity=97, time=3),\n",
       "   MetaMessage('set_tempo', tempo=272256, time=32),\n",
       "   Message('note_on', channel=9, note=44, velocity=73, time=0),\n",
       "   Message('note_off', channel=9, note=44, velocity=64, time=1),\n",
       "   Message('note_on', channel=9, note=43, velocity=93, time=31),\n",
       "   Message('note_off', channel=9, note=43, velocity=64, time=1),\n",
       "   Message('note_off', channel=0, note=63, velocity=64, time=30),\n",
       "   Message('note_off', channel=0, note=68, velocity=64, time=0),\n",
       "   Message('note_on', channel=9, note=43, velocity=45, time=1),\n",
       "   Message('note_off', channel=9, note=43, velocity=64, time=1),\n",
       "   Message('note_off', channel=2, note=73, velocity=64, time=6),\n",
       "   Message('note_off', channel=0, note=46, velocity=64, time=2),\n",
       "   Message('note_off', channel=0, note=53, velocity=64, time=3),\n",
       "   Message('note_off', channel=1, note=46, velocity=64, time=2),\n",
       "   Message('note_on', channel=2, note=75, velocity=92, time=18),\n",
       "   Message('note_on', channel=2, note=70, velocity=105, time=0),\n",
       "   Message('note_on', channel=9, note=35, velocity=90, time=0),\n",
       "   Message('note_on', channel=0, note=65, velocity=102, time=0),\n",
       "   Message('note_on', channel=0, note=48, velocity=94, time=0),\n",
       "   Message('note_on', channel=0, note=55, velocity=103, time=0),\n",
       "   Message('note_on', channel=1, note=31, velocity=97, time=0),\n",
       "   Message('note_off', channel=9, note=35, velocity=64, time=1),\n",
       "   Message('note_on', channel=9, note=51, velocity=85, time=95),\n",
       "   Message('note_off', channel=9, note=51, velocity=64, time=1),\n",
       "   Message('note_off', channel=1, note=31, velocity=64, time=16),\n",
       "   Message('note_on', channel=1, note=43, velocity=97, time=47),\n",
       "   Message('note_on', channel=9, note=51, velocity=64, time=32),\n",
       "   Message('note_off', channel=9, note=51, velocity=64, time=1),\n",
       "   Message('note_off', channel=0, note=65, velocity=64, time=43),\n",
       "   Message('note_off', channel=2, note=70, velocity=64, time=0),\n",
       "   Message('note_off', channel=2, note=75, velocity=64, time=0),\n",
       "   Message('note_off', channel=0, note=48, velocity=64, time=31),\n",
       "   Message('note_off', channel=0, note=55, velocity=64, time=1),\n",
       "   Message('note_off', channel=1, note=43, velocity=64, time=2),\n",
       "   Message('program_change', channel=9, program=40, time=16),\n",
       "   Message('note_on', channel=2, note=75, velocity=123, time=2),\n",
       "   Message('note_on', channel=9, note=38, velocity=87, time=0),\n",
       "   Message('note_on', channel=9, note=59, velocity=80, time=0),\n",
       "   Message('note_on', channel=0, note=60, velocity=89, time=0),\n",
       "   Message('note_on', channel=0, note=55, velocity=92, time=0),\n",
       "   Message('note_on', channel=0, note=65, velocity=81, time=0),\n",
       "   Message('note_on', channel=1, note=36, velocity=121, time=0),\n",
       "   Message('note_off', channel=9, note=59, velocity=64, time=1),\n",
       "   Message('note_off', channel=9, note=38, velocity=64, time=25),\n",
       "   Message('note_on', channel=9, note=38, velocity=83, time=70),\n",
       "   Message('note_on', channel=9, note=44, velocity=71, time=0),\n",
       "   Message('note_off', channel=9, note=38, velocity=64, time=26),\n",
       "   Message('note_off', channel=2, note=75, velocity=64, time=16),\n",
       "   Message('note_off', channel=9, note=44, velocity=64, time=2),\n",
       "   Message('note_on', channel=2, note=74, velocity=75, time=15),\n",
       "   Message('note_on', channel=9, note=38, velocity=78, time=0),\n",
       "   Message('note_off', channel=9, note=38, velocity=64, time=26),\n",
       "   Message('note_off', channel=2, note=74, velocity=64, time=4),\n",
       "   Message('note_off', channel=1, note=36, velocity=64, time=4),\n",
       "   Message('note_on', channel=2, note=72, velocity=81, time=3),\n",
       "   Message('note_on', channel=9, note=38, velocity=83, time=0),\n",
       "   Message('note_on', channel=1, note=43, velocity=105, time=0),\n",
       "   Message('note_off', channel=9, note=38, velocity=64, time=26),\n",
       "   Message('note_off', channel=2, note=72, velocity=64, time=33),\n",
       "   Message('note_on', channel=2, note=70, velocity=105, time=37),\n",
       "   Message('note_on', channel=9, note=38, velocity=83, time=0),\n",
       "   Message('note_on', channel=9, note=44, velocity=64, time=0),\n",
       "   Message('note_on', channel=1, note=36, velocity=86, time=0),\n",
       "   Message('note_off', channel=1, note=43, velocity=64, time=15),\n",
       "   Message('note_off', channel=0, note=55, velocity=64, time=7),\n",
       "   Message('note_off', channel=0, note=60, velocity=64, time=2),\n",
       "   Message('note_off', channel=9, note=38, velocity=64, time=2),\n",
       "   Message('note_off', channel=0, note=65, velocity=64, time=4),\n",
       "   Message('note_off', channel=2, note=70, velocity=64, time=16),\n",
       "   Message('note_off', channel=9, note=44, velocity=64, time=2),\n",
       "   Message('note_off', channel=1, note=36, velocity=64, time=11),\n",
       "   Message('note_on', channel=9, note=38, velocity=77, time=0),\n",
       "   Message('note_on', channel=0, note=63, velocity=86, time=0),\n",
       "   Message('note_on', channel=0, note=58, velocity=89, time=0),\n",
       "   Message('note_on', channel=0, note=67, velocity=97, time=0),\n",
       "   Message('note_on', channel=0, note=53, velocity=74, time=0),\n",
       "   Message('note_on', channel=1, note=32, velocity=127, time=0),\n",
       "   Message('note_off', channel=9, note=38, velocity=64, time=26),\n",
       "   Message('note_on', channel=9, note=38, velocity=87, time=11),\n",
       "   Message('note_off', channel=9, note=38, velocity=64, time=26),\n",
       "   Message('note_off', channel=0, note=67, velocity=64, time=26),\n",
       "   Message('note_on', channel=2, note=70, velocity=99, time=44),\n",
       "   Message('note_on', channel=9, note=38, velocity=83, time=0),\n",
       "   Message('note_on', channel=9, note=44, velocity=60, time=0),\n",
       "   Message('note_off', channel=9, note=38, velocity=64, time=26),\n",
       "   Message('note_off', channel=9, note=44, velocity=64, time=17),\n",
       "   Message('note_on', channel=9, note=38, velocity=78, time=16),\n",
       "   Message('note_off', channel=1, note=32, velocity=64, time=19),\n",
       "   Message('note_off', channel=9, note=38, velocity=64, time=7),\n",
       "   Message('note_on', channel=2, note=72, velocity=97, time=11),\n",
       "   Message('note_on', channel=9, note=38, velocity=83, time=0),\n",
       "   Message('note_on', channel=1, note=39, velocity=111, time=0),\n",
       "   Message('note_off', channel=2, note=70, velocity=64, time=15),\n",
       "   Message('note_off', channel=9, note=38, velocity=64, time=11),\n",
       "   Message('note_on', channel=9, note=39, velocity=64, time=34),\n",
       "   Message('note_off', channel=9, note=39, velocity=64, time=1),\n",
       "   Message('note_off', channel=2, note=72, velocity=64, time=13),\n",
       "   Message('note_off', channel=0, note=53, velocity=64, time=14),\n",
       "   Message('note_on', channel=2, note=75, velocity=121, time=8),\n",
       "   Message('note_on', channel=9, note=38, velocity=83, time=0),\n",
       "   Message('note_on', channel=9, note=44, velocity=68, time=0),\n",
       "   Message('note_off', channel=0, note=58, velocity=64, time=4),\n",
       "   Message('note_off', channel=0, note=63, velocity=64, time=10),\n",
       "   Message('note_off', channel=9, note=38, velocity=64, time=12),\n",
       "   Message('note_off', channel=9, note=44, velocity=64, time=6),\n",
       "   Message('note_on', channel=9, note=38, velocity=77, time=27),\n",
       "   Message('note_on', channel=1, note=32, velocity=115, time=0),\n",
       "   Message('note_off', channel=2, note=75, velocity=64, time=7),\n",
       "   Message('note_off', channel=1, note=39, velocity=64, time=2),\n",
       "   Message('note_off', channel=1, note=32, velocity=64, time=15),\n",
       "   Message('note_off', channel=9, note=38, velocity=64, time=2),\n",
       "   Message('note_on', channel=2, note=79, velocity=107, time=11),\n",
       "   Message('note_on', channel=9, note=38, velocity=87, time=0),\n",
       "   Message('note_on', channel=0, note=66, velocity=97, time=0),\n",
       "   Message('note_on', channel=0, note=62, velocity=87, time=0),\n",
       "   Message('note_on', channel=0, note=59, velocity=85, time=0),\n",
       "   Message('note_on', channel=0, note=67, velocity=87, time=0),\n",
       "   Message('note_on', channel=1, note=31, velocity=103, time=0),\n",
       "   Message('note_off', channel=9, note=38, velocity=64, time=26),\n",
       "   Message('note_on', channel=9, note=38, velocity=83, time=70),\n",
       "   Message('note_on', channel=9, note=44, velocity=72, time=0),\n",
       "   Message('note_off', channel=9, note=38, velocity=64, time=26),\n",
       "   Message('note_off', channel=9, note=44, velocity=64, time=8),\n",
       "   Message('note_off', channel=2, note=79, velocity=64, time=2),\n",
       "   Message('note_on', channel=2, note=78, velocity=123, time=23),\n",
       "   Message('note_on', channel=9, note=38, velocity=78, time=0),\n",
       "   Message('note_off', channel=1, note=31, velocity=64, time=26),\n",
       "   Message('note_off', channel=9, note=38, velocity=64, time=0),\n",
       "   Message('note_on', channel=2, note=76, velocity=56, time=11),\n",
       "   Message('note_on', channel=9, note=38, velocity=83, time=0),\n",
       "   Message('note_on', channel=1, note=38, velocity=99, time=0),\n",
       "   Message('note_off', channel=2, note=78, velocity=64, time=7),\n",
       "   Message('note_off', channel=9, note=38, velocity=64, time=19),\n",
       "   Message('note_on', channel=2, note=74, velocity=92, time=33),\n",
       "   Message('note_off', channel=2, note=76, velocity=64, time=1),\n",
       "   Message('note_off', channel=0, note=67, velocity=64, time=28),\n",
       "   Message('note_off', channel=0, note=66, velocity=64, time=4),\n",
       "   Message('note_off', channel=0, note=59, velocity=64, time=2),\n",
       "   Message('note_on', channel=9, note=38, velocity=83, time=2),\n",
       "   Message('note_on', channel=9, note=44, velocity=73, time=0),\n",
       "   Message('note_off', channel=0, note=62, velocity=64, time=1),\n",
       "   Message('note_off', channel=2, note=74, velocity=64, time=13),\n",
       "   Message('note_off', channel=9, note=38, velocity=64, time=12),\n",
       "   Message('note_off', channel=9, note=44, velocity=64, time=12),\n",
       "   Message('note_off', channel=1, note=38, velocity=64, time=19),\n",
       "   Message('note_on', channel=2, note=71, velocity=93, time=2),\n",
       "   Message('note_on', channel=9, note=38, velocity=77, time=0),\n",
       "   Message('note_on', channel=0, note=60, velocity=92, time=0),\n",
       "   Message('note_on', channel=0, note=59, velocity=87, time=0),\n",
       "   Message('note_on', channel=0, note=55, velocity=89, time=0),\n",
       "   Message('note_on', channel=0, note=64, velocity=80, time=0),\n",
       "   Message('note_on', channel=1, note=36, velocity=111, time=0),\n",
       "   Message('note_off', channel=9, note=38, velocity=64, time=26),\n",
       "   Message('note_on', channel=9, note=38, velocity=87, time=11),\n",
       "   Message('note_off', channel=9, note=38, velocity=64, time=26),\n",
       "   Message('note_on', channel=9, note=39, velocity=80, time=34),\n",
       "   Message('note_off', channel=9, note=39, velocity=64, time=1),\n",
       "   Message('note_off', channel=2, note=71, velocity=64, time=0),\n",
       "   Message('note_on', channel=2, note=74, velocity=97, time=35),\n",
       "   Message('note_on', channel=9, note=38, velocity=83, time=0),\n",
       "   Message('note_on', channel=9, note=44, velocity=75, time=0),\n",
       "   Message('note_off', channel=9, note=38, velocity=64, time=26),\n",
       "   Message('note_off', channel=9, note=44, velocity=64, time=9),\n",
       "   Message('note_on', channel=9, note=38, velocity=78, time=24),\n",
       "   Message('note_off', channel=2, note=74, velocity=64, time=13),\n",
       "   Message('note_off', channel=9, note=38, velocity=64, time=13),\n",
       "   Message('note_off', channel=1, note=36, velocity=64, time=6),\n",
       "   Message('note_on', channel=2, note=76, velocity=90, time=5),\n",
       "   Message('note_on', channel=9, note=38, velocity=83, time=0),\n",
       "   Message('note_on', channel=1, note=43, velocity=105, time=0),\n",
       "   Message('note_off', channel=9, note=38, velocity=64, time=26),\n",
       "   Message('note_off', channel=2, note=76, velocity=64, time=46),\n",
       "   Message('note_on', channel=2, note=79, velocity=95, time=24),\n",
       "   Message('note_on', channel=9, note=38, velocity=83, time=0),\n",
       "   Message('note_on', channel=9, note=44, velocity=80, time=0),\n",
       "   Message('note_on', channel=1, note=36, velocity=90, time=0),\n",
       "   Message('note_off', channel=1, note=43, velocity=64, time=1),\n",
       "   Message('note_off', channel=9, note=38, velocity=64, time=25),\n",
       "   Message('note_off', channel=0, note=64, velocity=64, time=3),\n",
       "   Message('note_off', channel=9, note=44, velocity=64, time=1),\n",
       "   Message('note_off', channel=0, note=55, velocity=64, time=1),\n",
       "   Message('note_off', channel=0, note=59, velocity=64, time=1),\n",
       "   Message('note_off', channel=0, note=60, velocity=64, time=3),\n",
       "   Message('note_off', channel=2, note=79, velocity=64, time=3),\n",
       "   Message('note_on', channel=9, note=38, velocity=77, time=21),\n",
       "   Message('note_on', channel=1, note=35, velocity=99, time=0),\n",
       "   Message('note_off', channel=1, note=36, velocity=64, time=10),\n",
       "   Message('note_off', channel=1, note=35, velocity=64, time=11),\n",
       "   Message('note_off', channel=9, note=38, velocity=64, time=5),\n",
       "   Message('note_on', channel=2, note=83, velocity=109, time=11),\n",
       "   Message('note_on', channel=2, note=79, velocity=109, time=0),\n",
       "   Message('note_on', channel=2, note=74, velocity=113, time=0),\n",
       "   Message('note_on', channel=9, note=51, velocity=87, time=0),\n",
       "   Message('note_on', channel=9, note=35, velocity=64, time=0),\n",
       "   Message('note_on', channel=0, note=67, velocity=99, time=0),\n",
       "   Message('note_on', channel=0, note=56, velocity=113, time=0),\n",
       "   Message('note_on', channel=0, note=62, velocity=97, time=0),\n",
       "   Message('note_on', channel=1, note=34, velocity=126, time=0),\n",
       "   Message('note_off', channel=9, note=35, velocity=64, time=1),\n",
       "   Message('note_off', channel=9, note=51, velocity=64, time=0),\n",
       "   Message('note_off', channel=2, note=74, velocity=64, time=28),\n",
       "   Message('note_off', channel=2, note=79, velocity=64, time=6),\n",
       "   Message('note_off', channel=2, note=83, velocity=64, time=17),\n",
       "   Message('note_off', channel=0, note=62, velocity=64, time=24),\n",
       "   Message('note_off', channel=0, note=56, velocity=64, time=1),\n",
       "   Message('note_off', channel=0, note=67, velocity=64, time=8),\n",
       "   Message('note_on', channel=9, note=38, velocity=83, time=11),\n",
       "   Message('note_off', channel=1, note=34, velocity=64, time=2),\n",
       "   Message('note_off', channel=9, note=38, velocity=64, time=24),\n",
       "   Message('note_on', channel=2, note=81, velocity=111, time=33),\n",
       "   Message('note_on', channel=2, note=73, velocity=121, time=0),\n",
       "   Message('note_on', channel=2, note=78, velocity=115, time=0),\n",
       "   Message('note_on', channel=9, note=53, velocity=78, time=0),\n",
       "   Message('note_on', channel=9, note=35, velocity=64, time=0),\n",
       "   Message('note_on', channel=0, note=66, velocity=109, time=0),\n",
       "   Message('note_on', channel=0, note=61, velocity=105, time=0),\n",
       "   Message('note_on', channel=0, note=55, velocity=103, time=0),\n",
       "   Message('note_on', channel=1, note=33, velocity=125, time=0),\n",
       "   Message('note_off', channel=9, note=35, velocity=64, time=1),\n",
       "   Message('note_off', channel=9, note=53, velocity=64, time=0),\n",
       "   Message('note_on', channel=9, note=38, velocity=83, time=36),\n",
       "   Message('note_off', channel=9, note=38, velocity=64, time=26),\n",
       "   Message('note_on', channel=9, note=44, velocity=68, time=70),\n",
       "   Message('note_off', channel=9, note=44, velocity=64, time=33),\n",
       "   Message('note_off', channel=0, note=66, velocity=64, time=64),\n",
       "   Message('note_on', channel=0, note=66, velocity=89, time=6),\n",
       "   Message('note_off', channel=0, note=66, velocity=64, time=53),\n",
       "   Message('note_on', channel=9, note=44, velocity=74, time=36),\n",
       "   Message('note_on', channel=0, note=65, velocity=87, time=7),\n",
       "   Message('note_off', channel=9, note=44, velocity=64, time=32),\n",
       "   Message('note_off', channel=1, note=33, velocity=64, time=4),\n",
       "   Message('note_on', channel=1, note=45, velocity=109, time=16),\n",
       "   Message('note_off', channel=0, note=65, velocity=64, time=4),\n",
       "   Message('note_on', channel=0, note=64, velocity=87, time=11),\n",
       "   Message('note_on', channel=9, note=42, velocity=41, time=22),\n",
       "   Message('note_off', channel=9, note=42, velocity=64, time=26),\n",
       "   Message('note_on', channel=9, note=42, velocity=69, time=6),\n",
       "   Message('note_off', channel=9, note=42, velocity=64, time=26),\n",
       "   Message('note_on', channel=9, note=42, velocity=64, time=6),\n",
       "   Message('note_off', channel=9, note=42, velocity=64, time=26),\n",
       "   Message('note_on', channel=9, note=46, velocity=71, time=6),\n",
       "   Message('note_off', channel=9, note=46, velocity=64, time=26),\n",
       "   Message('note_off', channel=0, note=61, velocity=64, time=69),\n",
       "   Message('note_off', channel=0, note=55, velocity=64, time=0),\n",
       "   Message('note_off', channel=2, note=78, velocity=64, time=0),\n",
       "   Message('note_off', channel=2, note=73, velocity=64, time=0),\n",
       "   Message('note_off', channel=2, note=81, velocity=64, time=0),\n",
       "   MetaMessage('time_signature', numerator=1, denominator=4, clocks_per_click=24, notated_32nd_notes_per_beat=8, time=1),\n",
       "   Message('note_on', channel=2, note=79, velocity=109, time=0),\n",
       "   Message('note_on', channel=9, note=38, velocity=73, time=0),\n",
       "   Message('note_on', channel=9, note=36, velocity=55, time=0),\n",
       "   Message('note_off', channel=9, note=36, velocity=64, time=26),\n",
       "   Message('note_off', channel=9, note=38, velocity=64, time=0),\n",
       "   Message('note_on', channel=2, note=76, velocity=109, time=34),\n",
       "   Message('note_on', channel=0, note=60, velocity=109, time=0),\n",
       "   Message('note_on', channel=0, note=64, velocity=105, time=0),\n",
       "   Message('note_on', channel=0, note=59, velocity=101, time=0),\n",
       "   Message('note_on', channel=0, note=55, velocity=103, time=0),\n",
       "   Message('note_off', channel=2, note=79, velocity=64, time=11),\n",
       "   Message('note_off', channel=1, note=45, velocity=64, time=25),\n",
       "   MetaMessage('time_signature', numerator=4, denominator=4, clocks_per_click=24, notated_32nd_notes_per_beat=8, time=0),\n",
       "   Message('note_on', channel=9, note=51, velocity=60, time=0),\n",
       "   Message('note_on', channel=1, note=38, velocity=115, time=0),\n",
       "   Message('note_off', channel=9, note=51, velocity=64, time=1),\n",
       "   Message('note_off', channel=0, note=64, velocity=64, time=19),\n",
       "   Message('note_on', channel=9, note=38, velocity=83, time=76),\n",
       "   Message('note_on', channel=9, note=44, velocity=69, time=0),\n",
       "   Message('note_off', channel=9, note=38, velocity=64, time=26),\n",
       "   Message('note_off', channel=1, note=38, velocity=64, time=8),\n",
       "   Message('note_off', channel=9, note=44, velocity=64, time=25),\n",
       "   Message('note_on', channel=9, note=51, velocity=50, time=0),\n",
       "   Message('note_on', channel=1, note=38, velocity=111, time=0),\n",
       "   Message('note_off', channel=9, note=51, velocity=64, time=1),\n",
       "   Message('note_on', channel=9, note=38, velocity=83, time=36),\n",
       "   Message('note_off', channel=9, note=38, velocity=64, time=26),\n",
       "   Message('note_on', channel=9, note=38, velocity=83, time=70),\n",
       "   Message('note_on', channel=9, note=44, velocity=64, time=0),\n",
       "   Message('note_off', channel=9, note=38, velocity=64, time=26),\n",
       "   Message('note_off', channel=9, note=44, velocity=64, time=20),\n",
       "   Message('note_on', channel=9, note=38, velocity=77, time=13),\n",
       "   Message('note_off', channel=9, note=38, velocity=64, time=26),\n",
       "   Message('note_off', channel=1, note=38, velocity=64, time=4),\n",
       "   Message('note_on', channel=9, note=51, velocity=50, time=7),\n",
       "   Message('note_on', channel=9, note=35, velocity=82, time=0),\n",
       "   Message('note_on', channel=1, note=38, velocity=105, time=0),\n",
       "   Message('note_off', channel=9, note=51, velocity=64, time=1),\n",
       "   Message('note_off', channel=9, note=35, velocity=64, time=44),\n",
       "   Message('note_on', channel=9, note=38, velocity=83, time=51),\n",
       "   Message('note_on', channel=9, note=44, velocity=66, time=0),\n",
       "   Message('note_off', channel=9, note=38, velocity=64, time=26),\n",
       "   Message('note_off', channel=1, note=38, velocity=64, time=14),\n",
       "   Message('note_off', channel=9, note=44, velocity=64, time=18),\n",
       "   Message('note_on', channel=9, note=35, velocity=71, time=0),\n",
       "   Message('note_on', channel=9, note=59, velocity=50, time=1),\n",
       "   Message('note_on', channel=1, note=38, velocity=107, time=0),\n",
       "   Message('note_off', channel=9, note=59, velocity=64, time=1),\n",
       "   Message('note_on', channel=9, note=38, velocity=83, time=36),\n",
       "   Message('note_off', channel=9, note=38, velocity=64, time=26),\n",
       "   Message('note_on', channel=9, note=39, velocity=64, time=33),\n",
       "   Message('note_off', channel=9, note=39, velocity=64, time=1),\n",
       "   Message('note_off', channel=2, note=76, velocity=64, time=0),\n",
       "   Message('note_off', channel=9, note=35, velocity=64, time=1),\n",
       "   Message('note_on', channel=2, note=74, velocity=86, time=35),\n",
       "   Message('note_on', channel=9, note=38, velocity=83, time=0),\n",
       "   Message('note_on', channel=9, note=44, velocity=65, time=0),\n",
       "   Message('note_off', channel=0, note=55, velocity=64, time=6),\n",
       "   Message('note_off', channel=0, note=59, velocity=64, time=6),\n",
       "   Message('note_off', channel=0, note=60, velocity=64, time=6),\n",
       "   Message('note_off', channel=0, note=64, velocity=64, time=2),\n",
       "   Message('note_off', channel=9, note=38, velocity=64, time=6),\n",
       "   Message('note_off', channel=9, note=44, velocity=64, time=29),\n",
       "   Message('note_off', channel=2, note=74, velocity=64, time=4),\n",
       "   Message('note_on', channel=2, note=76, velocity=95, time=0),\n",
       "   Message('note_on', channel=9, note=38, velocity=77, time=0),\n",
       "   Message('note_on', channel=0, note=60, velocity=93, time=0),\n",
       "   Message('note_on', channel=0, note=65, velocity=86, time=0),\n",
       "   Message('note_on', channel=0, note=54, velocity=105, time=0),\n",
       "   Message('note_off', channel=9, note=38, velocity=64, time=26),\n",
       "   Message('note_off', channel=1, note=38, velocity=64, time=2),\n",
       "   Message('note_on', channel=9, note=59, velocity=70, time=9),\n",
       "   Message('note_on', channel=1, note=37, velocity=123, time=0),\n",
       "   Message('note_off', channel=9, note=59, velocity=64, time=1),\n",
       "   Message('note_on', channel=9, note=35, velocity=68, time=0),\n",
       "   Message('note_off', channel=9, note=35, velocity=64, time=55),\n",
       "   Message('note_on', channel=9, note=38, velocity=83, time=40),\n",
       "   Message('note_on', channel=9, note=44, velocity=62, time=0),\n",
       "   Message('note_off', channel=9, note=38, velocity=64, time=26),\n",
       "   Message('note_off', channel=1, note=37, velocity=64, time=5),\n",
       "   Message('note_off', channel=9, note=44, velocity=64, time=21),\n",
       "   Message('note_on', channel=9, note=59, velocity=78, time=7),\n",
       "   Message('note_on', channel=9, note=35, velocity=74, time=0),\n",
       "   Message('note_on', channel=1, note=37, velocity=125, time=0),\n",
       "   Message('note_off', channel=9, note=59, velocity=64, time=1),\n",
       "   Message('note_on', channel=9, note=38, velocity=83, time=36),\n",
       "   Message('note_off', channel=9, note=38, velocity=64, time=26),\n",
       "   Message('note_off', channel=9, note=35, velocity=64, time=29),\n",
       "   Message('note_on', channel=9, note=38, velocity=83, time=41),\n",
       "   Message('note_on', channel=9, note=44, velocity=61, time=0),\n",
       "   Message('note_off', channel=9, note=38, velocity=64, time=26),\n",
       "   Message('note_on', channel=9, note=38, velocity=77, time=33),\n",
       "   Message('note_off', channel=9, note=44, velocity=64, time=8),\n",
       "   Message('note_off', channel=1, note=37, velocity=64, time=2),\n",
       "   Message('note_off', channel=9, note=38, velocity=64, time=16),\n",
       "   Message('note_on', channel=9, note=35, velocity=70, time=10),\n",
       "   Message('note_on', channel=9, note=51, velocity=80, time=1),\n",
       "   Message('note_on', channel=1, note=37, velocity=123, time=0),\n",
       "   Message('note_off', channel=9, note=51, velocity=64, time=1),\n",
       "   Message('note_off', channel=9, note=35, velocity=64, time=56),\n",
       "   Message('note_on', channel=9, note=38, velocity=83, time=39),\n",
       "   Message('note_on', channel=9, note=44, velocity=69, time=0),\n",
       "   Message('note_off', channel=9, note=38, velocity=64, time=26),\n",
       "   Message('note_off', channel=1, note=37, velocity=64, time=7),\n",
       "   Message('note_on', channel=9, note=35, velocity=77, time=25),\n",
       "   Message('note_on', channel=9, note=59, velocity=60, time=1),\n",
       "   Message('note_on', channel=1, note=37, velocity=123, time=0),\n",
       "   Message('note_off', channel=9, note=59, velocity=64, time=1),\n",
       "   Message('note_off', channel=9, note=44, velocity=64, time=9),\n",
       "   Message('note_on', channel=9, note=38, velocity=83, time=27),\n",
       "   Message('note_off', channel=9, note=38, velocity=64, time=26),\n",
       "   Message('note_off', channel=9, note=35, velocity=64, time=26),\n",
       "   Message('note_on', channel=9, note=39, velocity=80, time=8),\n",
       "   Message('note_off', channel=9, note=39, velocity=64, time=1),\n",
       "   Message('note_on', channel=2, note=74, velocity=80, time=35),\n",
       "   Message('note_on', channel=9, note=38, velocity=83, time=0),\n",
       "   Message('note_on', channel=9, note=44, velocity=73, time=0),\n",
       "   Message('note_off', channel=0, note=54, velocity=64, time=1),\n",
       "   Message('note_off', channel=0, note=65, velocity=64, time=0),\n",
       "   Message('note_off', channel=0, note=60, velocity=64, time=0),\n",
       "   Message('note_off', channel=2, note=76, velocity=64, time=0),\n",
       "   Message('note_off', channel=9, note=38, velocity=64, time=25),\n",
       "   Message('note_off', channel=9, note=44, velocity=64, time=23),\n",
       "   Message('note_off', channel=2, note=74, velocity=64, time=9),\n",
       "   Message('note_on', channel=9, note=38, velocity=77, time=1),\n",
       "   Message('note_on', channel=9, note=35, velocity=86, time=1),\n",
       "   Message('note_on', channel=9, note=55, velocity=64, time=0),\n",
       "   Message('note_off', channel=9, note=55, velocity=64, time=1),\n",
       "   Message('note_on', channel=2, note=76, velocity=81, time=3),\n",
       "   Message('control_change', channel=2, control=64, value=127, time=0),\n",
       "   Message('note_on', channel=0, note=55, velocity=76, time=0),\n",
       "   Message('note_on', channel=0, note=48, velocity=63, time=0),\n",
       "   Message('note_on', channel=0, note=64, velocity=65, time=0),\n",
       "   Message('note_on', channel=0, note=69, velocity=82, time=0),\n",
       "   Message('note_on', channel=0, note=67, velocity=82, time=0),\n",
       "   Message('note_on', channel=1, note=36, velocity=110, time=0),\n",
       "   Message('note_off', channel=1, note=37, velocity=64, time=19),\n",
       "   Message('note_off', channel=9, note=38, velocity=64, time=2),\n",
       "   Message('note_off', channel=9, note=35, velocity=64, time=108),\n",
       "   Message('note_on', channel=2, note=81, velocity=72, time=276),\n",
       "   Message('control_change', channel=0, control=64, value=127, time=26),\n",
       "   Message('note_on', channel=2, note=86, velocity=63, time=21),\n",
       "   Message('note_on', channel=2, note=93, velocity=52, time=3),\n",
       "   Message('note_on', channel=2, note=98, velocity=66, time=24),\n",
       "   Message('note_off', channel=2, note=93, velocity=64, time=13),\n",
       "   Message('note_off', channel=2, note=98, velocity=64, time=12),\n",
       "   Message('note_on', channel=2, note=101, velocity=58, time=4),\n",
       "   Message('note_off', channel=2, note=101, velocity=64, time=14),\n",
       "   Message('note_on', channel=2, note=103, velocity=81, time=10),\n",
       "   Message('note_off', channel=2, note=81, velocity=64, time=7),\n",
       "   Message('note_off', channel=2, note=86, velocity=64, time=9),\n",
       "   Message('note_off', channel=2, note=103, velocity=64, time=4),\n",
       "   MetaMessage('set_tempo', tempo=400512, time=105),\n",
       "   Message('note_on', channel=9, note=59, velocity=10, time=140),\n",
       "   Message('note_off', channel=1, note=36, velocity=64, time=3),\n",
       "   Message('note_off', channel=0, note=67, velocity=64, time=0),\n",
       "   Message('note_off', channel=0, note=69, velocity=64, time=0),\n",
       "   Message('note_off', channel=0, note=64, velocity=64, time=0),\n",
       "   Message('note_off', channel=0, note=48, velocity=64, time=0),\n",
       "   Message('note_off', channel=0, note=55, velocity=64, time=0),\n",
       "   Message('note_off', channel=2, note=76, velocity=64, time=0),\n",
       "   Message('note_on', channel=9, note=59, velocity=10, time=8),\n",
       "   Message('note_off', channel=9, note=59, velocity=64, time=5),\n",
       "   Message('note_off', channel=9, note=59, velocity=64, time=11),\n",
       "   Message('note_on', channel=9, note=51, velocity=10, time=10),\n",
       "   Message('note_on', channel=9, note=51, velocity=20, time=11),\n",
       "   Message('note_off', channel=9, note=51, velocity=64, time=5),\n",
       "   Message('note_on', channel=9, note=59, velocity=20, time=6),\n",
       "   Message('note_off', channel=9, note=51, velocity=64, time=5),\n",
       "   Message('note_off', channel=9, note=59, velocity=64, time=11),\n",
       "   Message('note_on', channel=9, note=59, velocity=25, time=10),\n",
       "   Message('note_on', channel=9, note=51, velocity=25, time=11),\n",
       "   Message('note_off', channel=9, note=59, velocity=64, time=5),\n",
       "   Message('note_on', channel=9, note=51, velocity=26, time=6),\n",
       "   Message('note_off', channel=9, note=51, velocity=64, time=5),\n",
       "   Message('note_off', channel=9, note=51, velocity=64, time=11),\n",
       "   Message('note_on', channel=9, note=51, velocity=20, time=10),\n",
       "   Message('note_off', channel=9, note=51, velocity=64, time=16),\n",
       "   Message('note_on', channel=9, note=51, velocity=20, time=6),\n",
       "   Message('note_off', channel=9, note=51, velocity=64, time=16),\n",
       "   Message('note_on', channel=9, note=51, velocity=20, time=10),\n",
       "   Message('note_on', channel=9, note=51, velocity=20, time=11),\n",
       "   Message('note_off', channel=9, note=51, velocity=64, time=5),\n",
       "   Message('note_off', channel=9, note=51, velocity=64, time=11),\n",
       "   Message('control_change', channel=0, control=64, value=0, time=100),\n",
       "   Message('control_change', channel=2, control=64, value=0, time=136),\n",
       "   MetaMessage('end_of_track', time=327)])]"
      ]
     },
     "execution_count": 159,
     "metadata": {},
     "output_type": "execute_result"
    }
   ],
   "source": [
    "mid.tracks"
   ]
  },
  {
   "cell_type": "code",
   "execution_count": 98,
   "id": "e6f3cb65",
   "metadata": {},
   "outputs": [],
   "source": [
    "track1 = mid.tracks[0]"
   ]
  },
  {
   "cell_type": "code",
   "execution_count": 101,
   "id": "14b4dd5d",
   "metadata": {},
   "outputs": [
    {
     "name": "stdout",
     "output_type": "stream",
     "text": [
      "320\n",
      "598\n",
      "207\n",
      "302\n"
     ]
    }
   ],
   "source": [
    "notes = {}\n",
    "\n",
    "for t in mid.tracks:\n",
    "    for m in t:\n",
    "#         print(m)\n",
    "        if m.type == 'note_on':\n",
    "            if m.channel not in notes:\n",
    "                notes[m.channel] = []\n",
    "            notes[m.channel].append(m)\n",
    "        \n",
    "for c, n in notes.items():\n",
    "    print(len(n))"
   ]
  },
  {
   "cell_type": "code",
   "execution_count": null,
   "id": "2677df92",
   "metadata": {},
   "outputs": [],
   "source": []
  }
 ],
 "metadata": {
  "kernelspec": {
   "display_name": "Python 3 (ipykernel)",
   "language": "python",
   "name": "python3"
  },
  "language_info": {
   "codemirror_mode": {
    "name": "ipython",
    "version": 3
   },
   "file_extension": ".py",
   "mimetype": "text/x-python",
   "name": "python",
   "nbconvert_exporter": "python",
   "pygments_lexer": "ipython3",
   "version": "3.8.10"
  }
 },
 "nbformat": 4,
 "nbformat_minor": 5
}
